<?xml version="1.0" encoding="UTF-8" standalone="no"?>
<!DOCTYPE svg PUBLIC "-//W3C//DTD SVG 1.0//EN" "http://www.w3.org/TR/2001/PR-SVG-20010719/DTD/svg10.dtd">
<svg width="31cm" height="13cm" viewBox="260 60 615 246" xmlns="http://www.w3.org/2000/svg" xmlns:xlink="http://www.w3.org/1999/xlink">
  <g>
    <rect style="fill: #ffffff" x="280" y="80" width="110.7" height="18"/>
    <rect style="fill: none; fill-opacity:0; stroke-width: 0.02; stroke: #000000" x="280" y="80" width="110.7" height="18"/>
    <text font-size="11.2" style="fill: #000000;text-anchor:middle;font-family:sans-serif;font-style:normal;font-weight:700" x="335.35" y="94">Words</text>
    <rect style="fill: #ffffff" x="280" y="98" width="110.7" height="36"/>
    <rect style="fill: none; fill-opacity:0; stroke-width: 0.02; stroke: #000000" x="280" y="98" width="110.7" height="36"/>
    <polygon style="fill: #000000" points="282,108 284,111 286,108 284,105 "/>
    <text font-size="12.8" style="fill: #000000;text-anchor:start;font-family:monospace;font-style:normal;font-weight:700" x="288" y="114">ID</text>
    <text font-size="12.8" style="fill: #000000;text-anchor:start;font-family:monospace;font-style:normal;font-weight:700" x="328.8" y="114">Numeric</text>
    <line style="fill: none; fill-opacity:0; stroke-width: 1; stroke: #000000" x1="288" y1="115.6" x2="382.7" y2="115.6"/>
    <ellipse style="fill: #000000" cx="284" cy="124" rx="2" ry="2"/>
    <text font-size="12.8" style="fill: #000000;text-anchor:start;font-family:monospace;font-style:normal;font-weight:normal" x="288" y="130">word</text>
    <text font-size="12.8" style="fill: #000000;text-anchor:start;font-family:monospace;font-style:normal;font-weight:normal" x="328.8" y="130">text</text>
  </g>
  <g>
    <rect style="fill: #ffffff" x="440" y="60" width="95.3" height="18"/>
    <rect style="fill: none; fill-opacity:0; stroke-width: 0.02; stroke: #000000" x="440" y="60" width="95.3" height="18"/>
    <text font-size="11.2" style="fill: #000000;text-anchor:middle;font-family:sans-serif;font-style:normal;font-weight:700" x="487.65" y="74">Tupels</text>
    <rect style="fill: #ffffff" x="440" y="78" width="95.3" height="52"/>
    <rect style="fill: none; fill-opacity:0; stroke-width: 0.02; stroke: #000000" x="440" y="78" width="95.3" height="52"/>
    <ellipse style="fill: #000000" cx="444" cy="88" rx="2" ry="2"/>
    <text font-size="12.8" style="fill: #000000;text-anchor:start;font-family:monospace;font-style:normal;font-weight:normal" x="448" y="94">w1</text>
    <text font-size="12.8" style="fill: #000000;text-anchor:start;font-family:monospace;font-style:normal;font-weight:normal" x="473.4" y="94">Numeric</text>
    <ellipse style="fill: #000000" cx="444" cy="104" rx="2" ry="2"/>
    <text font-size="12.8" style="fill: #000000;text-anchor:start;font-family:monospace;font-style:normal;font-weight:normal" x="448" y="110">w2</text>
    <text font-size="12.8" style="fill: #000000;text-anchor:start;font-family:monospace;font-style:normal;font-weight:normal" x="473.4" y="110">Numeric</text>
    <polygon style="fill: #000000" points="442,120 444,123 446,120 444,117 "/>
    <text font-size="12.8" style="fill: #000000;text-anchor:start;font-family:monospace;font-style:normal;font-weight:700" x="448" y="126">ID</text>
    <text font-size="12.8" style="fill: #000000;text-anchor:start;font-family:monospace;font-style:normal;font-weight:700" x="473.4" y="126">Numeric</text>
    <line style="fill: none; fill-opacity:0; stroke-width: 1; stroke: #000000" x1="448" y1="127.6" x2="527.3" y2="127.6"/>
  </g>
  <g>
    <polyline style="fill: none; fill-opacity:0; stroke-width: 0.02; stroke: #000000" points="390.7,108 415.35,108 415.35,88 440,88 "/>
    <text font-size="9.6" style="fill: #000000;text-anchor:start;font-family:monospace;font-style:normal;font-weight:normal" x="393.7" y="105">1</text>
    <text font-size="9.6" style="fill: #000000;text-anchor:end;font-family:monospace;font-style:normal;font-weight:normal" x="437" y="85">n</text>
  </g>
  <g>
    <polyline style="fill: none; fill-opacity:0; stroke-width: 0.02; stroke: #000000" points="390.7,108 415.35,108 415.35,104 440,104 "/>
    <text font-size="9.6" style="fill: #000000;text-anchor:start;font-family:monospace;font-style:normal;font-weight:normal" x="393.7" y="105">1</text>
    <text font-size="9.6" style="fill: #000000;text-anchor:end;font-family:monospace;font-style:normal;font-weight:normal" x="437" y="101">n</text>
  </g>
  <g>
    <rect style="fill: #ffffff" x="580" y="160" width="118.4" height="18"/>
    <rect style="fill: none; fill-opacity:0; stroke-width: 0.02; stroke: #000000" x="580" y="160" width="118.4" height="18"/>
    <text font-size="11.2" style="fill: #000000;text-anchor:middle;font-family:sans-serif;font-style:normal;font-weight:700" x="639.2" y="174">TupelTags</text>
    <rect style="fill: #ffffff" x="580" y="178" width="118.4" height="68"/>
    <rect style="fill: none; fill-opacity:0; stroke-width: 0.02; stroke: #000000" x="580" y="178" width="118.4" height="68"/>
    <ellipse style="fill: #000000" cx="584" cy="188" rx="2" ry="2"/>
    <text font-size="12.8" style="fill: #000000;text-anchor:start;font-family:monospace;font-style:normal;font-weight:normal" x="588" y="194">tupel</text>
    <text font-size="12.8" style="fill: #000000;text-anchor:start;font-family:monospace;font-style:normal;font-weight:normal" x="636.5" y="194">Numeric</text>
    <ellipse style="fill: #000000" cx="584" cy="204" rx="2" ry="2"/>
    <text font-size="12.8" style="fill: #000000;text-anchor:start;font-family:monospace;font-style:normal;font-weight:normal" x="588" y="210">tag1</text>
    <text font-size="12.8" style="fill: #000000;text-anchor:start;font-family:monospace;font-style:normal;font-weight:normal" x="636.5" y="210">text</text>
    <ellipse style="fill: #000000" cx="584" cy="220" rx="2" ry="2"/>
    <text font-size="12.8" style="fill: #000000;text-anchor:start;font-family:monospace;font-style:normal;font-weight:normal" x="588" y="226">tag2</text>
    <text font-size="12.8" style="fill: #000000;text-anchor:start;font-family:monospace;font-style:normal;font-weight:normal" x="636.5" y="226">text</text>
    <polygon style="fill: #000000" points="582,236 584,239 586,236 584,233 "/>
    <text font-size="12.8" style="fill: #000000;text-anchor:start;font-family:monospace;font-style:normal;font-weight:700" x="588" y="242">ID</text>
    <text font-size="12.8" style="fill: #000000;text-anchor:start;font-family:monospace;font-style:normal;font-weight:700" x="636.5" y="242">Numeric</text>
    <line style="fill: none; fill-opacity:0; stroke-width: 1; stroke: #000000" x1="588" y1="243.6" x2="690.4" y2="243.6"/>
  </g>
  <g>
    <rect style="fill: #ffffff" x="507.538" y="251.204" width="87.6" height="18"/>
    <rect style="fill: none; fill-opacity:0; stroke-width: 0.02; stroke: #000000" x="507.538" y="251.204" width="87.6" height="18"/>
    <text font-size="11.2" style="fill: #000000;text-anchor:middle;font-family:sans-serif;font-style:normal;font-weight:700" x="551.338" y="265.204">Files</text>
    <rect style="fill: #ffffff" x="507.538" y="269.204" width="87.6" height="20"/>
    <rect style="fill: none; fill-opacity:0; stroke-width: 0.02; stroke: #000000" x="507.538" y="269.204" width="87.6" height="20"/>
    <polygon style="fill: #000000" points="509.538,279.204 511.538,282.204 513.538,279.204 511.538,276.204 "/>
    <text font-size="12.8" style="fill: #000000;text-anchor:start;font-family:monospace;font-style:normal;font-weight:700" x="515.538" y="285.204">file</text>
    <text font-size="12.8" style="fill: #000000;text-anchor:start;font-family:monospace;font-style:normal;font-weight:700" x="556.338" y="285.204">text</text>
    <line style="fill: none; fill-opacity:0; stroke-width: 1; stroke: #000000" x1="515.538" y1="286.804" x2="587.138" y2="286.804"/>
  </g>
  <g>
    <polyline style="fill: none; fill-opacity:0; stroke-width: 0.02; stroke: #000000" points="535.3,120 557.65,120 557.65,188 580,188 "/>
    <text font-size="9.6" style="fill: #000000;text-anchor:start;font-family:monospace;font-style:normal;font-weight:normal" x="538.3" y="117">1</text>
    <text font-size="9.6" style="fill: #000000;text-anchor:end;font-family:monospace;font-style:normal;font-weight:normal" x="577" y="185">n</text>
  </g>
  <g>
    <polyline style="fill: none; fill-opacity:0; stroke-width: 0.02; stroke: #000000" points="595.138,279.204 750.046,279.204 750.046,168.565 756.23,168.565 "/>
    <text font-size="9.6" style="fill: #000000;text-anchor:start;font-family:monospace;font-style:normal;font-weight:normal" x="598.138" y="276.204">1</text>
    <text font-size="9.6" style="fill: #000000;text-anchor:end;font-family:monospace;font-style:normal;font-weight:normal" x="753.23" y="165.565">n</text>
  </g>
  <g>
    <rect style="fill: #ffffff" x="300" y="220" width="110.7" height="18"/>
    <rect style="fill: none; fill-opacity:0; stroke-width: 0.02; stroke: #000000" x="300" y="220" width="110.7" height="18"/>
    <text font-size="11.2" style="fill: #000000;text-anchor:middle;font-family:sans-serif;font-style:normal;font-weight:700" x="355.35" y="234">FreqSingle</text>
    <rect style="fill: #ffffff" x="300" y="238" width="110.7" height="68"/>
    <rect style="fill: none; fill-opacity:0; stroke-width: 0.02; stroke: #000000" x="300" y="238" width="110.7" height="68"/>
    <ellipse style="fill: #000000" cx="304" cy="248" rx="2" ry="2"/>
    <text font-size="12.8" style="fill: #000000;text-anchor:start;font-family:monospace;font-style:normal;font-weight:normal" x="308" y="254">word</text>
    <text font-size="12.8" style="fill: #000000;text-anchor:start;font-family:monospace;font-style:normal;font-weight:normal" x="348.8" y="254">Numeric</text>
    <ellipse style="fill: #000000" cx="304" cy="264" rx="2" ry="2"/>
    <text font-size="12.8" style="fill: #000000;text-anchor:start;font-family:monospace;font-style:normal;font-weight:normal" x="308" y="270">tag</text>
    <text font-size="12.8" style="fill: #000000;text-anchor:start;font-family:monospace;font-style:normal;font-weight:normal" x="348.8" y="270">text</text>
    <ellipse style="fill: #000000" cx="304" cy="280" rx="2" ry="2"/>
    <text font-size="12.8" style="fill: #000000;text-anchor:start;font-family:monospace;font-style:normal;font-weight:normal" x="308" y="286">file</text>
    <text font-size="12.8" style="fill: #000000;text-anchor:start;font-family:monospace;font-style:normal;font-weight:normal" x="348.8" y="286">text</text>
    <ellipse style="fill: #000000" cx="304" cy="296" rx="2" ry="2"/>
    <text font-size="12.8" style="fill: #000000;text-anchor:start;font-family:monospace;font-style:normal;font-weight:normal" x="308" y="302">freq</text>
    <text font-size="12.8" style="fill: #000000;text-anchor:start;font-family:monospace;font-style:normal;font-weight:normal" x="348.8" y="302">Numeric</text>
  </g>
  <g>
    <polyline style="fill: none; fill-opacity:0; stroke-width: 0.02; stroke: #000000" points="280,108 260,108 260,248 300,248 "/>
    <text font-size="9.6" style="fill: #000000;text-anchor:end;font-family:monospace;font-style:normal;font-weight:normal" x="277" y="105">1</text>
    <text font-size="9.6" style="fill: #000000;text-anchor:end;font-family:monospace;font-style:normal;font-weight:normal" x="297" y="245">n</text>
  </g>
  <g>
    <polyline style="fill: none; fill-opacity:0; stroke-width: 0.02; stroke: #000000" points="507.538,279.204 459.119,279.204 459.119,280 410.7,280 "/>
    <text font-size="9.6" style="fill: #000000;text-anchor:end;font-family:monospace;font-style:normal;font-weight:normal" x="504.538" y="276.204">1</text>
    <text font-size="9.6" style="fill: #000000;text-anchor:start;font-family:monospace;font-style:normal;font-weight:normal" x="413.7" y="277">n</text>
  </g>
  <g>
    <rect style="fill: #ffffff" x="756.23" y="92.5646" width="118.4" height="18"/>
    <rect style="fill: none; fill-opacity:0; stroke-width: 0.02; stroke: #000000" x="756.23" y="92.5646" width="118.4" height="18"/>
    <text font-size="11.2" style="fill: #000000;text-anchor:middle;font-family:sans-serif;font-style:normal;font-weight:700" x="815.43" y="106.565">FreqTupels</text>
    <rect style="fill: #ffffff" x="756.23" y="110.565" width="118.4" height="68"/>
    <rect style="fill: none; fill-opacity:0; stroke-width: 0.02; stroke: #000000" x="756.23" y="110.565" width="118.4" height="68"/>
    <ellipse style="fill: #000000" cx="760.23" cy="120.565" rx="2" ry="2"/>
    <text font-size="12.8" style="fill: #000000;text-anchor:start;font-family:monospace;font-style:normal;font-weight:normal" x="764.23" y="126.565">tupel</text>
    <text font-size="12.8" style="fill: #000000;text-anchor:start;font-family:monospace;font-style:normal;font-weight:normal" x="812.73" y="126.565">Numeric</text>
    <ellipse style="fill: #000000" cx="760.23" cy="136.565" rx="2" ry="2"/>
    <text font-size="12.8" style="fill: #000000;text-anchor:start;font-family:monospace;font-style:normal;font-weight:normal" x="764.23" y="142.565">tagID</text>
    <text font-size="12.8" style="fill: #000000;text-anchor:start;font-family:monospace;font-style:normal;font-weight:normal" x="812.73" y="142.565">Numeric</text>
    <ellipse style="fill: #000000" cx="760.23" cy="152.565" rx="2" ry="2"/>
    <text font-size="12.8" style="fill: #000000;text-anchor:start;font-family:monospace;font-style:normal;font-weight:normal" x="764.23" y="158.565">freq</text>
    <text font-size="12.8" style="fill: #000000;text-anchor:start;font-family:monospace;font-style:normal;font-weight:normal" x="812.73" y="158.565">Numeric</text>
    <ellipse style="fill: #000000" cx="760.23" cy="168.565" rx="2" ry="2"/>
    <text font-size="12.8" style="fill: #000000;text-anchor:start;font-family:monospace;font-style:normal;font-weight:normal" x="764.23" y="174.565">file</text>
    <text font-size="12.8" style="fill: #000000;text-anchor:start;font-family:monospace;font-style:normal;font-weight:normal" x="812.73" y="174.565">text</text>
  </g>
  <g>
    <polyline style="fill: none; fill-opacity:0; stroke-width: 0.02; stroke: #000000" points="535.3,120 645.766,120 645.766,120.565 756.23,120.565 "/>
    <text font-size="9.6" style="fill: #000000;text-anchor:start;font-family:monospace;font-style:normal;font-weight:normal" x="538.3" y="117">1</text>
    <text font-size="9.6" style="fill: #000000;text-anchor:end;font-family:monospace;font-style:normal;font-weight:normal" x="753.23" y="117.565">n</text>
  </g>
  <g>
    <polyline style="fill: none; fill-opacity:0; stroke-width: 0.02; stroke: #000000" points="698.4,236 727.315,236 727.315,136.565 756.23,136.565 "/>
    <text font-size="9.6" style="fill: #000000;text-anchor:start;font-family:monospace;font-style:normal;font-weight:normal" x="701.4" y="233">1</text>
    <text font-size="9.6" style="fill: #000000;text-anchor:end;font-family:monospace;font-style:normal;font-weight:normal" x="753.23" y="133.565">n</text>
  </g>
</svg>
