<?xml version="1.0" encoding="UTF-8" standalone="no"?>
<!DOCTYPE svg PUBLIC "-//W3C//DTD SVG 1.0//EN" "http://www.w3.org/TR/2001/PR-SVG-20010719/DTD/svg10.dtd">
<svg width="78cm" height="52cm" viewBox="-1486 -519 1554 1026" xmlns="http://www.w3.org/2000/svg" xmlns:xlink="http://www.w3.org/1999/xlink">
  <g>
    <rect style="fill: #ffffff" x="-1477.98" y="-373.324" width="314.349" height="40.6766"/>
    <rect style="fill: none; fill-opacity:0; stroke-width: 2; stroke: #000000" x="-1477.98" y="-373.324" width="314.349" height="40.6766"/>
    <text font-size="12.8" style="fill: #000000;text-anchor:middle;font-family:sans-serif;font-style:normal;font-weight:normal" x="-1320.81" y="-349.086">
      <tspan x="-1320.81" y="-349.086">Makefile</tspan>
    </text>
  </g>
  <g>
    <path style="fill: #ffffff" d="M -1464.99 -166.496 L -1371.29,-166.496 L -1352.55,-155.496 L -1371.29,-144.496 L -1464.99,-144.496 L -1483.73,-155.496 L -1464.99,-166.496z"/>
    <path style="fill: none; fill-opacity:0; stroke-width: 2; stroke: #000000" d="M -1464.99 -166.496 L -1371.29,-166.496 L -1352.55,-155.496 L -1371.29,-144.496 L -1464.99,-144.496 L -1483.73,-155.496 L -1464.99,-166.496"/>
    <text font-size="12.8" style="fill: #000000;text-anchor:middle;font-family:sans-serif;font-style:normal;font-weight:normal" x="-1418.14" y="-151.496">
      <tspan x="-1418.14" y="-151.496">OnlineBoooks</tspan>
    </text>
  </g>
  <g>
    <path style="fill: #ffffff" d="M -1269.6 -206.773 L -1201.85,-206.773 C -1192.49,-206.773 -1184.91,-201.848 -1184.91,-195.773 C -1184.91,-189.698 -1192.49,-184.773 -1201.85,-184.773 L -1269.6,-184.773 C -1278.95,-184.773 -1286.53,-189.698 -1286.53,-195.773 C -1286.53,-201.848 -1278.95,-206.773 -1269.6,-206.773z"/>
    <path style="fill: none; fill-opacity:0; stroke-width: 2; stroke: #000000" d="M -1269.6 -206.773 L -1201.85,-206.773 C -1192.49,-206.773 -1184.91,-201.848 -1184.91,-195.773 C -1184.91,-189.698 -1192.49,-184.773 -1201.85,-184.773 L -1269.6,-184.773 C -1278.95,-184.773 -1286.53,-189.698 -1286.53,-195.773 C -1286.53,-201.848 -1278.95,-206.773 -1269.6,-206.773"/>
    <text font-size="12.8" style="fill: #000000;text-anchor:middle;font-family:sans-serif;font-style:normal;font-weight:normal" x="-1235.72" y="-191.773">
      <tspan x="-1235.72" y="-191.773">bootstrap</tspan>
    </text>
  </g>
  <g>
    <rect style="fill: #ffffff" x="-1086.89" y="-211.097" width="129" height="38"/>
    <rect style="fill: none; fill-opacity:0; stroke-width: 2; stroke: #000000" x="-1086.89" y="-211.097" width="129" height="38"/>
    <text font-size="12.8" style="fill: #000000;text-anchor:middle;font-family:sans-serif;font-style:normal;font-weight:normal" x="-1022.39" y="-188.197">
      <tspan x="-1022.39" y="-188.197">src/bootstrap.py</tspan>
    </text>
  </g>
  <g>
    <line style="fill: none; fill-opacity:0; stroke-width: 2; stroke: #000000" x1="-1184.91" y1="-195.773" x2="-1096.62" y2="-192.462"/>
    <polygon style="fill: #000000" points="-1089.12,-192.181 -1099.3,-187.559 -1096.62,-192.462 -1098.93,-197.552 "/>
    <polygon style="fill: none; fill-opacity:0; stroke-width: 2; stroke: #000000" points="-1089.12,-192.181 -1099.3,-187.559 -1096.62,-192.462 -1098.93,-197.552 "/>
  </g>
  <g>
    <path style="fill: #ffffff" d="M -1449.8 -250.505 L -1379.4,-250.505 L -1365.32,-237.97 L -1379.4,-225.434 L -1449.8,-225.434 L -1463.88,-237.97 L -1449.8,-250.505z"/>
    <path style="fill: none; fill-opacity:0; stroke-width: 2; stroke: #000000" d="M -1449.8 -250.505 L -1379.4,-250.505 L -1365.32,-237.97 L -1379.4,-225.434 L -1449.8,-225.434 L -1463.88,-237.97 L -1449.8,-250.505"/>
    <text font-size="12.8" style="fill: #000000;text-anchor:middle;font-family:sans-serif;font-style:normal;font-weight:normal" x="-1414.6" y="-233.97">
      <tspan x="-1414.6" y="-233.97">INDEXKEY</tspan>
    </text>
  </g>
  <g>
    <path style="fill: #ffffff" d="M -1300.6 -169.851 L -1190.15,-169.851 C -1174.9,-169.851 -1162.54,-164.926 -1162.54,-158.851 C -1162.54,-152.776 -1174.9,-147.851 -1190.15,-147.851 L -1300.6,-147.851 C -1315.85,-147.851 -1328.21,-152.776 -1328.21,-158.851 C -1328.21,-164.926 -1315.85,-169.851 -1300.6,-169.851z"/>
    <path style="fill: none; fill-opacity:0; stroke-width: 2; stroke: #000000" d="M -1300.6 -169.851 L -1190.15,-169.851 C -1174.9,-169.851 -1162.54,-164.926 -1162.54,-158.851 C -1162.54,-152.776 -1174.9,-147.851 -1190.15,-147.851 L -1300.6,-147.851 C -1315.85,-147.851 -1328.21,-152.776 -1328.21,-158.851 C -1328.21,-164.926 -1315.85,-169.851 -1300.6,-169.851"/>
    <text font-size="12.8" style="fill: #000000;text-anchor:middle;font-family:sans-serif;font-style:normal;font-weight:normal" x="-1245.37" y="-154.851">
      <tspan x="-1245.37" y="-154.851">download-books</tspan>
    </text>
  </g>
  <g>
    <path style="fill: #ffffff" d="M -1289.24 -14.3213 L -1218.14,-14.3213 C -1208.32,-14.3213 -1200.36,-9.39645 -1200.36,-3.32131 C -1200.36,2.75382 -1208.32,7.67869 -1218.14,7.67869 L -1289.24,7.67869 C -1299.06,7.67869 -1307.01,2.75382 -1307.01,-3.32131 C -1307.01,-9.39645 -1299.06,-14.3213 -1289.24,-14.3213z"/>
    <path style="fill: none; fill-opacity:0; stroke-width: 2; stroke: #000000" d="M -1289.24 -14.3213 L -1218.14,-14.3213 C -1208.32,-14.3213 -1200.36,-9.39645 -1200.36,-3.32131 C -1200.36,2.75382 -1208.32,7.67869 -1218.14,7.67869 L -1289.24,7.67869 C -1299.06,7.67869 -1307.01,2.75382 -1307.01,-3.32131 C -1307.01,-9.39645 -1299.06,-14.3213 -1289.24,-14.3213"/>
    <text font-size="12.8" style="fill: #000000;text-anchor:middle;font-family:sans-serif;font-style:normal;font-weight:normal" x="-1253.69" y="0.678687">
      <tspan x="-1253.69" y="0.678687">link-books</tspan>
    </text>
  </g>
  <g>
    <path style="fill: #ffffff" d="M -1304.77 -247.11 L -1159.07,-247.11 C -1138.95,-247.11 -1122.64,-242.185 -1122.64,-236.11 C -1122.64,-230.035 -1138.95,-225.11 -1159.07,-225.11 L -1304.77,-225.11 C -1324.88,-225.11 -1341.19,-230.035 -1341.19,-236.11 C -1341.19,-242.185 -1324.88,-247.11 -1304.77,-247.11z"/>
    <path style="fill: none; fill-opacity:0; stroke-width: 2; stroke: #000000" d="M -1304.77 -247.11 L -1159.07,-247.11 C -1138.95,-247.11 -1122.64,-242.185 -1122.64,-236.11 C -1122.64,-230.035 -1138.95,-225.11 -1159.07,-225.11 L -1304.77,-225.11 C -1324.88,-225.11 -1341.19,-230.035 -1341.19,-236.11 C -1341.19,-242.185 -1324.88,-247.11 -1304.77,-247.11"/>
    <text font-size="12.8" style="fill: #000000;text-anchor:middle;font-family:sans-serif;font-style:normal;font-weight:normal" x="-1231.92" y="-232.11">
      <tspan x="-1231.92" y="-232.11">download-googledocs</tspan>
    </text>
  </g>
  <g>
    <path style="fill: #ffffff" d="M -1263.03 -313.455 L -1178.36,-313.455 C -1166.67,-313.455 -1157.19,-308.53 -1157.19,-302.455 C -1157.19,-296.38 -1166.67,-291.455 -1178.36,-291.455 L -1263.03,-291.455 C -1274.72,-291.455 -1284.19,-296.38 -1284.19,-302.455 C -1284.19,-308.53 -1274.72,-313.455 -1263.03,-313.455z"/>
    <path style="fill: none; fill-opacity:0; stroke-width: 2; stroke: #000000" d="M -1263.03 -313.455 L -1178.36,-313.455 C -1166.67,-313.455 -1157.19,-308.53 -1157.19,-302.455 C -1157.19,-296.38 -1166.67,-291.455 -1178.36,-291.455 L -1263.03,-291.455 C -1274.72,-291.455 -1284.19,-296.38 -1284.19,-302.455 C -1284.19,-308.53 -1274.72,-313.455 -1263.03,-313.455"/>
    <text font-size="12.8" style="fill: #000000;text-anchor:middle;font-family:sans-serif;font-style:normal;font-weight:normal" x="-1220.69" y="-298.455">
      <tspan x="-1220.69" y="-298.455">mine</tspan>
    </text>
  </g>
  <g>
    <path style="fill: #ffffff" d="M -1282.99 -129.774 L -1227.44,-129.774 C -1219.77,-129.774 -1213.55,-124.849 -1213.55,-118.774 C -1213.55,-112.699 -1219.77,-107.774 -1227.44,-107.774 L -1282.99,-107.774 C -1290.66,-107.774 -1296.88,-112.699 -1296.88,-118.774 C -1296.88,-124.849 -1290.66,-129.774 -1282.99,-129.774z"/>
    <path style="fill: none; fill-opacity:0; stroke-width: 2; stroke: #000000" d="M -1282.99 -129.774 L -1227.44,-129.774 C -1219.77,-129.774 -1213.55,-124.849 -1213.55,-118.774 C -1213.55,-112.699 -1219.77,-107.774 -1227.44,-107.774 L -1282.99,-107.774 C -1290.66,-107.774 -1296.88,-112.699 -1296.88,-118.774 C -1296.88,-124.849 -1290.66,-129.774 -1282.99,-129.774"/>
    <text font-size="12.8" style="fill: #000000;text-anchor:middle;font-family:sans-serif;font-style:normal;font-weight:normal" x="-1255.21" y="-114.774">
      <tspan x="-1255.21" y="-114.774">analyze</tspan>
    </text>
  </g>
  <g>
    <path style="fill: #ffffff" d="M -1308.44 -91.654 L -1230.14,-91.654 C -1219.33,-91.654 -1210.56,-86.6417 -1210.56,-80.4587 C -1210.56,-74.2758 -1219.33,-69.2635 -1230.14,-69.2635 L -1308.44,-69.2635 C -1319.25,-69.2635 -1328.01,-74.2758 -1328.01,-80.4587 C -1328.01,-86.6417 -1319.25,-91.654 -1308.44,-91.654z"/>
    <path style="fill: none; fill-opacity:0; stroke-width: 2; stroke: #000000" d="M -1308.44 -91.654 L -1230.14,-91.654 C -1219.33,-91.654 -1210.56,-86.6417 -1210.56,-80.4587 C -1210.56,-74.2758 -1219.33,-69.2635 -1230.14,-69.2635 L -1308.44,-69.2635 C -1319.25,-69.2635 -1328.01,-74.2758 -1328.01,-80.4587 C -1328.01,-86.6417 -1319.25,-91.654 -1308.44,-91.654"/>
    <text font-size="12.8" style="fill: #000000;text-anchor:middle;font-family:sans-serif;font-style:normal;font-weight:normal" x="-1269.29" y="-76.4587">
      <tspan x="-1269.29" y="-76.4587">from-cache</tspan>
    </text>
  </g>
  <g>
    <path style="fill: #ffffff" d="M -1283.68 -52.8474 L -1222.03,-52.8474 C -1213.52,-52.8474 -1206.62,-47.9225 -1206.62,-41.8474 C -1206.62,-35.7722 -1213.52,-30.8474 -1222.03,-30.8474 L -1283.68,-30.8474 C -1292.19,-30.8474 -1299.09,-35.7722 -1299.09,-41.8474 C -1299.09,-47.9225 -1292.19,-52.8474 -1283.68,-52.8474z"/>
    <path style="fill: none; fill-opacity:0; stroke-width: 2; stroke: #000000" d="M -1283.68 -52.8474 L -1222.03,-52.8474 C -1213.52,-52.8474 -1206.62,-47.9225 -1206.62,-41.8474 C -1206.62,-35.7722 -1213.52,-30.8474 -1222.03,-30.8474 L -1283.68,-30.8474 C -1292.19,-30.8474 -1299.09,-35.7722 -1299.09,-41.8474 C -1299.09,-47.9225 -1292.19,-52.8474 -1283.68,-52.8474"/>
    <text font-size="12.8" style="fill: #000000;text-anchor:middle;font-family:sans-serif;font-style:normal;font-weight:normal" x="-1252.86" y="-37.8474">
      <tspan x="-1252.86" y="-37.8474">to-cache</tspan>
    </text>
  </g>
  <g>
    <path style="fill: #ffffff" d="M -1254.62 -284.097 L -1195.57,-284.097 C -1187.42,-284.097 -1180.81,-277.602 -1180.81,-269.591 C -1180.81,-261.58 -1187.42,-255.086 -1195.57,-255.086 L -1254.62,-255.086 C -1262.78,-255.086 -1269.39,-261.58 -1269.39,-269.591 C -1269.39,-277.602 -1262.78,-284.097 -1254.62,-284.097z"/>
    <path style="fill: none; fill-opacity:0; stroke-width: 2; stroke: #000000" d="M -1254.62 -284.097 L -1195.57,-284.097 C -1187.42,-284.097 -1180.81,-277.602 -1180.81,-269.591 C -1180.81,-261.58 -1187.42,-255.086 -1195.57,-255.086 L -1254.62,-255.086 C -1262.78,-255.086 -1269.39,-261.58 -1269.39,-269.591 C -1269.39,-277.602 -1262.78,-284.097 -1254.62,-284.097"/>
    <text font-size="12.8" style="fill: #000000;text-anchor:middle;font-family:sans-serif;font-style:normal;font-weight:normal" x="-1225.1" y="-265.591">
      <tspan x="-1225.1" y="-265.591">backlink</tspan>
    </text>
  </g>
  <g>
    <path style="fill: #ffffff" d="M -1318.71 30.516 L -1213.36,30.516 C -1198.82,30.516 -1187.02,35.4408 -1187.02,41.516 C -1187.02,47.5911 -1198.82,52.516 -1213.36,52.516 L -1318.71,52.516 C -1333.26,52.516 -1345.05,47.5911 -1345.05,41.516 C -1345.05,35.4408 -1333.26,30.516 -1318.71,30.516z"/>
    <path style="fill: none; fill-opacity:0; stroke-width: 2; stroke: #000000" d="M -1318.71 30.516 L -1213.36,30.516 C -1198.82,30.516 -1187.02,35.4408 -1187.02,41.516 C -1187.02,47.5911 -1198.82,52.516 -1213.36,52.516 L -1318.71,52.516 C -1333.26,52.516 -1345.05,47.5911 -1345.05,41.516 C -1345.05,35.4408 -1333.26,30.516 -1318.71,30.516"/>
    <text font-size="12.8" style="fill: #000000;text-anchor:middle;font-family:sans-serif;font-style:normal;font-weight:normal" x="-1266.04" y="45.516">
      <tspan x="-1266.04" y="45.516">coverageTables</tspan>
    </text>
  </g>
  <g>
    <path style="fill: #ffffff" d="M -1344.6 67.0494 L -1198.1,67.0494 C -1177.87,67.0494 -1161.48,71.9742 -1161.48,78.0494 C -1161.48,84.1245 -1177.87,89.0494 -1198.1,89.0494 L -1344.6,89.0494 C -1364.83,89.0494 -1381.23,84.1245 -1381.23,78.0494 C -1381.23,71.9742 -1364.83,67.0494 -1344.6,67.0494z"/>
    <path style="fill: none; fill-opacity:0; stroke-width: 2; stroke: #000000" d="M -1344.6 67.0494 L -1198.1,67.0494 C -1177.87,67.0494 -1161.48,71.9742 -1161.48,78.0494 C -1161.48,84.1245 -1177.87,89.0494 -1198.1,89.0494 L -1344.6,89.0494 C -1364.83,89.0494 -1381.23,84.1245 -1381.23,78.0494 C -1381.23,71.9742 -1364.83,67.0494 -1344.6,67.0494"/>
    <text font-size="12.8" style="fill: #000000;text-anchor:middle;font-family:sans-serif;font-style:normal;font-weight:normal" x="-1271.35" y="82.0494">
      <tspan x="-1271.35" y="82.0494">nonProfileFrequencies</tspan>
    </text>
  </g>
  <g>
    <path style="fill: #ffffff" d="M -1299.37 108.787 L -1258.92,108.787 C -1253.34,108.787 -1248.81,113.712 -1248.81,119.787 C -1248.81,125.862 -1253.34,130.787 -1258.92,130.787 L -1299.37,130.787 C -1304.96,130.787 -1309.48,125.862 -1309.48,119.787 C -1309.48,113.712 -1304.96,108.787 -1299.37,108.787z"/>
    <path style="fill: none; fill-opacity:0; stroke-width: 2; stroke: #000000" d="M -1299.37 108.787 L -1258.92,108.787 C -1253.34,108.787 -1248.81,113.712 -1248.81,119.787 C -1248.81,125.862 -1253.34,130.787 -1258.92,130.787 L -1299.37,130.787 C -1304.96,130.787 -1309.48,125.862 -1309.48,119.787 C -1309.48,113.712 -1304.96,108.787 -1299.37,108.787"/>
    <text font-size="12.8" style="fill: #000000;text-anchor:middle;font-family:sans-serif;font-style:normal;font-weight:normal" x="-1279.15" y="123.787">
      <tspan x="-1279.15" y="123.787">clean</tspan>
    </text>
  </g>
  <g>
    <rect style="fill: #ffffff" x="-1112.85" y="-510.961" width="129.6" height="38"/>
    <rect style="fill: none; fill-opacity:0; stroke-width: 2; stroke: #000000" x="-1112.85" y="-510.961" width="129.6" height="38"/>
    <text font-size="12.8" style="fill: #000000;text-anchor:middle;font-family:sans-serif;font-style:normal;font-weight:normal" x="-1048.05" y="-488.061">
      <tspan x="-1048.05" y="-488.061">src/Makefile.vars</tspan>
    </text>
  </g>
  <g>
    <rect style="fill: #ffffff" x="-1109" y="-271.018" width="172.7" height="38"/>
    <rect style="fill: none; fill-opacity:0; stroke-width: 2; stroke: #000000" x="-1109" y="-271.018" width="172.7" height="38"/>
    <text font-size="12.8" style="fill: #000000;text-anchor:middle;font-family:sans-serif;font-style:normal;font-weight:normal" x="-1022.65" y="-248.118">
      <tspan x="-1022.65" y="-248.118">src/misc/downloader.py</tspan>
    </text>
  </g>
  <g>
    <rect style="fill: #ffffff" x="-1056.5" y="357.046" width="165.95" height="38"/>
    <rect style="fill: none; fill-opacity:0; stroke-width: 2; stroke: #000000" x="-1056.5" y="357.046" width="165.95" height="38"/>
    <text font-size="12.8" style="fill: #000000;text-anchor:middle;font-family:sans-serif;font-style:normal;font-weight:normal" x="-973.526" y="379.946">
      <tspan x="-973.526" y="379.946">src/misc/downloadnltK</tspan>
    </text>
  </g>
  <g>
    <path style="fill: #ffffff" d="M -1337.2 146.277 L -1233.8,146.277 C -1219.52,146.277 -1207.95,151.202 -1207.95,157.277 C -1207.95,163.352 -1219.52,168.277 -1233.8,168.277 L -1337.2,168.277 C -1351.47,168.277 -1363.05,163.352 -1363.05,157.277 C -1363.05,151.202 -1351.47,146.277 -1337.2,146.277z"/>
    <path style="fill: none; fill-opacity:0; stroke-width: 2; stroke: #000000" d="M -1337.2 146.277 L -1233.8,146.277 C -1219.52,146.277 -1207.95,151.202 -1207.95,157.277 C -1207.95,163.352 -1219.52,168.277 -1233.8,168.277 L -1337.2,168.277 C -1351.47,168.277 -1363.05,163.352 -1363.05,157.277 C -1363.05,151.202 -1351.47,146.277 -1337.2,146.277"/>
    <text font-size="12.8" style="fill: #000000;text-anchor:middle;font-family:sans-serif;font-style:normal;font-weight:normal" x="-1285.5" y="161.277">
      <tspan x="-1285.5" y="161.277">download-deps</tspan>
    </text>
  </g>
  <line style="fill: none; fill-opacity:0; stroke-width: 2; stroke-dasharray: 4; stroke: #000000" x1="-1163.63" y1="-352.986" x2="-1064.67" y2="-471.976"/>
  <g>
    <polygon style="fill: #ffffff" points="-1043.95,222.444 -1014.01,244.446 -1043.95,266.448 -1073.89,244.446 "/>
    <polygon style="fill: none; fill-opacity:0; stroke-width: 2; stroke: #000000" points="-1043.95,222.444 -1014.01,244.446 -1043.95,266.448 -1073.89,244.446 "/>
    <text font-size="12.8" style="fill: #000000;text-anchor:middle;font-family:sans-serif;font-style:normal;font-weight:normal" x="-1043.95" y="248.346">
      <tspan x="-1043.95" y="248.346"></tspan>
    </text>
  </g>
  <g>
    <line style="fill: none; fill-opacity:0; stroke-width: 2; stroke: #000000" x1="-1207.95" y1="157.277" x2="-1077.63" y2="242.008"/>
    <polyline style="fill: none; fill-opacity:0; stroke-width: 2; stroke: #000000" points="-1086.87,241.968 -1075.76,243.227 -1081.42,233.584 "/>
  </g>
  <g>
    <line style="fill: none; fill-opacity:0; stroke-width: 2; stroke: #000000" x1="-1043.95" y1="266.448" x2="-1055.99" y2="371.603"/>
    <polyline style="fill: none; fill-opacity:0; stroke-width: 2; stroke: #000000" points="-1060.08,363.32 -1056.25,373.825 -1050.14,364.459 "/>
  </g>
  <g>
    <line style="fill: none; fill-opacity:0; stroke-width: 2; stroke: #000000" x1="-1133.31" y1="-243.888" x2="-1113.24" y2="-250.599"/>
    <polyline style="fill: none; fill-opacity:0; stroke-width: 2; stroke: #000000" points="-1119.02,-243.395 -1111.12,-251.308 -1122.19,-252.878 "/>
  </g>
  <g>
    <rect style="fill: #ffffff" x="-906.65" y="172.24" width="433.999" height="38"/>
    <rect style="fill: none; fill-opacity:0; stroke-width: 2; stroke: #000000" x="-906.65" y="172.24" width="433.999" height="38"/>
    <text font-size="12.8" style="fill: #000000;text-anchor:middle;font-family:sans-serif;font-style:normal;font-weight:normal" x="-689.651" y="195.14">
      <tspan x="-689.651" y="195.14">src/analytics/Makefile</tspan>
    </text>
  </g>
  <g>
    <rect style="fill: #ffffff" x="-315.556" y="280.374" width="331.7" height="38"/>
    <rect style="fill: none; fill-opacity:0; stroke-width: 2; stroke: #000000" x="-315.556" y="280.374" width="331.7" height="38"/>
    <text font-size="12.8" style="fill: #000000;text-anchor:middle;font-family:sans-serif;font-style:normal;font-weight:normal" x="-149.706" y="303.274">
      <tspan x="-149.706" y="303.274">src/analytics/buildPopularScatteredTermsTable.R</tspan>
    </text>
  </g>
  <g>
    <rect style="fill: #ffffff" x="-273.888" y="325.072" width="269.75" height="38"/>
    <rect style="fill: none; fill-opacity:0; stroke-width: 2; stroke: #000000" x="-273.888" y="325.072" width="269.75" height="38"/>
    <text font-size="12.8" style="fill: #000000;text-anchor:middle;font-family:sans-serif;font-style:normal;font-weight:normal" x="-139.013" y="347.972">
      <tspan x="-139.013" y="347.972">src/analytics/buildPopularTermsTable.R</tspan>
    </text>
  </g>
  <g>
    <rect style="fill: #ffffff" x="-223.158" y="422.692" width="186.676" height="38"/>
    <rect style="fill: none; fill-opacity:0; stroke-width: 2; stroke: #000000" x="-223.158" y="422.692" width="186.676" height="38"/>
    <text font-size="12.8" style="fill: #000000;text-anchor:middle;font-family:sans-serif;font-style:normal;font-weight:normal" x="-129.82" y="445.592">
      <tspan x="-129.82" y="445.592">src/analytics/csv2tex.py</tspan>
    </text>
  </g>
  <g>
    <rect style="fill: #ffffff" x="-258.511" y="467.54" width="227.688" height="38"/>
    <rect style="fill: none; fill-opacity:0; stroke-width: 2; stroke: #000000" x="-258.511" y="467.54" width="227.688" height="38"/>
    <text font-size="12.8" style="fill: #000000;text-anchor:middle;font-family:sans-serif;font-style:normal;font-weight:normal" x="-144.667" y="490.44">
      <tspan x="-144.667" y="490.44">src/analytics/dependencies.R</tspan>
    </text>
  </g>
  <g>
    <rect style="fill: #ffffff" x="-332.614" y="235.679" width="220.617" height="38"/>
    <rect style="fill: none; fill-opacity:0; stroke-width: 2; stroke: #000000" x="-332.614" y="235.679" width="220.617" height="38"/>
    <text font-size="12.8" style="fill: #000000;text-anchor:middle;font-family:sans-serif;font-style:normal;font-weight:normal" x="-222.305" y="258.579">
      <tspan x="-222.305" y="258.579">src/analytics/frequencies.R</tspan>
    </text>
  </g>
  <g>
    <rect style="fill: #ffffff" x="-256.24" y="374.568" width="244.659" height="38"/>
    <rect style="fill: none; fill-opacity:0; stroke-width: 2; stroke: #000000" x="-256.24" y="374.568" width="244.659" height="38"/>
    <text font-size="12.8" style="fill: #000000;text-anchor:middle;font-family:sans-serif;font-style:normal;font-weight:normal" x="-133.911" y="397.468">
      <tspan x="-133.911" y="397.468">src/analytics/rank.R</tspan>
    </text>
  </g>
  <g>
    <path style="fill: #ffffff" d="M -853.031 231.075 L -797.481,231.075 C -789.811,231.075 -783.593,236 -783.593,242.075 C -783.593,248.15 -789.811,253.075 -797.481,253.075 L -853.031,253.075 C -860.7,253.075 -866.918,248.15 -866.918,242.075 C -866.918,236 -860.7,231.075 -853.031,231.075z"/>
    <path style="fill: none; fill-opacity:0; stroke-width: 2; stroke: #000000" d="M -853.031 231.075 L -797.481,231.075 C -789.811,231.075 -783.593,236 -783.593,242.075 C -783.593,248.15 -789.811,253.075 -797.481,253.075 L -853.031,253.075 C -860.7,253.075 -866.918,248.15 -866.918,242.075 C -866.918,236 -860.7,231.075 -853.031,231.075"/>
    <text font-size="12.8" style="fill: #000000;text-anchor:middle;font-family:sans-serif;font-style:normal;font-weight:normal" x="-825.256" y="246.075">
      <tspan x="-825.256" y="246.075">analyze</tspan>
    </text>
  </g>
  <g>
    <path style="fill: #ffffff" d="M -806.246 315.164 L -750.396,315.164 C -742.684,315.164 -736.433,320.089 -736.433,326.164 C -736.433,332.239 -742.684,337.164 -750.396,337.164 L -806.246,337.164 C -813.957,337.164 -820.208,332.239 -820.208,326.164 C -820.208,320.089 -813.957,315.164 -806.246,315.164z"/>
    <path style="fill: none; fill-opacity:0; stroke-width: 2; stroke: #000000" d="M -806.246 315.164 L -750.396,315.164 C -742.684,315.164 -736.433,320.089 -736.433,326.164 C -736.433,332.239 -742.684,337.164 -750.396,337.164 L -806.246,337.164 C -813.957,337.164 -820.208,332.239 -820.208,326.164 C -820.208,320.089 -813.957,315.164 -806.246,315.164"/>
    <text font-size="12.8" style="fill: #000000;text-anchor:middle;font-family:sans-serif;font-style:normal;font-weight:normal" x="-778.321" y="330.164">
      <tspan x="-778.321" y="330.164">prepare</tspan>
    </text>
  </g>
  <g>
    <line style="fill: none; fill-opacity:0; stroke-width: 2; stroke: #000000" x1="-1021.49" y1="238.945" x2="-824.312" y2="324.386"/>
    <polyline style="fill: none; fill-opacity:0; stroke-width: 2; stroke: #000000" points="-833.423,325.887 -822.26,325.275 -829.447,316.711 "/>
  </g>
  <g>
    <line style="fill: none; fill-opacity:0; stroke-width: 2; stroke: #000000" x1="-736.433" y1="326.164" x2="-262.751" y2="485.117"/>
    <polyline style="fill: none; fill-opacity:0; stroke-width: 2; stroke: #000000" points="-271.702,487.388 -260.631,485.829 -268.521,477.907 "/>
  </g>
  <g>
    <path style="fill: #ffffff" d="M -624.071 235.462 L -543.321,235.462 C -532.172,235.462 -523.133,240.387 -523.133,246.462 C -523.133,252.538 -532.172,257.462 -543.321,257.462 L -624.071,257.462 C -635.22,257.462 -644.258,252.538 -644.258,246.462 C -644.258,240.387 -635.22,235.462 -624.071,235.462z"/>
    <path style="fill: none; fill-opacity:0; stroke-width: 2; stroke: #000000" d="M -624.071 235.462 L -543.321,235.462 C -532.172,235.462 -523.133,240.387 -523.133,246.462 C -523.133,252.538 -532.172,257.462 -543.321,257.462 L -624.071,257.462 C -635.22,257.462 -644.258,252.538 -644.258,246.462 C -644.258,240.387 -635.22,235.462 -624.071,235.462"/>
    <text font-size="12.8" style="fill: #000000;text-anchor:middle;font-family:sans-serif;font-style:normal;font-weight:normal" x="-583.696" y="250.462">
      <tspan x="-583.696" y="250.462">frequencies</tspan>
    </text>
  </g>
  <g>
    <path style="fill: #ffffff" d="M -617.514 274.92 L -562.614,274.92 C -555.034,274.92 -548.889,279.845 -548.889,285.92 C -548.889,291.996 -555.034,296.92 -562.614,296.92 L -617.514,296.92 C -625.094,296.92 -631.239,291.996 -631.239,285.92 C -631.239,279.845 -625.094,274.92 -617.514,274.92z"/>
    <path style="fill: none; fill-opacity:0; stroke-width: 2; stroke: #000000" d="M -617.514 274.92 L -562.614,274.92 C -555.034,274.92 -548.889,279.845 -548.889,285.92 C -548.889,291.996 -555.034,296.92 -562.614,296.92 L -617.514,296.92 C -625.094,296.92 -631.239,291.996 -631.239,285.92 C -631.239,279.845 -625.094,274.92 -617.514,274.92"/>
    <text font-size="12.8" style="fill: #000000;text-anchor:middle;font-family:sans-serif;font-style:normal;font-weight:normal" x="-590.064" y="289.92">
      <tspan x="-590.064" y="289.92">popular</tspan>
    </text>
  </g>
  <g>
    <path style="fill: #ffffff" d="M -598.713 308.656 L -572.413,308.656 C -568.782,308.656 -565.838,313.581 -565.838,319.656 C -565.838,325.731 -568.782,330.656 -572.413,330.656 L -598.713,330.656 C -602.345,330.656 -605.288,325.731 -605.288,319.656 C -605.288,313.581 -602.345,308.656 -598.713,308.656z"/>
    <path style="fill: none; fill-opacity:0; stroke-width: 2; stroke: #000000" d="M -598.713 308.656 L -572.413,308.656 C -568.782,308.656 -565.838,313.581 -565.838,319.656 C -565.838,325.731 -568.782,330.656 -572.413,330.656 L -598.713,330.656 C -602.345,330.656 -605.288,325.731 -605.288,319.656 C -605.288,313.581 -602.345,308.656 -598.713,308.656"/>
    <text font-size="12.8" style="fill: #000000;text-anchor:middle;font-family:sans-serif;font-style:normal;font-weight:normal" x="-585.563" y="323.656">
      <tspan x="-585.563" y="323.656">tex</tspan>
    </text>
  </g>
  <line style="fill: none; fill-opacity:0; stroke-width: 2; stroke-dasharray: 4; stroke: #000000" x1="-1037.9" y1="-472.612" x2="-699.8" y2="171.892"/>
  <g>
    <polygon style="fill: #ffffff" points="-707.976,245.027 -682.514,268.556 -707.976,292.086 -733.437,268.556 "/>
    <polygon style="fill: none; fill-opacity:0; stroke-width: 2; stroke: #000000" points="-707.976,245.027 -682.514,268.556 -707.976,292.086 -733.437,268.556 "/>
    <text font-size="12.8" style="fill: #000000;text-anchor:middle;font-family:sans-serif;font-style:normal;font-weight:normal" x="-707.976" y="272.456">
      <tspan x="-707.976" y="272.456"></tspan>
    </text>
  </g>
  <g>
    <line style="fill: none; fill-opacity:0; stroke-width: 2; stroke: #000000" x1="-783.593" y1="242.075" x2="-712.444" y2="244.852"/>
    <polyline style="fill: none; fill-opacity:0; stroke-width: 2; stroke: #000000" points="-720.397,249.546 -710.21,244.939 -720.007,239.553 "/>
  </g>
  <g>
    <line style="fill: none; fill-opacity:0; stroke-width: 2; stroke: #000000" x1="-701.61" y1="250.909" x2="-648.717" y2="246.808"/>
    <polyline style="fill: none; fill-opacity:0; stroke-width: 2; stroke: #000000" points="-656.071,252.393 -646.488,246.635 -656.844,242.423 "/>
  </g>
  <g>
    <line style="fill: none; fill-opacity:0; stroke-width: 2; stroke: #000000" x1="-688.879" y1="274.439" x2="-635.625" y2="285.047"/>
    <polyline style="fill: none; fill-opacity:0; stroke-width: 2; stroke: #000000" points="-644.216,288.434 -633.432,285.484 -642.262,278.626 "/>
  </g>
  <g>
    <line style="fill: none; fill-opacity:0; stroke-width: 2; stroke: #000000" x1="-707.976" y1="292.086" x2="-609.608" y2="318.496"/>
    <polyline style="fill: none; fill-opacity:0; stroke-width: 2; stroke: #000000" points="-618.402,321.312 -607.448,319.076 -615.809,311.654 "/>
  </g>
  <g>
    <line style="fill: none; fill-opacity:0; stroke-width: 2; stroke: #000000" x1="-523.133" y1="246.462" x2="-337.082" y2="254.486"/>
    <polyline style="fill: none; fill-opacity:0; stroke-width: 2; stroke: #000000" points="-345.054,259.147 -334.848,254.583 -344.623,249.156 "/>
  </g>
  <g>
    <line style="fill: none; fill-opacity:0; stroke-width: 2; stroke: #000000" x1="-565.838" y1="319.656" x2="-227.371" y2="440.192"/>
    <polyline style="fill: none; fill-opacity:0; stroke-width: 2; stroke: #000000" points="-236.362,442.297 -225.265,440.942 -233.008,432.877 "/>
  </g>
  <g>
    <polygon style="fill: #ffffff" points="-397.325,277.346 -372.972,301.383 -397.325,325.421 -421.678,301.383 "/>
    <polygon style="fill: none; fill-opacity:0; stroke-width: 2; stroke: #000000" points="-397.325,277.346 -372.972,301.383 -397.325,325.421 -421.678,301.383 "/>
    <text font-size="12.8" style="fill: #000000;text-anchor:middle;font-family:sans-serif;font-style:normal;font-weight:normal" x="-397.325" y="305.283">
      <tspan x="-397.325" y="305.283"></tspan>
    </text>
  </g>
  <g>
    <line style="fill: none; fill-opacity:0; stroke-width: 2; stroke: #000000" x1="-548.889" y1="285.92" x2="-426.118" y2="300.844"/>
    <polyline style="fill: none; fill-opacity:0; stroke-width: 2; stroke: #000000" points="-434.428,304.87 -423.898,301.113 -433.222,294.943 "/>
  </g>
  <g>
    <line style="fill: none; fill-opacity:0; stroke-width: 2; stroke: #000000" x1="-397.325" y1="277.346" x2="-319.874" y2="298.211"/>
    <polyline style="fill: none; fill-opacity:0; stroke-width: 2; stroke: #000000" points="-328.671,301.019 -317.715,298.793 -326.07,291.364 "/>
  </g>
  <g>
    <line style="fill: none; fill-opacity:0; stroke-width: 2; stroke: #000000" x1="-372.972" y1="301.383" x2="-277.995" y2="342.303"/>
    <polyline style="fill: none; fill-opacity:0; stroke-width: 2; stroke: #000000" points="-287.104,343.823 -275.942,343.187 -283.147,334.639 "/>
  </g>
  <g>
    <line style="fill: none; fill-opacity:0; stroke-width: 2; stroke: #000000" x1="-397.325" y1="325.421" x2="-260.267" y2="391.623"/>
    <polyline style="fill: none; fill-opacity:0; stroke-width: 2; stroke: #000000" points="-269.433,392.748 -258.253,392.596 -265.083,383.744 "/>
  </g>
  <g>
    <rect style="fill: #ffffff" x="-1100.2" y="-157.844" width="159.1" height="38"/>
    <rect style="fill: none; fill-opacity:0; stroke-width: 2; stroke: #000000" x="-1100.2" y="-157.844" width="159.1" height="38"/>
    <text font-size="12.8" style="fill: #000000;text-anchor:middle;font-family:sans-serif;font-style:normal;font-weight:normal" x="-1020.65" y="-134.944">
      <tspan x="-1020.65" y="-134.944">src/mining/crawler.py</tspan>
    </text>
  </g>
  <g>
    <line style="fill: none; fill-opacity:0; stroke-width: 2; stroke: #000000" x1="-1166.79" y1="-151.855" x2="-1105.66" y2="-146.412"/>
    <polyline style="fill: none; fill-opacity:0; stroke-width: 2; stroke: #000000" points="-1113.83,-142.121 -1103.43,-146.214 -1112.95,-152.081 "/>
  </g>
  <g>
    <polygon style="fill: #ffffff" points="-1062.8,106.34 -1035.52,129.164 -1062.8,151.988 -1090.08,129.164 "/>
    <polygon style="fill: none; fill-opacity:0; stroke-width: 2; stroke: #000000" points="-1062.8,106.34 -1035.52,129.164 -1062.8,151.988 -1090.08,129.164 "/>
    <text font-size="12.8" style="fill: #000000;text-anchor:middle;font-family:sans-serif;font-style:normal;font-weight:normal" x="-1062.8" y="133.064">
      <tspan x="-1062.8" y="133.064"></tspan>
    </text>
  </g>
  <g>
    <line style="fill: none; fill-opacity:0; stroke-width: 2; stroke: #000000" x1="-1213.55" y1="-118.774" x2="-1074.71" y2="109.574"/>
    <polyline style="fill: none; fill-opacity:0; stroke-width: 2; stroke: #000000" points="-1083.02,105.538 -1073.55,111.485 -1074.47,100.343 "/>
  </g>
  <g>
    <line style="fill: none; fill-opacity:0; stroke-width: 2; stroke: #000000" x1="-1073.35" y1="114.195" x2="-1207.99" y2="-76.8035"/>
    <polyline style="fill: none; fill-opacity:0; stroke-width: 2; stroke: #000000" points="-1199.43,-73.3384 -1209.27,-78.6311 -1207.6,-67.5769 "/>
  </g>
  <g>
    <line style="fill: none; fill-opacity:0; stroke-width: 2; stroke: #000000" x1="-1049.16" y1="117.752" x2="-870.612" y2="239.555"/>
    <polyline style="fill: none; fill-opacity:0; stroke-width: 2; stroke: #000000" points="-879.844,239.31 -868.765,240.815 -874.208,231.049 "/>
  </g>
  <g>
    <rect style="fill: #ffffff" x="-893.78" y="-517.928" width="450.92" height="38"/>
    <rect style="fill: none; fill-opacity:0; stroke-width: 2; stroke: #000000" x="-893.78" y="-517.928" width="450.92" height="38"/>
    <text font-size="12.8" style="fill: #000000;text-anchor:middle;font-family:sans-serif;font-style:normal;font-weight:normal" x="-668.32" y="-495.028">
      <tspan x="-668.32" y="-495.028">src/minig/Makefile</tspan>
    </text>
  </g>
  <g>
    <path style="fill: #ffffff" d="M -867.852 -451.142 L -812.932,-451.142 C -805.349,-451.142 -799.202,-445.885 -799.202,-439.4 C -799.202,-432.915 -805.349,-427.658 -812.932,-427.658 L -867.852,-427.658 C -875.435,-427.658 -881.582,-432.915 -881.582,-439.4 C -881.582,-445.885 -875.435,-451.142 -867.852,-451.142z"/>
    <path style="fill: none; fill-opacity:0; stroke-width: 2; stroke: #000000" d="M -867.852 -451.142 L -812.932,-451.142 C -805.349,-451.142 -799.202,-445.885 -799.202,-439.4 C -799.202,-432.915 -805.349,-427.658 -812.932,-427.658 L -867.852,-427.658 C -875.435,-427.658 -881.582,-432.915 -881.582,-439.4 C -881.582,-445.885 -875.435,-451.142 -867.852,-451.142"/>
    <text font-size="12.8" style="fill: #000000;text-anchor:middle;font-family:sans-serif;font-style:normal;font-weight:normal" x="-840.392" y="-435.4">
      <tspan x="-840.392" y="-435.4">mine</tspan>
    </text>
  </g>
  <g>
    <path style="fill: #ffffff" d="M -875.627 -398.294 L -816.577,-398.294 C -808.424,-398.294 -801.814,-393.37 -801.814,-387.294 C -801.814,-381.219 -808.424,-376.294 -816.577,-376.294 L -875.627,-376.294 C -883.78,-376.294 -890.389,-381.219 -890.389,-387.294 C -890.389,-393.37 -883.78,-398.294 -875.627,-398.294z"/>
    <path style="fill: none; fill-opacity:0; stroke-width: 2; stroke: #000000" d="M -875.627 -398.294 L -816.577,-398.294 C -808.424,-398.294 -801.814,-393.37 -801.814,-387.294 C -801.814,-381.219 -808.424,-376.294 -816.577,-376.294 L -875.627,-376.294 C -883.78,-376.294 -890.389,-381.219 -890.389,-387.294 C -890.389,-393.37 -883.78,-398.294 -875.627,-398.294"/>
    <text font-size="12.8" style="fill: #000000;text-anchor:middle;font-family:sans-serif;font-style:normal;font-weight:normal" x="-846.102" y="-383.294">
      <tspan x="-846.102" y="-383.294">backlink</tspan>
    </text>
  </g>
  <g>
    <path style="fill: #ffffff" d="M -880.449 -313.844 L -760.149,-313.844 C -743.539,-313.844 -730.074,-308.919 -730.074,-302.844 C -730.074,-296.768 -743.539,-291.844 -760.149,-291.844 L -880.449,-291.844 C -897.059,-291.844 -910.524,-296.768 -910.524,-302.844 C -910.524,-308.919 -897.059,-313.844 -880.449,-313.844z"/>
    <path style="fill: none; fill-opacity:0; stroke-width: 2; stroke: #000000" d="M -880.449 -313.844 L -760.149,-313.844 C -743.539,-313.844 -730.074,-308.919 -730.074,-302.844 C -730.074,-296.768 -743.539,-291.844 -760.149,-291.844 L -880.449,-291.844 C -897.059,-291.844 -910.524,-296.768 -910.524,-302.844 C -910.524,-308.919 -897.059,-313.844 -880.449,-313.844"/>
    <text font-size="12.8" style="fill: #000000;text-anchor:middle;font-family:sans-serif;font-style:normal;font-weight:normal" x="-820.299" y="-298.844">
      <tspan x="-820.299" y="-298.844">cleanOnlineBooks</tspan>
    </text>
  </g>
  <g>
    <path style="fill: #ffffff" d="M -646.939 -460.784 L -553.639,-460.784 C -540.757,-460.784 -530.314,-455.859 -530.314,-449.784 C -530.314,-443.709 -540.757,-438.784 -553.639,-438.784 L -646.939,-438.784 C -659.821,-438.784 -670.264,-443.709 -670.264,-449.784 C -670.264,-455.859 -659.821,-460.784 -646.939,-460.784z"/>
    <path style="fill: none; fill-opacity:0; stroke-width: 2; stroke: #000000" d="M -646.939 -460.784 L -553.639,-460.784 C -540.757,-460.784 -530.314,-455.859 -530.314,-449.784 C -530.314,-443.709 -540.757,-438.784 -553.639,-438.784 L -646.939,-438.784 C -659.821,-438.784 -670.264,-443.709 -670.264,-449.784 C -670.264,-455.859 -659.821,-460.784 -646.939,-460.784"/>
    <text font-size="12.8" style="fill: #000000;text-anchor:middle;font-family:sans-serif;font-style:normal;font-weight:normal" x="-600.289" y="-445.784">
      <tspan x="-600.289" y="-445.784">cleanindecies</tspan>
    </text>
  </g>
  <g>
    <path style="fill: #ffffff" d="M -650.96 -422.09 L -550.66,-422.09 C -536.812,-422.09 -525.585,-417.166 -525.585,-411.09 C -525.585,-405.015 -536.812,-400.09 -550.66,-400.09 L -650.96,-400.09 C -664.809,-400.09 -676.035,-405.015 -676.035,-411.09 C -676.035,-417.166 -664.809,-422.09 -650.96,-422.09z"/>
    <path style="fill: none; fill-opacity:0; stroke-width: 2; stroke: #000000" d="M -650.96 -422.09 L -550.66,-422.09 C -536.812,-422.09 -525.585,-417.166 -525.585,-411.09 C -525.585,-405.015 -536.812,-400.09 -550.66,-400.09 L -650.96,-400.09 C -664.809,-400.09 -676.035,-405.015 -676.035,-411.09 C -676.035,-417.166 -664.809,-422.09 -650.96,-422.09"/>
    <text font-size="12.8" style="fill: #000000;text-anchor:middle;font-family:sans-serif;font-style:normal;font-weight:normal" x="-600.81" y="-407.09">
      <tspan x="-600.81" y="-407.09">mergeindecies</tspan>
    </text>
  </g>
  <g>
    <path style="fill: #ffffff" d="M -644.604 -382.843 L -563.854,-382.843 C -552.705,-382.843 -543.667,-377.918 -543.667,-371.843 C -543.667,-365.768 -552.705,-360.843 -563.854,-360.843 L -644.604,-360.843 C -655.753,-360.843 -664.792,-365.768 -664.792,-371.843 C -664.792,-377.918 -655.753,-382.843 -644.604,-382.843z"/>
    <path style="fill: none; fill-opacity:0; stroke-width: 2; stroke: #000000" d="M -644.604 -382.843 L -563.854,-382.843 C -552.705,-382.843 -543.667,-377.918 -543.667,-371.843 C -543.667,-365.768 -552.705,-360.843 -563.854,-360.843 L -644.604,-360.843 C -655.753,-360.843 -664.792,-365.768 -664.792,-371.843 C -664.792,-377.918 -655.753,-382.843 -644.604,-382.843"/>
    <text font-size="12.8" style="fill: #000000;text-anchor:middle;font-family:sans-serif;font-style:normal;font-weight:normal" x="-604.229" y="-367.843">
      <tspan x="-604.229" y="-367.843">frequencies</tspan>
    </text>
  </g>
  <g>
    <path style="fill: #ffffff" d="M -661.328 -340.938 L -530.978,-340.938 C -512.981,-340.938 -498.391,-336.013 -498.391,-329.938 C -498.391,-323.863 -512.981,-318.938 -530.978,-318.938 L -661.328,-318.938 C -679.326,-318.938 -693.916,-323.863 -693.916,-329.938 C -693.916,-336.013 -679.326,-340.938 -661.328,-340.938z"/>
    <path style="fill: none; fill-opacity:0; stroke-width: 2; stroke: #000000" d="M -661.328 -340.938 L -530.978,-340.938 C -512.981,-340.938 -498.391,-336.013 -498.391,-329.938 C -498.391,-323.863 -512.981,-318.938 -530.978,-318.938 L -661.328,-318.938 C -679.326,-318.938 -693.916,-323.863 -693.916,-329.938 C -693.916,-336.013 -679.326,-340.938 -661.328,-340.938"/>
    <text font-size="12.8" style="fill: #000000;text-anchor:middle;font-family:sans-serif;font-style:normal;font-weight:normal" x="-596.153" y="-325.938">
      <tspan x="-596.153" y="-325.938">mergedfrequencies</tspan>
    </text>
  </g>
  <g>
    <path style="fill: #ffffff" d="M -660.661 -290.01 L -533.311,-290.01 C -515.728,-290.01 -501.474,-285.085 -501.474,-279.01 C -501.474,-272.935 -515.728,-268.01 -533.311,-268.01 L -660.661,-268.01 C -678.245,-268.01 -692.499,-272.935 -692.499,-279.01 C -692.499,-285.085 -678.245,-290.01 -660.661,-290.01z"/>
    <path style="fill: none; fill-opacity:0; stroke-width: 2; stroke: #000000" d="M -660.661 -290.01 L -533.311,-290.01 C -515.728,-290.01 -501.474,-285.085 -501.474,-279.01 C -501.474,-272.935 -515.728,-268.01 -533.311,-268.01 L -660.661,-268.01 C -678.245,-268.01 -692.499,-272.935 -692.499,-279.01 C -692.499,-285.085 -678.245,-290.01 -660.661,-290.01"/>
    <text font-size="12.8" style="fill: #000000;text-anchor:middle;font-family:sans-serif;font-style:normal;font-weight:normal" x="-596.986" y="-275.01">
      <tspan x="-596.986" y="-275.01">backlinksMappings</tspan>
    </text>
  </g>
  <g>
    <path style="fill: #ffffff" d="M -640.955 -254.194 L -478.155,-254.194 C -455.677,-254.194 -437.455,-249.269 -437.455,-243.194 C -437.455,-237.119 -455.677,-232.194 -478.155,-232.194 L -640.955,-232.194 C -663.433,-232.194 -681.655,-237.119 -681.655,-243.194 C -681.655,-249.269 -663.433,-254.194 -640.955,-254.194z"/>
    <path style="fill: none; fill-opacity:0; stroke-width: 2; stroke: #000000" d="M -640.955 -254.194 L -478.155,-254.194 C -455.677,-254.194 -437.455,-249.269 -437.455,-243.194 C -437.455,-237.119 -455.677,-232.194 -478.155,-232.194 L -640.955,-232.194 C -663.433,-232.194 -681.655,-237.119 -681.655,-243.194 C -681.655,-249.269 -663.433,-254.194 -640.955,-254.194"/>
    <text font-size="12.8" style="fill: #000000;text-anchor:middle;font-family:sans-serif;font-style:normal;font-weight:normal" x="-559.555" y="-239.194">
      <tspan x="-559.555" y="-239.194">mergeBacklinkMappings</tspan>
    </text>
  </g>
  <g>
    <path style="fill: #ffffff" d="M -631.311 -207.352 L -522.211,-207.352 C -507.147,-207.352 -494.936,-202.427 -494.936,-196.352 C -494.936,-190.277 -507.147,-185.352 -522.211,-185.352 L -631.311,-185.352 C -646.374,-185.352 -658.586,-190.277 -658.586,-196.352 C -658.586,-202.427 -646.374,-207.352 -631.311,-207.352z"/>
    <path style="fill: none; fill-opacity:0; stroke-width: 2; stroke: #000000" d="M -631.311 -207.352 L -522.211,-207.352 C -507.147,-207.352 -494.936,-202.427 -494.936,-196.352 C -494.936,-190.277 -507.147,-185.352 -522.211,-185.352 L -631.311,-185.352 C -646.374,-185.352 -658.586,-190.277 -658.586,-196.352 C -658.586,-202.427 -646.374,-207.352 -631.311,-207.352"/>
    <text font-size="12.8" style="fill: #000000;text-anchor:middle;font-family:sans-serif;font-style:normal;font-weight:normal" x="-576.761" y="-192.352">
      <tspan x="-576.761" y="-192.352">mergeMappings</tspan>
    </text>
  </g>
  <g>
    <path style="fill: #ffffff" d="M -864.023 -267.728 L -754.473,-267.728 C -739.348,-267.728 -727.086,-262.804 -727.086,-256.728 C -727.086,-250.653 -739.348,-245.728 -754.473,-245.728 L -864.023,-245.728 C -879.149,-245.728 -891.411,-250.653 -891.411,-256.728 C -891.411,-262.804 -879.149,-267.728 -864.023,-267.728z"/>
    <path style="fill: none; fill-opacity:0; stroke-width: 2; stroke: #000000" d="M -864.023 -267.728 L -754.473,-267.728 C -739.348,-267.728 -727.086,-262.804 -727.086,-256.728 C -727.086,-250.653 -739.348,-245.728 -754.473,-245.728 L -864.023,-245.728 C -879.149,-245.728 -891.411,-250.653 -891.411,-256.728 C -891.411,-262.804 -879.149,-267.728 -864.023,-267.728"/>
    <text font-size="12.8" style="fill: #000000;text-anchor:middle;font-family:sans-serif;font-style:normal;font-weight:normal" x="-809.248" y="-252.728">
      <tspan x="-809.248" y="-252.728">deployBacklinks</tspan>
    </text>
  </g>
  <g>
    <path style="fill: #ffffff" d="M -629.056 -164.202 L -531.206,-164.202 C -517.696,-164.202 -506.744,-159.278 -506.744,-153.202 C -506.744,-147.127 -517.696,-142.202 -531.206,-142.202 L -629.056,-142.202 C -642.567,-142.202 -653.519,-147.127 -653.519,-153.202 C -653.519,-159.278 -642.567,-164.202 -629.056,-164.202z"/>
    <path style="fill: none; fill-opacity:0; stroke-width: 2; stroke: #000000" d="M -629.056 -164.202 L -531.206,-164.202 C -517.696,-164.202 -506.744,-159.278 -506.744,-153.202 C -506.744,-147.127 -517.696,-142.202 -531.206,-142.202 L -629.056,-142.202 C -642.567,-142.202 -653.519,-147.127 -653.519,-153.202 C -653.519,-159.278 -642.567,-164.202 -629.056,-164.202"/>
    <text font-size="12.8" style="fill: #000000;text-anchor:middle;font-family:sans-serif;font-style:normal;font-weight:normal" x="-580.131" y="-149.202">
      <tspan x="-580.131" y="-149.202">termCoverage</tspan>
    </text>
  </g>
  <g>
    <line style="fill: none; fill-opacity:0; stroke-width: 2; stroke: #000000" x1="-1191.01" y1="-314.441" x2="-885.729" y2="-437.726"/>
    <polyline style="fill: none; fill-opacity:0; stroke-width: 2; stroke: #000000" points="-891.056,-430.182 -883.656,-438.563 -894.8,-439.455 "/>
  </g>
  <g>
    <line style="fill: none; fill-opacity:0; stroke-width: 2; stroke: #000000" x1="-799.43" y1="-434.386" x2="-770.079" y2="-430.794"/>
    <polyline style="fill: none; fill-opacity:0; stroke-width: 2; stroke: #000000" points="-778.393,-426.774 -767.86,-430.522 -777.178,-436.7 "/>
  </g>
  <g>
    <polygon style="fill: #ffffff" points="-743.279,-455.398 -720.917,-430.25 -743.279,-405.103 -765.64,-430.25 "/>
    <polygon style="fill: none; fill-opacity:0; stroke-width: 2; stroke: #000000" points="-743.279,-455.398 -720.917,-430.25 -743.279,-405.103 -765.64,-430.25 "/>
    <text font-size="12.8" style="fill: #000000;text-anchor:middle;font-family:sans-serif;font-style:normal;font-weight:normal" x="-743.279" y="-426.35">
      <tspan x="-743.279" y="-426.35"></tspan>
    </text>
  </g>
  <g>
    <line style="fill: none; fill-opacity:0; stroke-width: 2; stroke: #000000" x1="-737.688" y1="-449.111" x2="-675.692" y2="-449.415"/>
    <polyline style="fill: none; fill-opacity:0; stroke-width: 2; stroke: #000000" points="-683.431,-444.377 -673.456,-449.426 -683.48,-454.377 "/>
  </g>
  <g>
    <line style="fill: none; fill-opacity:0; stroke-width: 2; stroke: #000000" x1="-726.507" y1="-423.963" x2="-680.369" y2="-412.196"/>
    <polyline style="fill: none; fill-opacity:0; stroke-width: 2; stroke: #000000" points="-689.128,-409.27 -678.202,-411.643 -686.656,-418.959 "/>
  </g>
  <g>
    <line style="fill: none; fill-opacity:0; stroke-width: 2; stroke: #000000" x1="-743.279" y1="-405.103" x2="-668.909" y2="-373.588"/>
    <polyline style="fill: none; fill-opacity:0; stroke-width: 2; stroke: #000000" points="-678.009,-372.013 -666.85,-372.715 -674.107,-381.221 "/>
  </g>
  <g>
    <line style="fill: none; fill-opacity:0; stroke-width: 2; stroke: #000000" x1="-760.05" y1="-423.963" x2="-696.489" y2="-333.596"/>
    <polyline style="fill: none; fill-opacity:0; stroke-width: 2; stroke: #000000" points="-705.045,-337.07 -695.202,-331.767 -696.866,-342.823 "/>
  </g>
  <g>
    <polygon style="fill: #ffffff" points="-756.131,-386.12 -732.036,-361.954 -756.131,-337.788 -780.226,-361.954 "/>
    <polygon style="fill: none; fill-opacity:0; stroke-width: 2; stroke: #000000" points="-756.131,-386.12 -732.036,-361.954 -756.131,-337.788 -780.226,-361.954 "/>
    <text font-size="12.8" style="fill: #000000;text-anchor:middle;font-family:sans-serif;font-style:normal;font-weight:normal" x="-756.131" y="-358.054">
      <tspan x="-756.131" y="-358.054"></tspan>
    </text>
  </g>
  <g>
    <line style="fill: none; fill-opacity:0; stroke-width: 2; stroke: #000000" x1="-801.814" y1="-387.294" x2="-783.126" y2="-365.359"/>
    <polyline style="fill: none; fill-opacity:0; stroke-width: 2; stroke: #000000" points="-791.967,-368.026 -781.676,-363.657 -784.355,-374.511 "/>
  </g>
  <g>
    <line style="fill: none; fill-opacity:0; stroke-width: 2; stroke: #000000" x1="-750.107" y1="-380.079" x2="-694.713" y2="-282.896"/>
    <polyline style="fill: none; fill-opacity:0; stroke-width: 2; stroke: #000000" points="-702.902,-287.165 -693.606,-280.953 -694.214,-292.117 "/>
  </g>
  <g>
    <line style="fill: none; fill-opacity:0; stroke-width: 2; stroke: #000000" x1="-746.449" y1="-346.515" x2="-684.031" y2="-246.983"/>
    <polyline style="fill: none; fill-opacity:0; stroke-width: 2; stroke: #000000" points="-692.391,-250.904 -682.843,-245.088 -683.919,-256.217 "/>
  </g>
  <g>
    <line style="fill: none; fill-opacity:0; stroke-width: 2; stroke: #000000" x1="-756.131" y1="-337.788" x2="-661.125" y2="-200.034"/>
    <polyline style="fill: none; fill-opacity:0; stroke-width: 2; stroke: #000000" points="-669.649,-203.586 -659.855,-198.193 -661.416,-209.264 "/>
  </g>
  <g>
    <rect style="fill: #ffffff" x="-277.941" y="-474.454" width="154.4" height="38"/>
    <rect style="fill: none; fill-opacity:0; stroke-width: 2; stroke: #000000" x="-277.941" y="-474.454" width="154.4" height="38"/>
    <text font-size="12.8" style="fill: #000000;text-anchor:middle;font-family:sans-serif;font-style:normal;font-weight:normal" x="-200.741" y="-451.554">
      <tspan x="-200.741" y="-451.554">src/mining/merge.py</tspan>
    </text>
  </g>
  <g>
    <line style="fill: none; fill-opacity:0; stroke-width: 2; stroke: #000000" x1="-530.314" y1="-449.784" x2="-282.405" y2="-464.685"/>
    <polyline style="fill: none; fill-opacity:0; stroke-width: 2; stroke: #000000" points="-289.855,-459.228 -280.173,-464.819 -290.455,-469.21 "/>
  </g>
  <g>
    <line style="fill: none; fill-opacity:0; stroke-width: 2; stroke-dasharray: 4; stroke: #000000" x1="-982.242" y1="-493.168" x2="-899.257" y2="-494.691"/>
    <polyline style="fill: none; fill-opacity:0; stroke-width: 2; stroke: #000000" points="-906.928,-489.549 -897.021,-494.732 -907.111,-499.547 "/>
  </g>
  <g>
    <line style="fill: none; fill-opacity:0; stroke-width: 2; stroke: #000000" x1="-525.585" y1="-411.09" x2="-282.369" y2="-445.33"/>
    <polyline style="fill: none; fill-opacity:0; stroke-width: 2; stroke: #000000" points="-289.36,-439.297 -280.155,-445.642 -290.754,-449.199 "/>
  </g>
  <g>
    <rect style="fill: #ffffff" x="-304.013" y="-421.377" width="187.7" height="38"/>
    <rect style="fill: none; fill-opacity:0; stroke-width: 2; stroke: #000000" x="-304.013" y="-421.377" width="187.7" height="38"/>
    <text font-size="12.8" style="fill: #000000;text-anchor:middle;font-family:sans-serif;font-style:normal;font-weight:normal" x="-210.163" y="-398.477">
      <tspan x="-210.163" y="-398.477">src/mining/frequencies.py</tspan>
    </text>
  </g>
  <g>
    <line style="fill: none; fill-opacity:0; stroke-width: 2; stroke: #000000" x1="-543.667" y1="-371.843" x2="-308.449" y2="-401.812"/>
    <polyline style="fill: none; fill-opacity:0; stroke-width: 2; stroke: #000000" points="-315.519,-395.871 -306.231,-402.094 -316.783,-405.791 "/>
  </g>
  <g>
    <line style="fill: none; fill-opacity:0; stroke-width: 2; stroke: #000000" x1="-498.391" y1="-329.938" x2="-308.267" y2="-391.499"/>
    <polyline style="fill: none; fill-opacity:0; stroke-width: 2; stroke: #000000" points="-314.114,-384.351 -306.14,-392.188 -317.194,-393.865 "/>
  </g>
  <g>
    <rect style="fill: #ffffff" x="-308.341" y="-366.613" width="219.85" height="38"/>
    <rect style="fill: none; fill-opacity:0; stroke-width: 2; stroke: #000000" x="-308.341" y="-366.613" width="219.85" height="38"/>
    <text font-size="12.8" style="fill: #000000;text-anchor:middle;font-family:sans-serif;font-style:normal;font-weight:normal" x="-198.416" y="-343.713">
      <tspan x="-198.416" y="-343.713">src/mining/backlinksMapper.py</tspan>
    </text>
  </g>
  <g>
    <line style="fill: none; fill-opacity:0; stroke-width: 2; stroke: #000000" x1="-501.474" y1="-279.01" x2="-312.555" y2="-346.116"/>
    <polyline style="fill: none; fill-opacity:0; stroke-width: 2; stroke: #000000" points="-318.197,-338.806 -310.448,-346.865 -321.545,-348.229 "/>
  </g>
  <g>
    <rect style="fill: #ffffff" x="-303.172" y="-321.513" width="214.75" height="38"/>
    <rect style="fill: none; fill-opacity:0; stroke-width: 2; stroke: #000000" x="-303.172" y="-321.513" width="214.75" height="38"/>
    <text font-size="12.8" style="fill: #000000;text-anchor:middle;font-family:sans-serif;font-style:normal;font-weight:normal" x="-195.797" y="-298.613">
      <tspan x="-195.797" y="-298.613">src/mining/mergeBacklinks.py</tspan>
    </text>
  </g>
  <g>
    <rect style="fill: #ffffff" x="-295.547" y="-271.303" width="218.667" height="38"/>
    <rect style="fill: none; fill-opacity:0; stroke-width: 2; stroke: #000000" x="-295.547" y="-271.303" width="218.667" height="38"/>
    <text font-size="12.8" style="fill: #000000;text-anchor:middle;font-family:sans-serif;font-style:normal;font-weight:normal" x="-186.214" y="-248.403">
      <tspan x="-186.214" y="-248.403">src/mining/mergeMapping.py</tspan>
    </text>
  </g>
  <g>
    <line style="fill: none; fill-opacity:0; stroke-width: 2; stroke: #000000" x1="-437.455" y1="-243.194" x2="-307.263" y2="-300.706"/>
    <polyline style="fill: none; fill-opacity:0; stroke-width: 2; stroke: #000000" points="-312.344,-292.995 -305.217,-301.609 -316.385,-302.142 "/>
  </g>
  <g>
    <line style="fill: none; fill-opacity:0; stroke-width: 2; stroke: #000000" x1="-494.936" y1="-196.352" x2="-299.853" y2="-251.095"/>
    <polyline style="fill: none; fill-opacity:0; stroke-width: 2; stroke: #000000" points="-305.977,-244.183 -297.7,-251.699 -308.679,-253.811 "/>
  </g>
  <g>
    <rect style="fill: #ffffff" x="-289.739" y="-219.876" width="204.8" height="38"/>
    <rect style="fill: none; fill-opacity:0; stroke-width: 2; stroke: #000000" x="-289.739" y="-219.876" width="204.8" height="38"/>
    <text font-size="12.8" style="fill: #000000;text-anchor:middle;font-family:sans-serif;font-style:normal;font-weight:normal" x="-187.339" y="-196.976">
      <tspan x="-187.339" y="-196.976">src/mining/termCoverage.py</tspan>
    </text>
  </g>
  <g>
    <line style="fill: none; fill-opacity:0; stroke-width: 2; stroke: #000000" x1="-506.744" y1="-153.202" x2="-294.107" y2="-199.917"/>
    <polyline style="fill: none; fill-opacity:0; stroke-width: 2; stroke: #000000" points="-300.617,-193.367 -291.923,-200.396 -302.763,-203.134 "/>
  </g>
  <g>
    <line style="fill: none; fill-opacity:0; stroke-width: 2; stroke: #000000" x1="-1180.81" y1="-269.591" x2="-894.534" y2="-385.615"/>
    <polyline style="fill: none; fill-opacity:0; stroke-width: 2; stroke: #000000" points="-899.851,-378.065 -892.461,-386.455 -903.607,-387.332 "/>
  </g>
  <g>
    <rect style="fill: #ffffff" x="-940.832" y="-44.309" width="413.574" height="38"/>
    <rect style="fill: none; fill-opacity:0; stroke-width: 2; stroke: #000000" x="-940.832" y="-44.309" width="413.574" height="38"/>
    <text font-size="12.7998" style="fill: #000000;text-anchor:middle;font-family:sans-serif;font-style:normal;font-weight:normal" x="-734.045" y="-21.409">
      <tspan x="-734.045" y="-21.409">Src/integrate/Makefile</tspan>
    </text>
  </g>
  <g>
    <path style="fill: #ffffff" d="M -909.128 13.9136 L -844.428,13.9136 C -835.495,13.9136 -828.253,18.8384 -828.253,24.9136 C -828.253,30.9887 -835.495,35.9136 -844.428,35.9136 L -909.128,35.9136 C -918.062,35.9136 -925.303,30.9887 -925.303,24.9136 C -925.303,18.8384 -918.062,13.9136 -909.128,13.9136z"/>
    <path style="fill: none; fill-opacity:0; stroke-width: 2; stroke: #000000" d="M -909.128 13.9136 L -844.428,13.9136 C -835.495,13.9136 -828.253,18.8384 -828.253,24.9136 C -828.253,30.9887 -835.495,35.9136 -844.428,35.9136 L -909.128,35.9136 C -918.062,35.9136 -925.303,30.9887 -925.303,24.9136 C -925.303,18.8384 -918.062,13.9136 -909.128,13.9136"/>
    <text font-size="12.7998" style="fill: #000000;text-anchor:middle;font-family:sans-serif;font-style:normal;font-weight:normal" x="-876.778" y="28.9136">
      <tspan x="-876.778" y="28.9136">integrate</tspan>
    </text>
  </g>
  <g>
    <polygon style="fill: #ffffff" points="-758.499,11.462 -736.855,37.0895 -758.499,62.717 -780.143,37.0895 "/>
    <polygon style="fill: none; fill-opacity:0; stroke-width: 2; stroke: #000000" points="-758.499,11.462 -736.855,37.0895 -758.499,62.717 -780.143,37.0895 "/>
    <text font-size="12.7998" style="fill: #000000;text-anchor:middle;font-family:sans-serif;font-style:normal;font-weight:normal" x="-758.499" y="40.9895">
      <tspan x="-758.499" y="40.9895"></tspan>
    </text>
  </g>
  <g>
    <line style="fill: none; fill-opacity:0; stroke-width: 2; stroke: #000000" x1="-828.253" y1="24.9136" x2="-784.479" y2="35.9922"/>
    <polyline style="fill: none; fill-opacity:0; stroke-width: 2; stroke: #000000" points="-793.232,38.9345 -782.311,36.5409 -790.779,29.2402 "/>
  </g>
  <g>
    <path style="fill: #ffffff" d="M -658.356 8.30315 L -553.006,8.30315 C -538.46,8.30315 -526.669,15.1224 -526.669,23.5343 C -526.669,31.9463 -538.46,38.7655 -553.006,38.7655 L -658.356,38.7655 C -672.902,38.7655 -684.694,31.9463 -684.694,23.5343 C -684.694,15.1224 -672.902,8.30315 -658.356,8.30315z"/>
    <path style="fill: none; fill-opacity:0; stroke-width: 2; stroke: #000000" d="M -658.356 8.30315 L -553.006,8.30315 C -538.46,8.30315 -526.669,15.1224 -526.669,23.5343 C -526.669,31.9463 -538.46,38.7655 -553.006,38.7655 L -658.356,38.7655 C -672.902,38.7655 -684.694,31.9463 -684.694,23.5343 C -684.694,15.1224 -672.902,8.30315 -658.356,8.30315"/>
    <text font-size="12.7998" style="fill: #000000;text-anchor:middle;font-family:sans-serif;font-style:normal;font-weight:normal" x="-605.681" y="27.5343">
      <tspan x="-605.681" y="27.5343">coverageTables</tspan>
    </text>
  </g>
  <g>
    <path style="fill: #ffffff" d="M -661.37 52.5599 L -514.87,52.5599 C -494.643,52.5599 -478.245,58.0682 -478.245,64.8631 C -478.245,71.658 -494.643,77.1664 -514.87,77.1664 L -661.37,77.1664 C -681.597,77.1664 -697.995,71.658 -697.995,64.8631 C -697.995,58.0682 -681.597,52.5599 -661.37,52.5599z"/>
    <path style="fill: none; fill-opacity:0; stroke-width: 2; stroke: #000000" d="M -661.37 52.5599 L -514.87,52.5599 C -494.643,52.5599 -478.245,58.0682 -478.245,64.8631 C -478.245,71.658 -494.643,77.1664 -514.87,77.1664 L -661.37,77.1664 C -681.597,77.1664 -697.995,71.658 -697.995,64.8631 C -697.995,58.0682 -681.597,52.5599 -661.37,52.5599"/>
    <text font-size="12.7998" style="fill: #000000;text-anchor:middle;font-family:sans-serif;font-style:normal;font-weight:normal" x="-588.12" y="68.8631">
      <tspan x="-588.12" y="68.8631">nonProfileFrequencies</tspan>
    </text>
  </g>
  <g>
    <path style="fill: #ffffff" d="M -651.357 93.6207 L -563.757,93.6207 C -551.662,93.6207 -541.857,98.5456 -541.857,104.621 C -541.857,110.696 -551.662,115.621 -563.757,115.621 L -651.357,115.621 C -663.452,115.621 -673.257,110.696 -673.257,104.621 C -673.257,98.5456 -663.452,93.6207 -651.357,93.6207z"/>
    <path style="fill: none; fill-opacity:0; stroke-width: 2; stroke: #000000" d="M -651.357 93.6207 L -563.757,93.6207 C -551.662,93.6207 -541.857,98.5456 -541.857,104.621 C -541.857,110.696 -551.662,115.621 -563.757,115.621 L -651.357,115.621 C -663.452,115.621 -673.257,110.696 -673.257,104.621 C -673.257,98.5456 -663.452,93.6207 -651.357,93.6207"/>
    <text font-size="12.7998" style="fill: #000000;text-anchor:middle;font-family:sans-serif;font-style:normal;font-weight:normal" x="-607.557" y="108.621">
      <tspan x="-607.557" y="108.621">uniqueTerms</tspan>
    </text>
  </g>
  <g>
    <line style="fill: none; fill-opacity:0; stroke-width: 2; stroke: #000000" x1="-747.677" y1="24.2757" x2="-689.165" y2="23.587"/>
    <polyline style="fill: none; fill-opacity:0; stroke-width: 2; stroke: #000000" points="-696.87,28.678 -686.93,23.5606 -696.988,18.6787 "/>
  </g>
  <g>
    <line style="fill: none; fill-opacity:0; stroke-width: 2; stroke: #000000" x1="-742.184" y1="44.5787" x2="-702.059" y2="62.9974"/>
    <polyline style="fill: none; fill-opacity:0; stroke-width: 2; stroke: #000000" points="-711.201,64.3026 -700.027,63.9303 -707.03,55.2143 "/>
  </g>
  <g>
    <line style="fill: none; fill-opacity:0; stroke-width: 2; stroke: #000000" x1="-753.088" y1="56.3101" x2="-677.083" y2="102.305"/>
    <polyline style="fill: none; fill-opacity:0; stroke-width: 2; stroke: #000000" points="-686.314,102.563 -675.17,103.463 -681.137,94.008 "/>
  </g>
  <g>
    <line style="fill: none; fill-opacity:0; stroke-width: 2; stroke-dasharray: 4; stroke: #000000" x1="-1043.36" y1="-471.969" x2="-941.853" y2="-39.163"/>
    <polyline style="fill: none; fill-opacity:0; stroke-width: 2; stroke: #000000" points="-948.493,-45.5802 -941.342,-36.986 -938.758,-47.8635 "/>
  </g>
  <g>
    <line style="fill: none; fill-opacity:0; stroke-width: 2; stroke: #000000" x1="-526.669" y1="23.5343" x2="-364.18" y2="21.4808"/>
    <polyline style="fill: none; fill-opacity:0; stroke-width: 2; stroke: #000000" points="-371.88,26.5785 -361.944,21.4525 -372.006,16.5793 "/>
  </g>
  <g>
    <line style="fill: none; fill-opacity:0; stroke-width: 2; stroke: #000000" x1="-477.888" y1="64.7774" x2="-391.371" y2="64.7101"/>
    <polyline style="fill: none; fill-opacity:0; stroke-width: 2; stroke: #000000" points="-399.131,69.7161 -389.135,64.7084 -399.139,59.7161 "/>
  </g>
  <g>
    <line style="fill: none; fill-opacity:0; stroke-width: 2; stroke: #000000" x1="-541.857" y1="104.621" x2="-359.239" y2="115.673"/>
    <polyline style="fill: none; fill-opacity:0; stroke-width: 2; stroke: #000000" points="-367.291,120.195 -357.007,115.808 -366.687,110.213 "/>
  </g>
  <g>
    <line style="fill: none; fill-opacity:0; stroke-width: 2; stroke: #000000" x1="-164.28" y1="116.261" x2="-128.288" y2="116.38"/>
    <polyline style="fill: none; fill-opacity:0; stroke-width: 2; stroke: #000000" points="-136.068,121.354 -126.052,116.387 -136.035,111.354 "/>
  </g>
  <g>
    <rect style="fill: #ffffff" x="-359.708" y="-7.07573" width="226.9" height="38"/>
    <rect style="fill: none; fill-opacity:0; stroke-width: 2; stroke: #000000" x="-359.708" y="-7.07573" width="226.9" height="38"/>
    <text font-size="12.7998" style="fill: #000000;text-anchor:middle;font-family:sans-serif;font-style:normal;font-weight:normal" x="-246.258" y="15.8243">
      <tspan x="-246.258" y="15.8243">src/integrate/TermsCoverage.py</tspan>
    </text>
  </g>
  <g>
    <rect style="fill: #ffffff" x="-386.899" y="45.7066" width="268.25" height="38"/>
    <rect style="fill: none; fill-opacity:0; stroke-width: 2; stroke: #000000" x="-386.899" y="45.7066" width="268.25" height="38"/>
    <text font-size="12.7998" style="fill: #000000;text-anchor:middle;font-family:sans-serif;font-style:normal;font-weight:normal" x="-252.774" y="68.6066">
      <tspan x="-252.774" y="68.6066">src/integrate/nonProfileFrequencies.py</tspan>
    </text>
  </g>
  <g>
    <rect style="fill: #ffffff" x="-354.775" y="96.9433" width="189.55" height="38"/>
    <rect style="fill: none; fill-opacity:0; stroke-width: 2; stroke: #000000" x="-354.775" y="96.9433" width="189.55" height="38"/>
    <text font-size="12.7998" style="fill: #000000;text-anchor:middle;font-family:sans-serif;font-style:normal;font-weight:normal" x="-260" y="119.843">
      <tspan x="-260" y="119.843">src/integrate/uniqueTerms</tspan>
    </text>
  </g>
  <g>
    <rect style="fill: #ffffff" x="-122.869" y="97.7126" width="190" height="38"/>
    <rect style="fill: none; fill-opacity:0; stroke-width: 2; stroke: #000000" x="-122.869" y="97.7126" width="190" height="38"/>
    <text font-size="12.7998" style="fill: #000000;text-anchor:middle;font-family:sans-serif;font-style:normal;font-weight:normal" x="-27.8685" y="120.613">
      <tspan x="-27.8685" y="120.613">src/integrate/constants.py</tspan>
    </text>
  </g>
  <line style="fill: none; fill-opacity:0; stroke-width: 2; stroke: #000000" x1="-1364.97" y1="-237.578" x2="-1341.57" y2="-237.32"/>
  <line style="fill: none; fill-opacity:0; stroke-width: 2; stroke: #000000" x1="-1352.4" y1="-156.519" x2="-1328.86" y2="-157.032"/>
</svg>
