<?xml version="1.0" encoding="UTF-8" standalone="no"?>
<!DOCTYPE svg PUBLIC "-//W3C//DTD SVG 1.0//EN" "http://www.w3.org/TR/2001/PR-SVG-20010719/DTD/svg10.dtd">
<svg width="79cm" height="52cm" viewBox="-1493 -532 1561 1039" xmlns="http://www.w3.org/2000/svg" xmlns:xlink="http://www.w3.org/1999/xlink">
  <g>
    <rect style="fill: none; fill-opacity:0; stroke-width: 2; stroke-dasharray: 20; stroke: #000000" x="-898.838" y="-530.943" width="465.723" height="419.67"/>
    <text font-size="12.7998" style="fill: #000000;text-anchor:middle;font-family:sans-serif;font-style:normal;font-weight:normal" x="-665.977" y="-317.208">
      <tspan x="-665.977" y="-317.208"></tspan>
    </text>
  </g>
  <g>
    <rect style="fill: none; fill-opacity:0; stroke-width: 2; stroke-dasharray: 20; stroke: #000000" x="-914.406" y="166.344" width="454.048" height="191.7"/>
    <text font-size="12.7998" style="fill: #000000;text-anchor:middle;font-family:sans-serif;font-style:normal;font-weight:normal" x="-687.382" y="266.094">
      <tspan x="-687.382" y="266.094"></tspan>
    </text>
  </g>
  <g>
    <rect style="fill: none; fill-opacity:0; stroke-width: 2; stroke-dasharray: 20; stroke: #000000" x="-950.897" y="-54.1933" width="482.755" height="192.7"/>
    <text font-size="12.7998" style="fill: #000000;text-anchor:middle;font-family:sans-serif;font-style:normal;font-weight:normal" x="-709.519" y="46.0567">
      <tspan x="-709.519" y="46.0567"></tspan>
    </text>
  </g>
  <g>
    <rect style="fill: none; fill-opacity:0; stroke-width: 2; stroke-dasharray: 20; stroke: #000000" x="-1491.69" y="-397.972" width="371.022" height="608.424"/>
    <text font-size="12.7998" style="fill: #000000;text-anchor:middle;font-family:sans-serif;font-style:normal;font-weight:normal" x="-1306.18" y="-89.8603">
      <tspan x="-1306.18" y="-89.8603"></tspan>
    </text>
  </g>
  <g>
    <rect style="fill: #ffffff" x="-1477.98" y="-373.324" width="314.349" height="40.6766"/>
    <rect style="fill: none; fill-opacity:0; stroke-width: 2; stroke: #000000" x="-1477.98" y="-373.324" width="314.349" height="40.6766"/>
    <text font-size="12.8" style="fill: #000000;text-anchor:middle;font-family:sans-serif;font-style:normal;font-weight:normal" x="-1320.81" y="-349.086">
      <tspan x="-1320.81" y="-349.086">Makefile</tspan>
    </text>
  </g>
  <g>
    <path style="fill: #ffffff" d="M -1464.99 -166.496 L -1371.29,-166.496 L -1352.55,-155.496 L -1371.29,-144.496 L -1464.99,-144.496 L -1483.73,-155.496 L -1464.99,-166.496z"/>
    <path style="fill: none; fill-opacity:0; stroke-width: 2; stroke: #000000" d="M -1464.99 -166.496 L -1371.29,-166.496 L -1352.55,-155.496 L -1371.29,-144.496 L -1464.99,-144.496 L -1483.73,-155.496 L -1464.99,-166.496"/>
    <text font-size="12.8" style="fill: #000000;text-anchor:middle;font-family:sans-serif;font-style:normal;font-weight:normal" x="-1418.14" y="-151.496">
      <tspan x="-1418.14" y="-151.496">OnlineBoooks</tspan>
    </text>
  </g>
  <g>
    <path style="fill: #ffffff" d="M -1269.6 -206.774 L -1201.85,-206.774 C -1192.49,-206.774 -1184.91,-201.849 -1184.91,-195.774 C -1184.91,-189.699 -1192.49,-184.774 -1201.85,-184.774 L -1269.6,-184.774 C -1278.95,-184.774 -1286.53,-189.699 -1286.53,-195.774 C -1286.53,-201.849 -1278.95,-206.774 -1269.6,-206.774z"/>
    <path style="fill: none; fill-opacity:0; stroke-width: 2; stroke: #000000" d="M -1269.6 -206.774 L -1201.85,-206.774 C -1192.49,-206.774 -1184.91,-201.849 -1184.91,-195.774 C -1184.91,-189.699 -1192.49,-184.774 -1201.85,-184.774 L -1269.6,-184.774 C -1278.95,-184.774 -1286.53,-189.699 -1286.53,-195.774 C -1286.53,-201.849 -1278.95,-206.774 -1269.6,-206.774"/>
    <text font-size="12.8" style="fill: #000000;text-anchor:middle;font-family:sans-serif;font-style:normal;font-weight:normal" x="-1235.72" y="-191.774">
      <tspan x="-1235.72" y="-191.774">bootstrap</tspan>
    </text>
  </g>
  <g>
    <rect style="fill: #ffffff" x="-1086.89" y="-211.098" width="129" height="38"/>
    <rect style="fill: none; fill-opacity:0; stroke-width: 2; stroke: #000000" x="-1086.89" y="-211.098" width="129" height="38"/>
    <text font-size="12.8" style="fill: #000000;text-anchor:middle;font-family:sans-serif;font-style:normal;font-weight:normal" x="-1022.39" y="-188.198">
      <tspan x="-1022.39" y="-188.198">src/bootstrap.py</tspan>
    </text>
  </g>
  <g>
    <line style="fill: none; fill-opacity:0; stroke-width: 2; stroke: #000000" x1="-1184.91" y1="-195.773" x2="-1091.35" y2="-192.265"/>
    <polyline style="fill: none; fill-opacity:0; stroke-width: 2; stroke: #000000" points="-1099.3,-187.559 -1089.12,-192.181 -1098.93,-197.552 "/>
  </g>
  <g>
    <path style="fill: #ffffff" d="M -1449.8 -250.506 L -1379.4,-250.506 L -1365.32,-237.971 L -1379.4,-225.435 L -1449.8,-225.435 L -1463.88,-237.971 L -1449.8,-250.506z"/>
    <path style="fill: none; fill-opacity:0; stroke-width: 2; stroke: #000000" d="M -1449.8 -250.506 L -1379.4,-250.506 L -1365.32,-237.971 L -1379.4,-225.435 L -1449.8,-225.435 L -1463.88,-237.971 L -1449.8,-250.506"/>
    <text font-size="12.8" style="fill: #000000;text-anchor:middle;font-family:sans-serif;font-style:normal;font-weight:normal" x="-1414.6" y="-233.971">
      <tspan x="-1414.6" y="-233.971">INDEXKEY</tspan>
    </text>
  </g>
  <g>
    <path style="fill: #ffffff" d="M -1300.6 -169.851 L -1190.15,-169.851 C -1174.9,-169.851 -1162.54,-164.926 -1162.54,-158.851 C -1162.54,-152.776 -1174.9,-147.851 -1190.15,-147.851 L -1300.6,-147.851 C -1315.85,-147.851 -1328.21,-152.776 -1328.21,-158.851 C -1328.21,-164.926 -1315.85,-169.851 -1300.6,-169.851z"/>
    <path style="fill: none; fill-opacity:0; stroke-width: 2; stroke: #000000" d="M -1300.6 -169.851 L -1190.15,-169.851 C -1174.9,-169.851 -1162.54,-164.926 -1162.54,-158.851 C -1162.54,-152.776 -1174.9,-147.851 -1190.15,-147.851 L -1300.6,-147.851 C -1315.85,-147.851 -1328.21,-152.776 -1328.21,-158.851 C -1328.21,-164.926 -1315.85,-169.851 -1300.6,-169.851"/>
    <text font-size="12.8" style="fill: #000000;text-anchor:middle;font-family:sans-serif;font-style:normal;font-weight:normal" x="-1245.37" y="-154.851">
      <tspan x="-1245.37" y="-154.851">download-books</tspan>
    </text>
  </g>
  <g>
    <path style="fill: #ffffff" d="M -1289.24 -14.3213 L -1218.14,-14.3213 C -1208.32,-14.3213 -1200.36,-9.39646 -1200.36,-3.32132 C -1200.36,2.75381 -1208.32,7.67868 -1218.14,7.67868 L -1289.24,7.67868 C -1299.06,7.67868 -1307.01,2.75381 -1307.01,-3.32132 C -1307.01,-9.39646 -1299.06,-14.3213 -1289.24,-14.3213z"/>
    <path style="fill: none; fill-opacity:0; stroke-width: 2; stroke: #000000" d="M -1289.24 -14.3213 L -1218.14,-14.3213 C -1208.32,-14.3213 -1200.36,-9.39646 -1200.36,-3.32132 C -1200.36,2.75381 -1208.32,7.67868 -1218.14,7.67868 L -1289.24,7.67868 C -1299.06,7.67868 -1307.01,2.75381 -1307.01,-3.32132 C -1307.01,-9.39646 -1299.06,-14.3213 -1289.24,-14.3213"/>
    <text font-size="12.8" style="fill: #000000;text-anchor:middle;font-family:sans-serif;font-style:normal;font-weight:normal" x="-1253.69" y="0.67868">
      <tspan x="-1253.69" y="0.67868">link-books</tspan>
    </text>
  </g>
  <g>
    <path style="fill: #ffffff" d="M -1304.76 -247.11 L -1159.06,-247.11 C -1138.95,-247.11 -1122.64,-242.185 -1122.64,-236.11 C -1122.64,-230.035 -1138.95,-225.11 -1159.06,-225.11 L -1304.76,-225.11 C -1324.88,-225.11 -1341.19,-230.035 -1341.19,-236.11 C -1341.19,-242.185 -1324.88,-247.11 -1304.76,-247.11z"/>
    <path style="fill: none; fill-opacity:0; stroke-width: 2; stroke: #000000" d="M -1304.76 -247.11 L -1159.06,-247.11 C -1138.95,-247.11 -1122.64,-242.185 -1122.64,-236.11 C -1122.64,-230.035 -1138.95,-225.11 -1159.06,-225.11 L -1304.76,-225.11 C -1324.88,-225.11 -1341.19,-230.035 -1341.19,-236.11 C -1341.19,-242.185 -1324.88,-247.11 -1304.76,-247.11"/>
    <text font-size="12.8" style="fill: #000000;text-anchor:middle;font-family:sans-serif;font-style:normal;font-weight:normal" x="-1231.91" y="-232.11">
      <tspan x="-1231.91" y="-232.11">download-googledocs</tspan>
    </text>
  </g>
  <g>
    <path style="fill: #ffffff" d="M -1263.03 -313.454 L -1178.36,-313.454 C -1166.67,-313.454 -1157.19,-308.529 -1157.19,-302.454 C -1157.19,-296.379 -1166.67,-291.454 -1178.36,-291.454 L -1263.03,-291.454 C -1274.72,-291.454 -1284.19,-296.379 -1284.19,-302.454 C -1284.19,-308.529 -1274.72,-313.454 -1263.03,-313.454z"/>
    <path style="fill: none; fill-opacity:0; stroke-width: 2; stroke: #000000" d="M -1263.03 -313.454 L -1178.36,-313.454 C -1166.67,-313.454 -1157.19,-308.529 -1157.19,-302.454 C -1157.19,-296.379 -1166.67,-291.454 -1178.36,-291.454 L -1263.03,-291.454 C -1274.72,-291.454 -1284.19,-296.379 -1284.19,-302.454 C -1284.19,-308.529 -1274.72,-313.454 -1263.03,-313.454"/>
    <text font-size="12.8" style="fill: #000000;text-anchor:middle;font-family:sans-serif;font-style:normal;font-weight:normal" x="-1220.69" y="-298.454">
      <tspan x="-1220.69" y="-298.454">mine</tspan>
    </text>
  </g>
  <g>
    <path style="fill: #ffffff" d="M -1428.92 -119.914 L -1373.37,-119.914 C -1365.7,-119.914 -1359.48,-114.989 -1359.48,-108.914 C -1359.48,-102.839 -1365.7,-97.9138 -1373.37,-97.9138 L -1428.92,-97.9138 C -1436.59,-97.9138 -1442.81,-102.839 -1442.81,-108.914 C -1442.81,-114.989 -1436.59,-119.914 -1428.92,-119.914z"/>
    <path style="fill: none; fill-opacity:0; stroke-width: 2; stroke: #000000" d="M -1428.92 -119.914 L -1373.37,-119.914 C -1365.7,-119.914 -1359.48,-114.989 -1359.48,-108.914 C -1359.48,-102.839 -1365.7,-97.9138 -1373.37,-97.9138 L -1428.92,-97.9138 C -1436.59,-97.9138 -1442.81,-102.839 -1442.81,-108.914 C -1442.81,-114.989 -1436.59,-119.914 -1428.92,-119.914"/>
    <text font-size="12.8" style="fill: #000000;text-anchor:middle;font-family:sans-serif;font-style:normal;font-weight:normal" x="-1401.15" y="-104.914">
      <tspan x="-1401.15" y="-104.914">analyze</tspan>
    </text>
  </g>
  <g>
    <path style="fill: #ffffff" d="M -1292.66 -129.123 L -1214.36,-129.123 C -1203.55,-129.123 -1194.79,-124.111 -1194.79,-117.928 C -1194.79,-111.745 -1203.55,-106.732 -1214.36,-106.732 L -1292.66,-106.732 C -1303.47,-106.732 -1312.24,-111.745 -1312.24,-117.928 C -1312.24,-124.111 -1303.47,-129.123 -1292.66,-129.123z"/>
    <path style="fill: none; fill-opacity:0; stroke-width: 2; stroke: #000000" d="M -1292.66 -129.123 L -1214.36,-129.123 C -1203.55,-129.123 -1194.79,-124.111 -1194.79,-117.928 C -1194.79,-111.745 -1203.55,-106.732 -1214.36,-106.732 L -1292.66,-106.732 C -1303.47,-106.732 -1312.24,-111.745 -1312.24,-117.928 C -1312.24,-124.111 -1303.47,-129.123 -1292.66,-129.123"/>
    <text font-size="12.8" style="fill: #000000;text-anchor:middle;font-family:sans-serif;font-style:normal;font-weight:normal" x="-1253.51" y="-113.928">
      <tspan x="-1253.51" y="-113.928">from-cache</tspan>
    </text>
  </g>
  <g>
    <path style="fill: #ffffff" d="M -1283.68 -52.8474 L -1222.03,-52.8474 C -1213.52,-52.8474 -1206.62,-47.9225 -1206.62,-41.8474 C -1206.62,-35.7723 -1213.52,-30.8474 -1222.03,-30.8474 L -1283.68,-30.8474 C -1292.19,-30.8474 -1299.09,-35.7723 -1299.09,-41.8474 C -1299.09,-47.9225 -1292.19,-52.8474 -1283.68,-52.8474z"/>
    <path style="fill: none; fill-opacity:0; stroke-width: 2; stroke: #000000" d="M -1283.68 -52.8474 L -1222.03,-52.8474 C -1213.52,-52.8474 -1206.62,-47.9225 -1206.62,-41.8474 C -1206.62,-35.7723 -1213.52,-30.8474 -1222.03,-30.8474 L -1283.68,-30.8474 C -1292.19,-30.8474 -1299.09,-35.7723 -1299.09,-41.8474 C -1299.09,-47.9225 -1292.19,-52.8474 -1283.68,-52.8474"/>
    <text font-size="12.8" style="fill: #000000;text-anchor:middle;font-family:sans-serif;font-style:normal;font-weight:normal" x="-1252.86" y="-37.8474">
      <tspan x="-1252.86" y="-37.8474">to-cache</tspan>
    </text>
  </g>
  <g>
    <path style="fill: #ffffff" d="M -1254.62 -284.096 L -1195.57,-284.096 C -1187.42,-284.096 -1180.81,-277.602 -1180.81,-269.591 C -1180.81,-261.579 -1187.42,-255.085 -1195.57,-255.085 L -1254.62,-255.085 C -1262.78,-255.085 -1269.39,-261.579 -1269.39,-269.591 C -1269.39,-277.602 -1262.78,-284.096 -1254.62,-284.096z"/>
    <path style="fill: none; fill-opacity:0; stroke-width: 2; stroke: #000000" d="M -1254.62 -284.096 L -1195.57,-284.096 C -1187.42,-284.096 -1180.81,-277.602 -1180.81,-269.591 C -1180.81,-261.579 -1187.42,-255.085 -1195.57,-255.085 L -1254.62,-255.085 C -1262.78,-255.085 -1269.39,-261.579 -1269.39,-269.591 C -1269.39,-277.602 -1262.78,-284.096 -1254.62,-284.096"/>
    <text font-size="12.8" style="fill: #000000;text-anchor:middle;font-family:sans-serif;font-style:normal;font-weight:normal" x="-1225.1" y="-265.591">
      <tspan x="-1225.1" y="-265.591">backlink</tspan>
    </text>
  </g>
  <g>
    <path style="fill: #ffffff" d="M -1334 36.6324 L -1228.65,36.6324 C -1214.11,36.6324 -1202.32,41.5573 -1202.32,47.6324 C -1202.32,53.7075 -1214.11,58.6324 -1228.65,58.6324 L -1334,58.6324 C -1348.55,58.6324 -1360.34,53.7075 -1360.34,47.6324 C -1360.34,41.5573 -1348.55,36.6324 -1334,36.6324z"/>
    <path style="fill: none; fill-opacity:0; stroke-width: 2; stroke: #000000" d="M -1334 36.6324 L -1228.65,36.6324 C -1214.11,36.6324 -1202.32,41.5573 -1202.32,47.6324 C -1202.32,53.7075 -1214.11,58.6324 -1228.65,58.6324 L -1334,58.6324 C -1348.55,58.6324 -1360.34,53.7075 -1360.34,47.6324 C -1360.34,41.5573 -1348.55,36.6324 -1334,36.6324"/>
    <text font-size="12.8" style="fill: #000000;text-anchor:middle;font-family:sans-serif;font-style:normal;font-weight:normal" x="-1281.33" y="51.6324">
      <tspan x="-1281.33" y="51.6324">coverageTables</tspan>
    </text>
  </g>
  <g>
    <path style="fill: #ffffff" d="M -1356.83 82.3402 L -1210.33,82.3402 C -1190.11,82.3402 -1173.71,87.2651 -1173.71,93.3402 C -1173.71,99.4153 -1190.11,104.34 -1210.33,104.34 L -1356.83,104.34 C -1377.06,104.34 -1393.46,99.4153 -1393.46,93.3402 C -1393.46,87.2651 -1377.06,82.3402 -1356.83,82.3402z"/>
    <path style="fill: none; fill-opacity:0; stroke-width: 2; stroke: #000000" d="M -1356.83 82.3402 L -1210.33,82.3402 C -1190.11,82.3402 -1173.71,87.2651 -1173.71,93.3402 C -1173.71,99.4153 -1190.11,104.34 -1210.33,104.34 L -1356.83,104.34 C -1377.06,104.34 -1393.46,99.4153 -1393.46,93.3402 C -1393.46,87.2651 -1377.06,82.3402 -1356.83,82.3402"/>
    <text font-size="12.8" style="fill: #000000;text-anchor:middle;font-family:sans-serif;font-style:normal;font-weight:normal" x="-1283.58" y="97.3402">
      <tspan x="-1283.58" y="97.3402">nonProfileFrequencies</tspan>
    </text>
  </g>
  <g>
    <path style="fill: #ffffff" d="M -1299.37 108.787 L -1258.92,108.787 C -1253.34,108.787 -1248.81,113.712 -1248.81,119.787 C -1248.81,125.862 -1253.34,130.787 -1258.92,130.787 L -1299.37,130.787 C -1304.96,130.787 -1309.48,125.862 -1309.48,119.787 C -1309.48,113.712 -1304.96,108.787 -1299.37,108.787z"/>
    <path style="fill: none; fill-opacity:0; stroke-width: 2; stroke: #000000" d="M -1299.37 108.787 L -1258.92,108.787 C -1253.34,108.787 -1248.81,113.712 -1248.81,119.787 C -1248.81,125.862 -1253.34,130.787 -1258.92,130.787 L -1299.37,130.787 C -1304.96,130.787 -1309.48,125.862 -1309.48,119.787 C -1309.48,113.712 -1304.96,108.787 -1299.37,108.787"/>
    <text font-size="12.8" style="fill: #000000;text-anchor:middle;font-family:sans-serif;font-style:normal;font-weight:normal" x="-1279.15" y="123.787">
      <tspan x="-1279.15" y="123.787">clean</tspan>
    </text>
  </g>
  <g>
    <rect style="fill: #ffffff" x="-1112.85" y="-510.96" width="129.6" height="38"/>
    <rect style="fill: none; fill-opacity:0; stroke-width: 2; stroke: #000000" x="-1112.85" y="-510.96" width="129.6" height="38"/>
    <text font-size="12.8" style="fill: #000000;text-anchor:middle;font-family:sans-serif;font-style:normal;font-weight:normal" x="-1048.05" y="-488.06">
      <tspan x="-1048.05" y="-488.06">src/Makefile.vars</tspan>
    </text>
  </g>
  <g>
    <rect style="fill: #ffffff" x="-1096.03" y="-280.099" width="172.7" height="38"/>
    <rect style="fill: none; fill-opacity:0; stroke-width: 2; stroke: #000000" x="-1096.03" y="-280.099" width="172.7" height="38"/>
    <text font-size="12.8" style="fill: #000000;text-anchor:middle;font-family:sans-serif;font-style:normal;font-weight:normal" x="-1009.68" y="-257.199">
      <tspan x="-1009.68" y="-257.199">src/misc/downloader.py</tspan>
    </text>
  </g>
  <g>
    <rect style="fill: #ffffff" x="-1124.78" y="347.749" width="185.75" height="38"/>
    <rect style="fill: none; fill-opacity:0; stroke-width: 2; stroke: #000000" x="-1124.78" y="347.749" width="185.75" height="38"/>
    <text font-size="12.8" style="fill: #000000;text-anchor:middle;font-family:sans-serif;font-style:normal;font-weight:normal" x="-1031.9" y="370.649">
      <tspan x="-1031.9" y="370.649">src/misc/downloadnltK.py</tspan>
    </text>
  </g>
  <g>
    <path style="fill: #ffffff" d="M -1337.2 146.277 L -1233.8,146.277 C -1219.52,146.277 -1207.95,151.202 -1207.95,157.277 C -1207.95,163.352 -1219.52,168.277 -1233.8,168.277 L -1337.2,168.277 C -1351.47,168.277 -1363.05,163.352 -1363.05,157.277 C -1363.05,151.202 -1351.47,146.277 -1337.2,146.277z"/>
    <path style="fill: none; fill-opacity:0; stroke-width: 2; stroke: #000000" d="M -1337.2 146.277 L -1233.8,146.277 C -1219.52,146.277 -1207.95,151.202 -1207.95,157.277 C -1207.95,163.352 -1219.52,168.277 -1233.8,168.277 L -1337.2,168.277 C -1351.47,168.277 -1363.05,163.352 -1363.05,157.277 C -1363.05,151.202 -1351.47,146.277 -1337.2,146.277"/>
    <text font-size="12.8" style="fill: #000000;text-anchor:middle;font-family:sans-serif;font-style:normal;font-weight:normal" x="-1285.5" y="161.277">
      <tspan x="-1285.5" y="161.277">download-deps</tspan>
    </text>
  </g>
  <line style="fill: none; fill-opacity:0; stroke-width: 2; stroke-dasharray: 4; stroke: #000000" x1="-1278.96" y1="-374.31" x2="-1087.27" y2="-471.976"/>
  <g>
    <polygon style="fill: #ffffff" points="-1043.95,222.444 -1014.01,244.446 -1043.95,266.449 -1073.89,244.446 "/>
    <polygon style="fill: none; fill-opacity:0; stroke-width: 2; stroke: #000000" points="-1043.95,222.444 -1014.01,244.446 -1043.95,266.449 -1073.89,244.446 "/>
    <text font-size="12.8" style="fill: #000000;text-anchor:middle;font-family:sans-serif;font-style:normal;font-weight:normal" x="-1043.95" y="248.346">
      <tspan x="-1043.95" y="248.346"></tspan>
    </text>
  </g>
  <g>
    <line style="fill: none; fill-opacity:0; stroke-width: 2; stroke: #000000" x1="-1207.95" y1="157.277" x2="-1077.64" y2="242.008"/>
    <polyline style="fill: none; fill-opacity:0; stroke-width: 2; stroke: #000000" points="-1086.87,241.968 -1075.76,243.227 -1081.42,233.584 "/>
  </g>
  <g>
    <line style="fill: none; fill-opacity:0; stroke-width: 2; stroke: #000000" x1="-1043.95" y1="266.448" x2="-1034.84" y2="342.314"/>
    <polyline style="fill: none; fill-opacity:0; stroke-width: 2; stroke: #000000" points="-1040.73,335.202 -1034.57,344.535 -1030.8,334.01 "/>
  </g>
  <g>
    <line style="fill: none; fill-opacity:0; stroke-width: 2; stroke: #000000" x1="-1133.31" y1="-243.888" x2="-1100.09" y2="-259.224"/>
    <polyline style="fill: none; fill-opacity:0; stroke-width: 2; stroke: #000000" points="-1105.04,-251.431 -1098.06,-260.162 -1109.23,-260.51 "/>
  </g>
  <g>
    <rect style="fill: #ffffff" x="-906.65" y="172.24" width="433.999" height="38"/>
    <rect style="fill: none; fill-opacity:0; stroke-width: 2; stroke: #000000" x="-906.65" y="172.24" width="433.999" height="38"/>
    <text font-size="12.8" style="fill: #000000;text-anchor:middle;font-family:sans-serif;font-style:normal;font-weight:normal" x="-689.65" y="195.14">
      <tspan x="-689.65" y="195.14">src/analytics/Makefile</tspan>
    </text>
  </g>
  <g>
    <rect style="fill: #ffffff" x="-315.556" y="280.374" width="331.7" height="38"/>
    <rect style="fill: none; fill-opacity:0; stroke-width: 2; stroke: #000000" x="-315.556" y="280.374" width="331.7" height="38"/>
    <text font-size="12.8" style="fill: #000000;text-anchor:middle;font-family:sans-serif;font-style:normal;font-weight:normal" x="-149.706" y="303.274">
      <tspan x="-149.706" y="303.274">src/analytics/buildPopularScatteredTermsTable.R</tspan>
    </text>
  </g>
  <g>
    <rect style="fill: #ffffff" x="-273.888" y="325.072" width="269.75" height="38"/>
    <rect style="fill: none; fill-opacity:0; stroke-width: 2; stroke: #000000" x="-273.888" y="325.072" width="269.75" height="38"/>
    <text font-size="12.8" style="fill: #000000;text-anchor:middle;font-family:sans-serif;font-style:normal;font-weight:normal" x="-139.013" y="347.972">
      <tspan x="-139.013" y="347.972">src/analytics/buildPopularTermsTable.R</tspan>
    </text>
  </g>
  <g>
    <rect style="fill: #ffffff" x="-223.158" y="422.692" width="186.676" height="38"/>
    <rect style="fill: none; fill-opacity:0; stroke-width: 2; stroke: #000000" x="-223.158" y="422.692" width="186.676" height="38"/>
    <text font-size="12.8" style="fill: #000000;text-anchor:middle;font-family:sans-serif;font-style:normal;font-weight:normal" x="-129.82" y="445.592">
      <tspan x="-129.82" y="445.592">src/analytics/csv2tex.py</tspan>
    </text>
  </g>
  <g>
    <rect style="fill: #ffffff" x="-258.512" y="467.54" width="227.688" height="38"/>
    <rect style="fill: none; fill-opacity:0; stroke-width: 2; stroke: #000000" x="-258.512" y="467.54" width="227.688" height="38"/>
    <text font-size="12.8" style="fill: #000000;text-anchor:middle;font-family:sans-serif;font-style:normal;font-weight:normal" x="-144.668" y="490.44">
      <tspan x="-144.668" y="490.44">src/analytics/dependencies.R</tspan>
    </text>
  </g>
  <g>
    <rect style="fill: #ffffff" x="-332.614" y="235.678" width="220.617" height="38"/>
    <rect style="fill: none; fill-opacity:0; stroke-width: 2; stroke: #000000" x="-332.614" y="235.678" width="220.617" height="38"/>
    <text font-size="12.8" style="fill: #000000;text-anchor:middle;font-family:sans-serif;font-style:normal;font-weight:normal" x="-222.305" y="258.578">
      <tspan x="-222.305" y="258.578">src/analytics/frequencies.R</tspan>
    </text>
  </g>
  <g>
    <rect style="fill: #ffffff" x="-256.24" y="374.568" width="244.659" height="38"/>
    <rect style="fill: none; fill-opacity:0; stroke-width: 2; stroke: #000000" x="-256.24" y="374.568" width="244.659" height="38"/>
    <text font-size="12.8" style="fill: #000000;text-anchor:middle;font-family:sans-serif;font-style:normal;font-weight:normal" x="-133.911" y="397.468">
      <tspan x="-133.911" y="397.468">src/analytics/rank.R</tspan>
    </text>
  </g>
  <g>
    <path style="fill: #ffffff" d="M -853.03 231.076 L -797.481,231.076 C -789.811,231.076 -783.593,236.001 -783.593,242.076 C -783.593,248.151 -789.811,253.076 -797.481,253.076 L -853.03,253.076 C -860.7,253.076 -866.918,248.151 -866.918,242.076 C -866.918,236.001 -860.7,231.076 -853.03,231.076z"/>
    <path style="fill: none; fill-opacity:0; stroke-width: 2; stroke: #000000" d="M -853.03 231.076 L -797.481,231.076 C -789.811,231.076 -783.593,236.001 -783.593,242.076 C -783.593,248.151 -789.811,253.076 -797.481,253.076 L -853.03,253.076 C -860.7,253.076 -866.918,248.151 -866.918,242.076 C -866.918,236.001 -860.7,231.076 -853.03,231.076"/>
    <text font-size="12.8" style="fill: #000000;text-anchor:middle;font-family:sans-serif;font-style:normal;font-weight:normal" x="-825.256" y="246.076">
      <tspan x="-825.256" y="246.076">analyze</tspan>
    </text>
  </g>
  <g>
    <path style="fill: #ffffff" d="M -806.245 315.164 L -750.395,315.164 C -742.684,315.164 -736.433,320.089 -736.433,326.164 C -736.433,332.239 -742.684,337.164 -750.395,337.164 L -806.245,337.164 C -813.957,337.164 -820.208,332.239 -820.208,326.164 C -820.208,320.089 -813.957,315.164 -806.245,315.164z"/>
    <path style="fill: none; fill-opacity:0; stroke-width: 2; stroke: #000000" d="M -806.245 315.164 L -750.395,315.164 C -742.684,315.164 -736.433,320.089 -736.433,326.164 C -736.433,332.239 -742.684,337.164 -750.395,337.164 L -806.245,337.164 C -813.957,337.164 -820.208,332.239 -820.208,326.164 C -820.208,320.089 -813.957,315.164 -806.245,315.164"/>
    <text font-size="12.8" style="fill: #000000;text-anchor:middle;font-family:sans-serif;font-style:normal;font-weight:normal" x="-778.32" y="330.164">
      <tspan x="-778.32" y="330.164">prepare</tspan>
    </text>
  </g>
  <g>
    <line style="fill: none; fill-opacity:0; stroke-width: 2; stroke: #000000" x1="-1021.49" y1="238.946" x2="-824.311" y2="324.386"/>
    <polyline style="fill: none; fill-opacity:0; stroke-width: 2; stroke: #000000" points="-833.423,325.887 -822.26,325.275 -829.447,316.711 "/>
  </g>
  <g>
    <line style="fill: none; fill-opacity:0; stroke-width: 2; stroke: #000000" x1="-736.434" y1="326.164" x2="-262.752" y2="485.117"/>
    <polyline style="fill: none; fill-opacity:0; stroke-width: 2; stroke: #000000" points="-271.703,487.388 -260.632,485.829 -268.522,477.907 "/>
  </g>
  <g>
    <path style="fill: #ffffff" d="M -624.071 235.462 L -543.32,235.462 C -532.171,235.462 -523.133,240.387 -523.133,246.462 C -523.133,252.537 -532.171,257.462 -543.32,257.462 L -624.071,257.462 C -635.22,257.462 -644.258,252.537 -644.258,246.462 C -644.258,240.387 -635.22,235.462 -624.071,235.462z"/>
    <path style="fill: none; fill-opacity:0; stroke-width: 2; stroke: #000000" d="M -624.071 235.462 L -543.32,235.462 C -532.171,235.462 -523.133,240.387 -523.133,246.462 C -523.133,252.537 -532.171,257.462 -543.32,257.462 L -624.071,257.462 C -635.22,257.462 -644.258,252.537 -644.258,246.462 C -644.258,240.387 -635.22,235.462 -624.071,235.462"/>
    <text font-size="12.8" style="fill: #000000;text-anchor:middle;font-family:sans-serif;font-style:normal;font-weight:normal" x="-583.695" y="250.462">
      <tspan x="-583.695" y="250.462">frequencies</tspan>
    </text>
  </g>
  <g>
    <path style="fill: #ffffff" d="M -617.513 274.92 L -562.613,274.92 C -555.033,274.92 -548.888,279.845 -548.888,285.92 C -548.888,291.995 -555.033,296.92 -562.613,296.92 L -617.513,296.92 C -625.093,296.92 -631.238,291.995 -631.238,285.92 C -631.238,279.845 -625.093,274.92 -617.513,274.92z"/>
    <path style="fill: none; fill-opacity:0; stroke-width: 2; stroke: #000000" d="M -617.513 274.92 L -562.613,274.92 C -555.033,274.92 -548.888,279.845 -548.888,285.92 C -548.888,291.995 -555.033,296.92 -562.613,296.92 L -617.513,296.92 C -625.093,296.92 -631.238,291.995 -631.238,285.92 C -631.238,279.845 -625.093,274.92 -617.513,274.92"/>
    <text font-size="12.8" style="fill: #000000;text-anchor:middle;font-family:sans-serif;font-style:normal;font-weight:normal" x="-590.063" y="289.92">
      <tspan x="-590.063" y="289.92">popular</tspan>
    </text>
  </g>
  <g>
    <path style="fill: #ffffff" d="M -598.713 308.656 L -572.413,308.656 C -568.782,308.656 -565.838,313.581 -565.838,319.656 C -565.838,325.731 -568.782,330.656 -572.413,330.656 L -598.713,330.656 C -602.344,330.656 -605.288,325.731 -605.288,319.656 C -605.288,313.581 -602.344,308.656 -598.713,308.656z"/>
    <path style="fill: none; fill-opacity:0; stroke-width: 2; stroke: #000000" d="M -598.713 308.656 L -572.413,308.656 C -568.782,308.656 -565.838,313.581 -565.838,319.656 C -565.838,325.731 -568.782,330.656 -572.413,330.656 L -598.713,330.656 C -602.344,330.656 -605.288,325.731 -605.288,319.656 C -605.288,313.581 -602.344,308.656 -598.713,308.656"/>
    <text font-size="12.8" style="fill: #000000;text-anchor:middle;font-family:sans-serif;font-style:normal;font-weight:normal" x="-585.563" y="323.656">
      <tspan x="-585.563" y="323.656">tex</tspan>
    </text>
  </g>
  <line style="fill: none; fill-opacity:0; stroke-width: 2; stroke-dasharray: 4; stroke: #000000" x1="-1037.9" y1="-472.612" x2="-699.8" y2="171.892"/>
  <g>
    <polygon style="fill: #ffffff" points="-707.977,245.026 -682.515,268.556 -707.977,292.086 -733.438,268.556 "/>
    <polygon style="fill: none; fill-opacity:0; stroke-width: 2; stroke: #000000" points="-707.977,245.026 -682.515,268.556 -707.977,292.086 -733.438,268.556 "/>
    <text font-size="12.8" style="fill: #000000;text-anchor:middle;font-family:sans-serif;font-style:normal;font-weight:normal" x="-707.977" y="272.456">
      <tspan x="-707.977" y="272.456"></tspan>
    </text>
  </g>
  <g>
    <line style="fill: none; fill-opacity:0; stroke-width: 2; stroke: #000000" x1="-783.594" y1="242.076" x2="-731.443" y2="260.338"/>
    <polyline style="fill: none; fill-opacity:0; stroke-width: 2; stroke: #000000" points="-740.423,262.491 -729.333,261.077 -737.118,253.053 "/>
  </g>
  <g>
    <line style="fill: none; fill-opacity:0; stroke-width: 2; stroke: #000000" x1="-701.61" y1="250.91" x2="-648.717" y2="246.808"/>
    <polyline style="fill: none; fill-opacity:0; stroke-width: 2; stroke: #000000" points="-656.071,252.393 -646.487,246.635 -656.844,242.423 "/>
  </g>
  <g>
    <line style="fill: none; fill-opacity:0; stroke-width: 2; stroke: #000000" x1="-688.88" y1="274.438" x2="-635.624" y2="285.046"/>
    <polyline style="fill: none; fill-opacity:0; stroke-width: 2; stroke: #000000" points="-644.215,288.433 -633.431,285.483 -642.262,278.626 "/>
  </g>
  <g>
    <line style="fill: none; fill-opacity:0; stroke-width: 2; stroke: #000000" x1="-707.976" y1="292.086" x2="-609.607" y2="318.496"/>
    <polyline style="fill: none; fill-opacity:0; stroke-width: 2; stroke: #000000" points="-618.402,321.312 -607.448,319.076 -615.809,311.654 "/>
  </g>
  <g>
    <line style="fill: none; fill-opacity:0; stroke-width: 2; stroke: #000000" x1="-523.134" y1="246.462" x2="-337.082" y2="254.485"/>
    <polyline style="fill: none; fill-opacity:0; stroke-width: 2; stroke: #000000" points="-345.054,259.146 -334.848,254.582 -344.623,249.155 "/>
  </g>
  <g>
    <line style="fill: none; fill-opacity:0; stroke-width: 2; stroke: #000000" x1="-565.838" y1="319.656" x2="-227.371" y2="440.192"/>
    <polyline style="fill: none; fill-opacity:0; stroke-width: 2; stroke: #000000" points="-236.362,442.297 -225.264,440.942 -233.008,432.877 "/>
  </g>
  <g>
    <polygon style="fill: #ffffff" points="-397.325,277.346 -372.971,301.383 -397.325,325.421 -421.678,301.383 "/>
    <polygon style="fill: none; fill-opacity:0; stroke-width: 2; stroke: #000000" points="-397.325,277.346 -372.971,301.383 -397.325,325.421 -421.678,301.383 "/>
    <text font-size="12.8" style="fill: #000000;text-anchor:middle;font-family:sans-serif;font-style:normal;font-weight:normal" x="-397.325" y="305.283">
      <tspan x="-397.325" y="305.283"></tspan>
    </text>
  </g>
  <g>
    <line style="fill: none; fill-opacity:0; stroke-width: 2; stroke: #000000" x1="-548.888" y1="285.92" x2="-426.117" y2="300.844"/>
    <polyline style="fill: none; fill-opacity:0; stroke-width: 2; stroke: #000000" points="-434.428,304.871 -423.898,301.114 -433.221,294.944 "/>
  </g>
  <g>
    <line style="fill: none; fill-opacity:0; stroke-width: 2; stroke: #000000" x1="-397.326" y1="277.346" x2="-319.874" y2="298.211"/>
    <polyline style="fill: none; fill-opacity:0; stroke-width: 2; stroke: #000000" points="-328.671,301.019 -317.715,298.792 -326.07,291.363 "/>
  </g>
  <g>
    <line style="fill: none; fill-opacity:0; stroke-width: 2; stroke: #000000" x1="-372.972" y1="301.384" x2="-277.995" y2="342.303"/>
    <polyline style="fill: none; fill-opacity:0; stroke-width: 2; stroke: #000000" points="-287.104,343.823 -275.942,343.187 -283.147,334.639 "/>
  </g>
  <g>
    <line style="fill: none; fill-opacity:0; stroke-width: 2; stroke: #000000" x1="-397.326" y1="325.42" x2="-260.267" y2="391.623"/>
    <polyline style="fill: none; fill-opacity:0; stroke-width: 2; stroke: #000000" points="-269.433,392.748 -258.253,392.595 -265.083,383.744 "/>
  </g>
  <g>
    <rect style="fill: #ffffff" x="-1100.2" y="-157.844" width="159.1" height="38"/>
    <rect style="fill: none; fill-opacity:0; stroke-width: 2; stroke: #000000" x="-1100.2" y="-157.844" width="159.1" height="38"/>
    <text font-size="12.8" style="fill: #000000;text-anchor:middle;font-family:sans-serif;font-style:normal;font-weight:normal" x="-1020.65" y="-134.944">
      <tspan x="-1020.65" y="-134.944">src/mining/crawler.py</tspan>
    </text>
  </g>
  <g>
    <line style="fill: none; fill-opacity:0; stroke-width: 2; stroke: #000000" x1="-1166.79" y1="-151.855" x2="-1105.66" y2="-146.412"/>
    <polyline style="fill: none; fill-opacity:0; stroke-width: 2; stroke: #000000" points="-1113.83,-142.121 -1103.43,-146.214 -1112.95,-152.081 "/>
  </g>
  <g>
    <polygon style="fill: #ffffff" points="-1151.54,-82.9776 -1124.26,-60.1532 -1151.54,-37.3289 -1178.82,-60.1532 "/>
    <polygon style="fill: none; fill-opacity:0; stroke-width: 2; stroke: #000000" points="-1151.54,-82.9776 -1124.26,-60.1532 -1151.54,-37.3289 -1178.82,-60.1532 "/>
    <text font-size="12.8" style="fill: #000000;text-anchor:middle;font-family:sans-serif;font-style:normal;font-weight:normal" x="-1151.54" y="-56.2532">
      <tspan x="-1151.54" y="-56.2532"></tspan>
    </text>
  </g>
  <g>
    <line style="fill: none; fill-opacity:0; stroke-width: 2; stroke: #000000" x1="-1359.48" y1="-108.914" x2="-1178.14" y2="-66.3899"/>
    <polyline style="fill: none; fill-opacity:0; stroke-width: 2; stroke: #000000" points="-1186.84,-63.2944 -1175.96,-65.8794 -1184.56,-73.0303 "/>
  </g>
  <g>
    <line style="fill: none; fill-opacity:0; stroke-width: 2; stroke: #000000" x1="-1165.18" y1="-71.5654" x2="-1192.38" y2="-114.159"/>
    <polyline style="fill: none; fill-opacity:0; stroke-width: 2; stroke: #000000" points="-1183.99,-110.306 -1193.58,-116.043 -1192.42,-104.924 "/>
  </g>
  <g>
    <line style="fill: none; fill-opacity:0; stroke-width: 2; stroke: #000000" x1="-1137.9" y1="-71.5654" x2="-869.842" y2="238.692"/>
    <polyline style="fill: none; fill-opacity:0; stroke-width: 2; stroke: #000000" points="-878.701,236.086 -868.38,240.384 -871.134,229.548 "/>
  </g>
  <g>
    <rect style="fill: #ffffff" x="-893.78" y="-517.928" width="450.92" height="38"/>
    <rect style="fill: none; fill-opacity:0; stroke-width: 2; stroke: #000000" x="-893.78" y="-517.928" width="450.92" height="38"/>
    <text font-size="12.8" style="fill: #000000;text-anchor:middle;font-family:sans-serif;font-style:normal;font-weight:normal" x="-668.32" y="-495.028">
      <tspan x="-668.32" y="-495.028">src/minig/Makefile</tspan>
    </text>
  </g>
  <g>
    <path style="fill: #ffffff" d="M -867.852 -451.142 L -812.932,-451.142 C -805.349,-451.142 -799.201,-445.885 -799.201,-439.4 C -799.201,-432.915 -805.349,-427.658 -812.932,-427.658 L -867.852,-427.658 C -875.435,-427.658 -881.582,-432.915 -881.582,-439.4 C -881.582,-445.885 -875.435,-451.142 -867.852,-451.142z"/>
    <path style="fill: none; fill-opacity:0; stroke-width: 2; stroke: #000000" d="M -867.852 -451.142 L -812.932,-451.142 C -805.349,-451.142 -799.201,-445.885 -799.201,-439.4 C -799.201,-432.915 -805.349,-427.658 -812.932,-427.658 L -867.852,-427.658 C -875.435,-427.658 -881.582,-432.915 -881.582,-439.4 C -881.582,-445.885 -875.435,-451.142 -867.852,-451.142"/>
    <text font-size="12.8" style="fill: #000000;text-anchor:middle;font-family:sans-serif;font-style:normal;font-weight:normal" x="-840.392" y="-435.4">
      <tspan x="-840.392" y="-435.4">mine</tspan>
    </text>
  </g>
  <g>
    <path style="fill: #ffffff" d="M -875.628 -398.294 L -816.578,-398.294 C -808.424,-398.294 -801.815,-393.369 -801.815,-387.294 C -801.815,-381.219 -808.424,-376.294 -816.578,-376.294 L -875.628,-376.294 C -883.781,-376.294 -890.39,-381.219 -890.39,-387.294 C -890.39,-393.369 -883.781,-398.294 -875.628,-398.294z"/>
    <path style="fill: none; fill-opacity:0; stroke-width: 2; stroke: #000000" d="M -875.628 -398.294 L -816.578,-398.294 C -808.424,-398.294 -801.815,-393.369 -801.815,-387.294 C -801.815,-381.219 -808.424,-376.294 -816.578,-376.294 L -875.628,-376.294 C -883.781,-376.294 -890.39,-381.219 -890.39,-387.294 C -890.39,-393.369 -883.781,-398.294 -875.628,-398.294"/>
    <text font-size="12.8" style="fill: #000000;text-anchor:middle;font-family:sans-serif;font-style:normal;font-weight:normal" x="-846.103" y="-383.294">
      <tspan x="-846.103" y="-383.294">backlink</tspan>
    </text>
  </g>
  <g>
    <path style="fill: #ffffff" d="M -848.953 -246.49 L -728.653,-246.49 C -712.043,-246.49 -698.578,-241.565 -698.578,-235.49 C -698.578,-229.415 -712.043,-224.49 -728.653,-224.49 L -848.953,-224.49 C -865.563,-224.49 -879.028,-229.415 -879.028,-235.49 C -879.028,-241.565 -865.563,-246.49 -848.953,-246.49z"/>
    <path style="fill: none; fill-opacity:0; stroke-width: 2; stroke: #000000" d="M -848.953 -246.49 L -728.653,-246.49 C -712.043,-246.49 -698.578,-241.565 -698.578,-235.49 C -698.578,-229.415 -712.043,-224.49 -728.653,-224.49 L -848.953,-224.49 C -865.563,-224.49 -879.028,-229.415 -879.028,-235.49 C -879.028,-241.565 -865.563,-246.49 -848.953,-246.49"/>
    <text font-size="12.8" style="fill: #000000;text-anchor:middle;font-family:sans-serif;font-style:normal;font-weight:normal" x="-788.803" y="-231.49">
      <tspan x="-788.803" y="-231.49">cleanOnlineBooks</tspan>
    </text>
  </g>
  <g>
    <path style="fill: #ffffff" d="M -646.939 -460.784 L -553.639,-460.784 C -540.757,-460.784 -530.314,-455.859 -530.314,-449.784 C -530.314,-443.709 -540.757,-438.784 -553.639,-438.784 L -646.939,-438.784 C -659.821,-438.784 -670.264,-443.709 -670.264,-449.784 C -670.264,-455.859 -659.821,-460.784 -646.939,-460.784z"/>
    <path style="fill: none; fill-opacity:0; stroke-width: 2; stroke: #000000" d="M -646.939 -460.784 L -553.639,-460.784 C -540.757,-460.784 -530.314,-455.859 -530.314,-449.784 C -530.314,-443.709 -540.757,-438.784 -553.639,-438.784 L -646.939,-438.784 C -659.821,-438.784 -670.264,-443.709 -670.264,-449.784 C -670.264,-455.859 -659.821,-460.784 -646.939,-460.784"/>
    <text font-size="12.8" style="fill: #000000;text-anchor:middle;font-family:sans-serif;font-style:normal;font-weight:normal" x="-600.289" y="-445.784">
      <tspan x="-600.289" y="-445.784">cleanindecies</tspan>
    </text>
  </g>
  <g>
    <path style="fill: #ffffff" d="M -650.961 -422.09 L -550.661,-422.09 C -536.812,-422.09 -525.586,-417.165 -525.586,-411.09 C -525.586,-405.015 -536.812,-400.09 -550.661,-400.09 L -650.961,-400.09 C -664.81,-400.09 -676.036,-405.015 -676.036,-411.09 C -676.036,-417.165 -664.81,-422.09 -650.961,-422.09z"/>
    <path style="fill: none; fill-opacity:0; stroke-width: 2; stroke: #000000" d="M -650.961 -422.09 L -550.661,-422.09 C -536.812,-422.09 -525.586,-417.165 -525.586,-411.09 C -525.586,-405.015 -536.812,-400.09 -550.661,-400.09 L -650.961,-400.09 C -664.81,-400.09 -676.036,-405.015 -676.036,-411.09 C -676.036,-417.165 -664.81,-422.09 -650.961,-422.09"/>
    <text font-size="12.8" style="fill: #000000;text-anchor:middle;font-family:sans-serif;font-style:normal;font-weight:normal" x="-600.811" y="-407.09">
      <tspan x="-600.811" y="-407.09">mergeindecies</tspan>
    </text>
  </g>
  <g>
    <path style="fill: #ffffff" d="M -644.605 -382.842 L -563.855,-382.842 C -552.705,-382.842 -543.667,-377.917 -543.667,-371.842 C -543.667,-365.767 -552.705,-360.842 -563.855,-360.842 L -644.605,-360.842 C -655.754,-360.842 -664.792,-365.767 -664.792,-371.842 C -664.792,-377.917 -655.754,-382.842 -644.605,-382.842z"/>
    <path style="fill: none; fill-opacity:0; stroke-width: 2; stroke: #000000" d="M -644.605 -382.842 L -563.855,-382.842 C -552.705,-382.842 -543.667,-377.917 -543.667,-371.842 C -543.667,-365.767 -552.705,-360.842 -563.855,-360.842 L -644.605,-360.842 C -655.754,-360.842 -664.792,-365.767 -664.792,-371.842 C -664.792,-377.917 -655.754,-382.842 -644.605,-382.842"/>
    <text font-size="12.8" style="fill: #000000;text-anchor:middle;font-family:sans-serif;font-style:normal;font-weight:normal" x="-604.23" y="-367.842">
      <tspan x="-604.23" y="-367.842">frequencies</tspan>
    </text>
  </g>
  <g>
    <path style="fill: #ffffff" d="M -661.328 -340.938 L -530.978,-340.938 C -512.981,-340.938 -498.391,-336.013 -498.391,-329.938 C -498.391,-323.863 -512.981,-318.938 -530.978,-318.938 L -661.328,-318.938 C -679.326,-318.938 -693.916,-323.863 -693.916,-329.938 C -693.916,-336.013 -679.326,-340.938 -661.328,-340.938z"/>
    <path style="fill: none; fill-opacity:0; stroke-width: 2; stroke: #000000" d="M -661.328 -340.938 L -530.978,-340.938 C -512.981,-340.938 -498.391,-336.013 -498.391,-329.938 C -498.391,-323.863 -512.981,-318.938 -530.978,-318.938 L -661.328,-318.938 C -679.326,-318.938 -693.916,-323.863 -693.916,-329.938 C -693.916,-336.013 -679.326,-340.938 -661.328,-340.938"/>
    <text font-size="12.8" style="fill: #000000;text-anchor:middle;font-family:sans-serif;font-style:normal;font-weight:normal" x="-596.153" y="-325.938">
      <tspan x="-596.153" y="-325.938">mergedfrequencies</tspan>
    </text>
  </g>
  <g>
    <path style="fill: #ffffff" d="M -660.66 -290.01 L -533.31,-290.01 C -515.727,-290.01 -501.473,-285.085 -501.473,-279.01 C -501.473,-272.935 -515.727,-268.01 -533.31,-268.01 L -660.66,-268.01 C -678.244,-268.01 -692.498,-272.935 -692.498,-279.01 C -692.498,-285.085 -678.244,-290.01 -660.66,-290.01z"/>
    <path style="fill: none; fill-opacity:0; stroke-width: 2; stroke: #000000" d="M -660.66 -290.01 L -533.31,-290.01 C -515.727,-290.01 -501.473,-285.085 -501.473,-279.01 C -501.473,-272.935 -515.727,-268.01 -533.31,-268.01 L -660.66,-268.01 C -678.244,-268.01 -692.498,-272.935 -692.498,-279.01 C -692.498,-285.085 -678.244,-290.01 -660.66,-290.01"/>
    <text font-size="12.8" style="fill: #000000;text-anchor:middle;font-family:sans-serif;font-style:normal;font-weight:normal" x="-596.986" y="-275.01">
      <tspan x="-596.986" y="-275.01">backlinksMappings</tspan>
    </text>
  </g>
  <g>
    <path style="fill: #ffffff" d="M -640.954 -254.194 L -478.154,-254.194 C -455.676,-254.194 -437.454,-249.269 -437.454,-243.194 C -437.454,-237.119 -455.676,-232.194 -478.154,-232.194 L -640.954,-232.194 C -663.432,-232.194 -681.654,-237.119 -681.654,-243.194 C -681.654,-249.269 -663.432,-254.194 -640.954,-254.194z"/>
    <path style="fill: none; fill-opacity:0; stroke-width: 2; stroke: #000000" d="M -640.954 -254.194 L -478.154,-254.194 C -455.676,-254.194 -437.454,-249.269 -437.454,-243.194 C -437.454,-237.119 -455.676,-232.194 -478.154,-232.194 L -640.954,-232.194 C -663.432,-232.194 -681.654,-237.119 -681.654,-243.194 C -681.654,-249.269 -663.432,-254.194 -640.954,-254.194"/>
    <text font-size="12.8" style="fill: #000000;text-anchor:middle;font-family:sans-serif;font-style:normal;font-weight:normal" x="-559.554" y="-239.194">
      <tspan x="-559.554" y="-239.194">mergeBacklinkMappings</tspan>
    </text>
  </g>
  <g>
    <path style="fill: #ffffff" d="M -631.311 -207.352 L -522.211,-207.352 C -507.147,-207.352 -494.936,-202.427 -494.936,-196.352 C -494.936,-190.277 -507.147,-185.352 -522.211,-185.352 L -631.311,-185.352 C -646.375,-185.352 -658.586,-190.277 -658.586,-196.352 C -658.586,-202.427 -646.375,-207.352 -631.311,-207.352z"/>
    <path style="fill: none; fill-opacity:0; stroke-width: 2; stroke: #000000" d="M -631.311 -207.352 L -522.211,-207.352 C -507.147,-207.352 -494.936,-202.427 -494.936,-196.352 C -494.936,-190.277 -507.147,-185.352 -522.211,-185.352 L -631.311,-185.352 C -646.375,-185.352 -658.586,-190.277 -658.586,-196.352 C -658.586,-202.427 -646.375,-207.352 -631.311,-207.352"/>
    <text font-size="12.8" style="fill: #000000;text-anchor:middle;font-family:sans-serif;font-style:normal;font-weight:normal" x="-576.761" y="-192.352">
      <tspan x="-576.761" y="-192.352">mergeMappings</tspan>
    </text>
  </g>
  <g>
    <path style="fill: #ffffff" d="M -844.876 -189.943 L -735.326,-189.943 C -720.201,-189.943 -707.939,-185.019 -707.939,-178.943 C -707.939,-172.868 -720.201,-167.943 -735.326,-167.943 L -844.876,-167.943 C -860.002,-167.943 -872.264,-172.868 -872.264,-178.943 C -872.264,-185.019 -860.002,-189.943 -844.876,-189.943z"/>
    <path style="fill: none; fill-opacity:0; stroke-width: 2; stroke: #000000" d="M -844.876 -189.943 L -735.326,-189.943 C -720.201,-189.943 -707.939,-185.019 -707.939,-178.943 C -707.939,-172.868 -720.201,-167.943 -735.326,-167.943 L -844.876,-167.943 C -860.002,-167.943 -872.264,-172.868 -872.264,-178.943 C -872.264,-185.019 -860.002,-189.943 -844.876,-189.943"/>
    <text font-size="12.8" style="fill: #000000;text-anchor:middle;font-family:sans-serif;font-style:normal;font-weight:normal" x="-790.101" y="-174.943">
      <tspan x="-790.101" y="-174.943">deployBacklinks</tspan>
    </text>
  </g>
  <g>
    <path style="fill: #ffffff" d="M -629.055 -164.202 L -531.205,-164.202 C -517.695,-164.202 -506.743,-159.278 -506.743,-153.202 C -506.743,-147.127 -517.695,-142.202 -531.205,-142.202 L -629.055,-142.202 C -642.566,-142.202 -653.518,-147.127 -653.518,-153.202 C -653.518,-159.278 -642.566,-164.202 -629.055,-164.202z"/>
    <path style="fill: none; fill-opacity:0; stroke-width: 2; stroke: #000000" d="M -629.055 -164.202 L -531.205,-164.202 C -517.695,-164.202 -506.743,-159.278 -506.743,-153.202 C -506.743,-147.127 -517.695,-142.202 -531.205,-142.202 L -629.055,-142.202 C -642.566,-142.202 -653.518,-147.127 -653.518,-153.202 C -653.518,-159.278 -642.566,-164.202 -629.055,-164.202"/>
    <text font-size="12.8" style="fill: #000000;text-anchor:middle;font-family:sans-serif;font-style:normal;font-weight:normal" x="-580.13" y="-149.202">
      <tspan x="-580.13" y="-149.202">termCoverage</tspan>
    </text>
  </g>
  <g>
    <line style="fill: none; fill-opacity:0; stroke-width: 2; stroke: #000000" x1="-1191.01" y1="-314.44" x2="-885.729" y2="-437.725"/>
    <polyline style="fill: none; fill-opacity:0; stroke-width: 2; stroke: #000000" points="-891.056,-430.182 -883.655,-438.563 -894.8,-439.454 "/>
  </g>
  <g>
    <line style="fill: none; fill-opacity:0; stroke-width: 2; stroke: #000000" x1="-799.43" y1="-434.386" x2="-770.079" y2="-430.793"/>
    <polyline style="fill: none; fill-opacity:0; stroke-width: 2; stroke: #000000" points="-778.393,-426.774 -767.86,-430.522 -777.178,-436.7 "/>
  </g>
  <g>
    <polygon style="fill: #ffffff" points="-743.278,-455.398 -720.917,-430.25 -743.278,-405.103 -765.64,-430.25 "/>
    <polygon style="fill: none; fill-opacity:0; stroke-width: 2; stroke: #000000" points="-743.278,-455.398 -720.917,-430.25 -743.278,-405.103 -765.64,-430.25 "/>
    <text font-size="12.8" style="fill: #000000;text-anchor:middle;font-family:sans-serif;font-style:normal;font-weight:normal" x="-743.278" y="-426.35">
      <tspan x="-743.278" y="-426.35"></tspan>
    </text>
  </g>
  <g>
    <line style="fill: none; fill-opacity:0; stroke-width: 2; stroke: #000000" x1="-737.688" y1="-449.112" x2="-675.691" y2="-449.415"/>
    <polyline style="fill: none; fill-opacity:0; stroke-width: 2; stroke: #000000" points="-683.431,-444.377 -673.455,-449.426 -683.48,-454.377 "/>
  </g>
  <g>
    <line style="fill: none; fill-opacity:0; stroke-width: 2; stroke: #000000" x1="-726.508" y1="-423.964" x2="-680.369" y2="-412.195"/>
    <polyline style="fill: none; fill-opacity:0; stroke-width: 2; stroke: #000000" points="-689.128,-409.269 -678.203,-411.643 -686.657,-418.959 "/>
  </g>
  <g>
    <line style="fill: none; fill-opacity:0; stroke-width: 2; stroke: #000000" x1="-743.278" y1="-405.102" x2="-668.91" y2="-373.587"/>
    <polyline style="fill: none; fill-opacity:0; stroke-width: 2; stroke: #000000" points="-678.009,-372.013 -666.851,-372.714 -674.107,-381.22 "/>
  </g>
  <g>
    <line style="fill: none; fill-opacity:0; stroke-width: 2; stroke: #000000" x1="-760.05" y1="-423.964" x2="-696.489" y2="-333.596"/>
    <polyline style="fill: none; fill-opacity:0; stroke-width: 2; stroke: #000000" points="-705.045,-337.07 -695.202,-331.767 -696.866,-342.823 "/>
  </g>
  <g>
    <polygon style="fill: #ffffff" points="-756.131,-386.12 -732.036,-361.954 -756.131,-337.788 -780.226,-361.954 "/>
    <polygon style="fill: none; fill-opacity:0; stroke-width: 2; stroke: #000000" points="-756.131,-386.12 -732.036,-361.954 -756.131,-337.788 -780.226,-361.954 "/>
    <text font-size="12.8" style="fill: #000000;text-anchor:middle;font-family:sans-serif;font-style:normal;font-weight:normal" x="-756.131" y="-358.054">
      <tspan x="-756.131" y="-358.054"></tspan>
    </text>
  </g>
  <g>
    <line style="fill: none; fill-opacity:0; stroke-width: 2; stroke: #000000" x1="-801.814" y1="-387.294" x2="-783.126" y2="-365.358"/>
    <polyline style="fill: none; fill-opacity:0; stroke-width: 2; stroke: #000000" points="-791.967,-368.026 -781.676,-363.656 -784.355,-374.511 "/>
  </g>
  <g>
    <line style="fill: none; fill-opacity:0; stroke-width: 2; stroke: #000000" x1="-750.108" y1="-380.078" x2="-694.713" y2="-282.895"/>
    <polyline style="fill: none; fill-opacity:0; stroke-width: 2; stroke: #000000" points="-702.901,-287.164 -693.605,-280.953 -694.214,-292.116 "/>
  </g>
  <g>
    <line style="fill: none; fill-opacity:0; stroke-width: 2; stroke: #000000" x1="-746.449" y1="-346.515" x2="-684.03" y2="-246.983"/>
    <polyline style="fill: none; fill-opacity:0; stroke-width: 2; stroke: #000000" points="-692.391,-250.904 -682.842,-245.088 -683.919,-256.217 "/>
  </g>
  <g>
    <line style="fill: none; fill-opacity:0; stroke-width: 2; stroke: #000000" x1="-756.13" y1="-337.788" x2="-661.125" y2="-200.034"/>
    <polyline style="fill: none; fill-opacity:0; stroke-width: 2; stroke: #000000" points="-669.649,-203.586 -659.856,-198.193 -661.417,-209.264 "/>
  </g>
  <g>
    <rect style="fill: #ffffff" x="-277.94" y="-474.454" width="154.4" height="38"/>
    <rect style="fill: none; fill-opacity:0; stroke-width: 2; stroke: #000000" x="-277.94" y="-474.454" width="154.4" height="38"/>
    <text font-size="12.8" style="fill: #000000;text-anchor:middle;font-family:sans-serif;font-style:normal;font-weight:normal" x="-200.74" y="-451.554">
      <tspan x="-200.74" y="-451.554">src/mining/merge.py</tspan>
    </text>
  </g>
  <g>
    <line style="fill: none; fill-opacity:0; stroke-width: 2; stroke: #000000" x1="-530.314" y1="-449.784" x2="-282.404" y2="-464.686"/>
    <polyline style="fill: none; fill-opacity:0; stroke-width: 2; stroke: #000000" points="-289.854,-459.229 -280.172,-464.82 -290.454,-469.211 "/>
  </g>
  <line style="fill: none; fill-opacity:0; stroke-width: 2; stroke-dasharray: 4; stroke: #000000" x1="-982.242" y1="-493.168" x2="-894.785" y2="-494.772"/>
  <g>
    <line style="fill: none; fill-opacity:0; stroke-width: 2; stroke: #000000" x1="-525.586" y1="-411.09" x2="-282.368" y2="-445.331"/>
    <polyline style="fill: none; fill-opacity:0; stroke-width: 2; stroke: #000000" points="-289.36,-439.297 -280.154,-445.642 -290.754,-449.199 "/>
  </g>
  <g>
    <rect style="fill: #ffffff" x="-304.012" y="-421.378" width="187.7" height="38"/>
    <rect style="fill: none; fill-opacity:0; stroke-width: 2; stroke: #000000" x="-304.012" y="-421.378" width="187.7" height="38"/>
    <text font-size="12.8" style="fill: #000000;text-anchor:middle;font-family:sans-serif;font-style:normal;font-weight:normal" x="-210.162" y="-398.478">
      <tspan x="-210.162" y="-398.478">src/mining/frequencies.py</tspan>
    </text>
  </g>
  <g>
    <line style="fill: none; fill-opacity:0; stroke-width: 2; stroke: #000000" x1="-543.666" y1="-371.842" x2="-308.448" y2="-401.813"/>
    <polyline style="fill: none; fill-opacity:0; stroke-width: 2; stroke: #000000" points="-315.518,-395.872 -306.23,-402.095 -316.782,-405.791 "/>
  </g>
  <g>
    <line style="fill: none; fill-opacity:0; stroke-width: 2; stroke: #000000" x1="-498.39" y1="-329.938" x2="-308.267" y2="-391.5"/>
    <polyline style="fill: none; fill-opacity:0; stroke-width: 2; stroke: #000000" points="-314.113,-384.352 -306.139,-392.189 -317.193,-393.865 "/>
  </g>
  <g>
    <rect style="fill: #ffffff" x="-308.34" y="-366.614" width="219.85" height="38"/>
    <rect style="fill: none; fill-opacity:0; stroke-width: 2; stroke: #000000" x="-308.34" y="-366.614" width="219.85" height="38"/>
    <text font-size="12.8" style="fill: #000000;text-anchor:middle;font-family:sans-serif;font-style:normal;font-weight:normal" x="-198.415" y="-343.714">
      <tspan x="-198.415" y="-343.714">src/mining/backlinksMapper.py</tspan>
    </text>
  </g>
  <g>
    <line style="fill: none; fill-opacity:0; stroke-width: 2; stroke: #000000" x1="-501.474" y1="-279.01" x2="-312.554" y2="-346.117"/>
    <polyline style="fill: none; fill-opacity:0; stroke-width: 2; stroke: #000000" points="-318.197,-338.807 -310.447,-346.866 -321.544,-348.23 "/>
  </g>
  <g>
    <rect style="fill: #ffffff" x="-303.172" y="-321.512" width="214.75" height="38"/>
    <rect style="fill: none; fill-opacity:0; stroke-width: 2; stroke: #000000" x="-303.172" y="-321.512" width="214.75" height="38"/>
    <text font-size="12.8" style="fill: #000000;text-anchor:middle;font-family:sans-serif;font-style:normal;font-weight:normal" x="-195.797" y="-298.612">
      <tspan x="-195.797" y="-298.612">src/mining/mergeBacklinks.py</tspan>
    </text>
  </g>
  <g>
    <rect style="fill: #ffffff" x="-295.548" y="-271.304" width="218.667" height="38"/>
    <rect style="fill: none; fill-opacity:0; stroke-width: 2; stroke: #000000" x="-295.548" y="-271.304" width="218.667" height="38"/>
    <text font-size="12.8" style="fill: #000000;text-anchor:middle;font-family:sans-serif;font-style:normal;font-weight:normal" x="-186.214" y="-248.404">
      <tspan x="-186.214" y="-248.404">src/mining/mergeMapping.py</tspan>
    </text>
  </g>
  <g>
    <line style="fill: none; fill-opacity:0; stroke-width: 2; stroke: #000000" x1="-437.454" y1="-243.194" x2="-307.263" y2="-300.705"/>
    <polyline style="fill: none; fill-opacity:0; stroke-width: 2; stroke: #000000" points="-312.344,-292.994 -305.217,-301.608 -316.385,-302.141 "/>
  </g>
  <g>
    <line style="fill: none; fill-opacity:0; stroke-width: 2; stroke: #000000" x1="-494.936" y1="-196.352" x2="-299.854" y2="-251.096"/>
    <polyline style="fill: none; fill-opacity:0; stroke-width: 2; stroke: #000000" points="-305.978,-244.184 -297.701,-251.7 -308.68,-253.812 "/>
  </g>
  <g>
    <rect style="fill: #ffffff" x="-289.738" y="-219.876" width="204.8" height="38"/>
    <rect style="fill: none; fill-opacity:0; stroke-width: 2; stroke: #000000" x="-289.738" y="-219.876" width="204.8" height="38"/>
    <text font-size="12.8" style="fill: #000000;text-anchor:middle;font-family:sans-serif;font-style:normal;font-weight:normal" x="-187.338" y="-196.976">
      <tspan x="-187.338" y="-196.976">src/mining/termCoverage.py</tspan>
    </text>
  </g>
  <g>
    <line style="fill: none; fill-opacity:0; stroke-width: 2; stroke: #000000" x1="-506.744" y1="-153.202" x2="-294.106" y2="-199.916"/>
    <polyline style="fill: none; fill-opacity:0; stroke-width: 2; stroke: #000000" points="-300.616,-193.367 -291.922,-200.396 -302.762,-203.134 "/>
  </g>
  <g>
    <line style="fill: none; fill-opacity:0; stroke-width: 2; stroke: #000000" x1="-1180.81" y1="-269.592" x2="-894.535" y2="-385.614"/>
    <polyline style="fill: none; fill-opacity:0; stroke-width: 2; stroke: #000000" points="-899.852,-378.064 -892.462,-386.454 -903.608,-387.332 "/>
  </g>
  <g>
    <rect style="fill: #ffffff" x="-940.832" y="-44.309" width="413.574" height="38"/>
    <rect style="fill: none; fill-opacity:0; stroke-width: 2; stroke: #000000" x="-940.832" y="-44.309" width="413.574" height="38"/>
    <text font-size="12.8" style="fill: #000000;text-anchor:middle;font-family:sans-serif;font-style:normal;font-weight:normal" x="-734.045" y="-21.409">
      <tspan x="-734.045" y="-21.409">Src/integrate/Makefile</tspan>
    </text>
  </g>
  <g>
    <path style="fill: #ffffff" d="M -909.129 13.9136 L -844.429,13.9136 C -835.496,13.9136 -828.254,18.8384 -828.254,24.9136 C -828.254,30.9887 -835.496,35.9136 -844.429,35.9136 L -909.129,35.9136 C -918.062,35.9136 -925.304,30.9887 -925.304,24.9136 C -925.304,18.8384 -918.062,13.9136 -909.129,13.9136z"/>
    <path style="fill: none; fill-opacity:0; stroke-width: 2; stroke: #000000" d="M -909.129 13.9136 L -844.429,13.9136 C -835.496,13.9136 -828.254,18.8384 -828.254,24.9136 C -828.254,30.9887 -835.496,35.9136 -844.429,35.9136 L -909.129,35.9136 C -918.062,35.9136 -925.304,30.9887 -925.304,24.9136 C -925.304,18.8384 -918.062,13.9136 -909.129,13.9136"/>
    <text font-size="12.8" style="fill: #000000;text-anchor:middle;font-family:sans-serif;font-style:normal;font-weight:normal" x="-876.779" y="28.9136">
      <tspan x="-876.779" y="28.9136">integrate</tspan>
    </text>
  </g>
  <g>
    <polygon style="fill: #ffffff" points="-758.5,11.462 -736.856,37.0895 -758.5,62.717 -780.144,37.0895 "/>
    <polygon style="fill: none; fill-opacity:0; stroke-width: 2; stroke: #000000" points="-758.5,11.462 -736.856,37.0895 -758.5,62.717 -780.144,37.0895 "/>
    <text font-size="12.8" style="fill: #000000;text-anchor:middle;font-family:sans-serif;font-style:normal;font-weight:normal" x="-758.5" y="40.9895">
      <tspan x="-758.5" y="40.9895"></tspan>
    </text>
  </g>
  <g>
    <line style="fill: none; fill-opacity:0; stroke-width: 2; stroke: #000000" x1="-828.254" y1="24.9136" x2="-784.479" y2="35.9922"/>
    <polyline style="fill: none; fill-opacity:0; stroke-width: 2; stroke: #000000" points="-793.233,38.9345 -782.312,36.5408 -790.779,29.2401 "/>
  </g>
  <g>
    <path style="fill: #ffffff" d="M -658.356 8.30316 L -553.006,8.30316 C -538.461,8.30316 -526.669,15.1224 -526.669,23.5343 C -526.669,31.9463 -538.461,38.7655 -553.006,38.7655 L -658.356,38.7655 C -672.902,38.7655 -684.694,31.9463 -684.694,23.5343 C -684.694,15.1224 -672.902,8.30316 -658.356,8.30316z"/>
    <path style="fill: none; fill-opacity:0; stroke-width: 2; stroke: #000000" d="M -658.356 8.30316 L -553.006,8.30316 C -538.461,8.30316 -526.669,15.1224 -526.669,23.5343 C -526.669,31.9463 -538.461,38.7655 -553.006,38.7655 L -658.356,38.7655 C -672.902,38.7655 -684.694,31.9463 -684.694,23.5343 C -684.694,15.1224 -672.902,8.30316 -658.356,8.30316"/>
    <text font-size="12.8" style="fill: #000000;text-anchor:middle;font-family:sans-serif;font-style:normal;font-weight:normal" x="-605.681" y="27.5343">
      <tspan x="-605.681" y="27.5343">coverageTables</tspan>
    </text>
  </g>
  <g>
    <path style="fill: #ffffff" d="M -661.371 52.5598 L -514.871,52.5598 C -494.644,52.5598 -478.246,58.0681 -478.246,64.863 C -478.246,71.6579 -494.644,77.1663 -514.871,77.1663 L -661.371,77.1663 C -681.598,77.1663 -697.996,71.6579 -697.996,64.863 C -697.996,58.0681 -681.598,52.5598 -661.371,52.5598z"/>
    <path style="fill: none; fill-opacity:0; stroke-width: 2; stroke: #000000" d="M -661.371 52.5598 L -514.871,52.5598 C -494.644,52.5598 -478.246,58.0681 -478.246,64.863 C -478.246,71.6579 -494.644,77.1663 -514.871,77.1663 L -661.371,77.1663 C -681.598,77.1663 -697.996,71.6579 -697.996,64.863 C -697.996,58.0681 -681.598,52.5598 -661.371,52.5598"/>
    <text font-size="12.8" style="fill: #000000;text-anchor:middle;font-family:sans-serif;font-style:normal;font-weight:normal" x="-588.121" y="68.863">
      <tspan x="-588.121" y="68.863">nonProfileFrequencies</tspan>
    </text>
  </g>
  <g>
    <path style="fill: #ffffff" d="M -651.358 93.6208 L -563.758,93.6208 C -551.663,93.6208 -541.858,98.5457 -541.858,104.621 C -541.858,110.696 -551.663,115.621 -563.758,115.621 L -651.358,115.621 C -663.453,115.621 -673.258,110.696 -673.258,104.621 C -673.258,98.5457 -663.453,93.6208 -651.358,93.6208z"/>
    <path style="fill: none; fill-opacity:0; stroke-width: 2; stroke: #000000" d="M -651.358 93.6208 L -563.758,93.6208 C -551.663,93.6208 -541.858,98.5457 -541.858,104.621 C -541.858,110.696 -551.663,115.621 -563.758,115.621 L -651.358,115.621 C -663.453,115.621 -673.258,110.696 -673.258,104.621 C -673.258,98.5457 -663.453,93.6208 -651.358,93.6208"/>
    <text font-size="12.8" style="fill: #000000;text-anchor:middle;font-family:sans-serif;font-style:normal;font-weight:normal" x="-607.558" y="108.621">
      <tspan x="-607.558" y="108.621">uniqueTerms</tspan>
    </text>
  </g>
  <g>
    <line style="fill: none; fill-opacity:0; stroke-width: 2; stroke: #000000" x1="-747.678" y1="24.2758" x2="-689.166" y2="23.587"/>
    <polyline style="fill: none; fill-opacity:0; stroke-width: 2; stroke: #000000" points="-696.87,28.6781 -686.93,23.5607 -696.988,18.6788 "/>
  </g>
  <g>
    <line style="fill: none; fill-opacity:0; stroke-width: 2; stroke: #000000" x1="-742.185" y1="44.5788" x2="-702.06" y2="62.9975"/>
    <polyline style="fill: none; fill-opacity:0; stroke-width: 2; stroke: #000000" points="-711.202,64.3026 -700.028,63.9303 -707.03,55.2144 "/>
  </g>
  <g>
    <line style="fill: none; fill-opacity:0; stroke-width: 2; stroke: #000000" x1="-753.088" y1="56.3102" x2="-677.084" y2="102.305"/>
    <polyline style="fill: none; fill-opacity:0; stroke-width: 2; stroke: #000000" points="-686.315,102.563 -675.171,103.463 -681.138,94.008 "/>
  </g>
  <line style="fill: none; fill-opacity:0; stroke-width: 2; stroke-dasharray: 4; stroke: #000000" x1="-1043.36" y1="-471.968" x2="-940.832" y2="-34.809"/>
  <g>
    <line style="fill: none; fill-opacity:0; stroke-width: 2; stroke: #000000" x1="-526.668" y1="23.5344" x2="-364.18" y2="21.4807"/>
    <polyline style="fill: none; fill-opacity:0; stroke-width: 2; stroke: #000000" points="-371.88,26.5784 -361.944,21.4525 -372.006,16.5792 "/>
  </g>
  <g>
    <line style="fill: none; fill-opacity:0; stroke-width: 2; stroke: #000000" x1="-477.889" y1="64.7773" x2="-391.372" y2="64.7101"/>
    <polyline style="fill: none; fill-opacity:0; stroke-width: 2; stroke: #000000" points="-399.132,69.7161 -389.136,64.7083 -399.14,59.7161 "/>
  </g>
  <g>
    <line style="fill: none; fill-opacity:0; stroke-width: 2; stroke: #000000" x1="-541.858" y1="104.621" x2="-358.762" y2="115.463"/>
    <polyline style="fill: none; fill-opacity:0; stroke-width: 2; stroke: #000000" points="-366.808,119.995 -356.53,115.595 -366.217,110.012 "/>
  </g>
  <g>
    <line style="fill: none; fill-opacity:0; stroke-width: 2; stroke: #000000" x1="-144.809" y1="116.193" x2="-128.343" y2="116.266"/>
    <polyline style="fill: none; fill-opacity:0; stroke-width: 2; stroke: #000000" points="-136.129,121.231 -126.107,116.276 -136.085,111.232 "/>
  </g>
  <g>
    <rect style="fill: #ffffff" x="-359.708" y="-7.07574" width="226.9" height="38"/>
    <rect style="fill: none; fill-opacity:0; stroke-width: 2; stroke: #000000" x="-359.708" y="-7.07574" width="226.9" height="38"/>
    <text font-size="12.8" style="fill: #000000;text-anchor:middle;font-family:sans-serif;font-style:normal;font-weight:normal" x="-246.258" y="15.8243">
      <tspan x="-246.258" y="15.8243">src/integrate/TermsCoverage.py</tspan>
    </text>
  </g>
  <g>
    <rect style="fill: #ffffff" x="-386.9" y="45.7066" width="268.25" height="38"/>
    <rect style="fill: none; fill-opacity:0; stroke-width: 2; stroke: #000000" x="-386.9" y="45.7066" width="268.25" height="38"/>
    <text font-size="12.8" style="fill: #000000;text-anchor:middle;font-family:sans-serif;font-style:normal;font-weight:normal" x="-252.775" y="68.6066">
      <tspan x="-252.775" y="68.6066">src/integrate/nonProfileFrequencies.py</tspan>
    </text>
  </g>
  <g>
    <rect style="fill: #ffffff" x="-354.298" y="96.7269" width="209.35" height="38"/>
    <rect style="fill: none; fill-opacity:0; stroke-width: 2; stroke: #000000" x="-354.298" y="96.7269" width="209.35" height="38"/>
    <text font-size="12.8" style="fill: #000000;text-anchor:middle;font-family:sans-serif;font-style:normal;font-weight:normal" x="-249.623" y="119.627">
      <tspan x="-249.623" y="119.627">src/integrate/uniqueTerms.py</tspan>
    </text>
  </g>
  <g>
    <rect style="fill: #ffffff" x="-122.869" y="97.7126" width="190" height="38"/>
    <rect style="fill: none; fill-opacity:0; stroke-width: 2; stroke: #000000" x="-122.869" y="97.7126" width="190" height="38"/>
    <text font-size="12.8" style="fill: #000000;text-anchor:middle;font-family:sans-serif;font-style:normal;font-weight:normal" x="-27.8686" y="120.613">
      <tspan x="-27.8686" y="120.613">src/integrate/constants.py</tspan>
    </text>
  </g>
  <line style="fill: none; fill-opacity:0; stroke-width: 2; stroke: #000000" x1="-1364.97" y1="-237.578" x2="-1341.57" y2="-237.32"/>
  <line style="fill: none; fill-opacity:0; stroke-width: 2; stroke: #000000" x1="-1352.4" y1="-156.52" x2="-1328.86" y2="-157.032"/>
  <g>
    <line style="fill: none; fill-opacity:0; stroke-width: 2; stroke: #000000" x1="-1202.13" y1="44.8077" x2="-689.678" y2="26.5302"/>
    <polyline style="fill: none; fill-opacity:0; stroke-width: 2; stroke: #000000" points="-697.259,31.8038 -687.443,26.4505 -697.615,21.8101 "/>
  </g>
  <g>
    <line style="fill: none; fill-opacity:0; stroke-width: 2; stroke: #000000" x1="-1175.21" y1="88.9028" x2="-701.036" y2="69.4866"/>
    <polyline style="fill: none; fill-opacity:0; stroke-width: 2; stroke: #000000" points="-708.589,74.8 -698.802,69.3951 -708.998,64.8084 "/>
  </g>
</svg>
