<?xml version="1.0" encoding="UTF-8" standalone="no"?>
<!DOCTYPE svg PUBLIC "-//W3C//DTD SVG 1.0//EN" "http://www.w3.org/TR/2001/PR-SVG-20010719/DTD/svg10.dtd">
<svg width="96cm" height="53cm" viewBox="-1474 -622 1915 1059" xmlns="http://www.w3.org/2000/svg" xmlns:xlink="http://www.w3.org/1999/xlink">
  <g>
    <rect style="fill: none; fill-opacity:0; stroke-width: 2; stroke-dasharray: 20; stroke: #000000" x="-525.396" y="-620.124" width="465.723" height="419.67"/>
    <text font-size="12.8" style="fill: #000000;text-anchor:middle;font-family:sans-serif;font-style:normal;font-weight:normal" x="-292.534" y="-406.389">
      <tspan x="-292.534" y="-406.389"></tspan>
    </text>
  </g>
  <g>
    <rect style="fill: none; fill-opacity:0; stroke-width: 2; stroke-dasharray: 20; stroke: #000000" x="-540.964" y="77.164" width="454.048" height="191.7"/>
    <text font-size="12.8" style="fill: #000000;text-anchor:middle;font-family:sans-serif;font-style:normal;font-weight:normal" x="-313.94" y="176.914">
      <tspan x="-313.94" y="176.914"></tspan>
    </text>
  </g>
  <g>
    <rect style="fill: none; fill-opacity:0; stroke-width: 2; stroke-dasharray: 20; stroke: #000000" x="-577.456" y="-143.373" width="482.755" height="192.7"/>
    <text font-size="12.8" style="fill: #000000;text-anchor:middle;font-family:sans-serif;font-style:normal;font-weight:normal" x="-336.078" y="-43.1234">
      <tspan x="-336.078" y="-43.1234"></tspan>
    </text>
  </g>
  <g>
    <rect style="fill: none; fill-opacity:0; stroke-width: 2; stroke-dasharray: 20; stroke: #000000" x="-1472.2" y="-309.388" width="398.746" height="583.728"/>
    <text font-size="12.8" style="fill: #000000;text-anchor:middle;font-family:sans-serif;font-style:normal;font-weight:normal" x="-1272.83" y="-13.6239">
      <tspan x="-1272.83" y="-13.6239"></tspan>
    </text>
  </g>
  <g>
    <rect style="fill: #ffffff" x="-1433.93" y="-281.164" width="314.349" height="40.6766"/>
    <rect style="fill: none; fill-opacity:0; stroke-width: 2; stroke: #000000" x="-1433.93" y="-281.164" width="314.349" height="40.6766"/>
    <text font-size="12.8" style="fill: #000000;text-anchor:middle;font-family:sans-serif;font-style:normal;font-weight:normal" x="-1276.75" y="-256.926">
      <tspan x="-1276.75" y="-256.926">Makefile</tspan>
    </text>
  </g>
  <g>
    <path style="fill: #ffffff" d="M -1434.69 -205.068 L -1340.99,-205.068 L -1322.25,-194.068 L -1340.99,-183.068 L -1434.69,-183.068 L -1453.43,-194.068 L -1434.69,-205.068z"/>
    <path style="fill: none; fill-opacity:0; stroke-width: 2; stroke: #000000" d="M -1434.69 -205.068 L -1340.99,-205.068 L -1322.25,-194.068 L -1340.99,-183.068 L -1434.69,-183.068 L -1453.43,-194.068 L -1434.69,-205.068"/>
    <text font-size="12.8" style="fill: #000000;text-anchor:middle;font-family:sans-serif;font-style:normal;font-weight:normal" x="-1387.84" y="-190.068">
      <tspan x="-1387.84" y="-190.068">OnlineBoooks</tspan>
    </text>
  </g>
  <g>
    <path style="fill: #ffffff" d="M -1236.62 -186.61 L -1168.87,-186.61 C -1159.51,-186.61 -1151.93,-181.686 -1151.93,-175.61 C -1151.93,-169.535 -1159.51,-164.61 -1168.87,-164.61 L -1236.62,-164.61 C -1245.97,-164.61 -1253.55,-169.535 -1253.55,-175.61 C -1253.55,-181.686 -1245.97,-186.61 -1236.62,-186.61z"/>
    <path style="fill: none; fill-opacity:0; stroke-width: 2; stroke: #000000" d="M -1236.62 -186.61 L -1168.87,-186.61 C -1159.51,-186.61 -1151.93,-181.686 -1151.93,-175.61 C -1151.93,-169.535 -1159.51,-164.61 -1168.87,-164.61 L -1236.62,-164.61 C -1245.97,-164.61 -1253.55,-169.535 -1253.55,-175.61 C -1253.55,-181.686 -1245.97,-186.61 -1236.62,-186.61"/>
    <text font-size="12.8" style="fill: #000000;text-anchor:middle;font-family:sans-serif;font-style:normal;font-weight:normal" x="-1202.74" y="-171.61">
      <tspan x="-1202.74" y="-171.61">bootstrap</tspan>
    </text>
  </g>
  <g>
    <rect style="fill: #ffffff" x="-866.67" y="-461.082" width="129" height="38"/>
    <rect style="fill: none; fill-opacity:0; stroke-width: 2; stroke: #000000" x="-866.67" y="-461.082" width="129" height="38"/>
    <text font-size="12.8" style="fill: #000000;text-anchor:middle;font-family:sans-serif;font-style:normal;font-weight:normal" x="-802.17" y="-438.182">
      <tspan x="-802.17" y="-438.182">src/bootstrap.py</tspan>
    </text>
  </g>
  <g>
    <line style="fill: none; fill-opacity:0; stroke-width: 2; stroke: #000000" x1="-1151.93" y1="-175.61" x2="-869.938" y2="-439.029"/>
    <polyline style="fill: none; fill-opacity:0; stroke-width: 2; stroke: #000000" points="-872.199,-430.075 -868.304,-440.556 -879.025,-437.383 "/>
  </g>
  <g>
    <path style="fill: #ffffff" d="M -1421.74 -235.512 L -1351.34,-235.512 L -1337.26,-222.977 L -1351.34,-210.441 L -1421.74,-210.441 L -1435.82,-222.977 L -1421.74,-235.512z"/>
    <path style="fill: none; fill-opacity:0; stroke-width: 2; stroke: #000000" d="M -1421.74 -235.512 L -1351.34,-235.512 L -1337.26,-222.977 L -1351.34,-210.441 L -1421.74,-210.441 L -1435.82,-222.977 L -1421.74,-235.512"/>
    <text font-size="12.8" style="fill: #000000;text-anchor:middle;font-family:sans-serif;font-style:normal;font-weight:normal" x="-1386.54" y="-218.977">
      <tspan x="-1386.54" y="-218.977">INDEXKEY</tspan>
    </text>
  </g>
  <g>
    <path style="fill: #ffffff" d="M -1251.01 -148.303 L -1140.56,-148.303 C -1125.31,-148.303 -1112.94,-143.378 -1112.94,-137.303 C -1112.94,-131.227 -1125.31,-126.303 -1140.56,-126.303 L -1251.01,-126.303 C -1266.26,-126.303 -1278.62,-131.227 -1278.62,-137.303 C -1278.62,-143.378 -1266.26,-148.303 -1251.01,-148.303z"/>
    <path style="fill: none; fill-opacity:0; stroke-width: 2; stroke: #000000" d="M -1251.01 -148.303 L -1140.56,-148.303 C -1125.31,-148.303 -1112.94,-143.378 -1112.94,-137.303 C -1112.94,-131.227 -1125.31,-126.303 -1140.56,-126.303 L -1251.01,-126.303 C -1266.26,-126.303 -1278.62,-131.227 -1278.62,-137.303 C -1278.62,-143.378 -1266.26,-148.303 -1251.01,-148.303"/>
    <text font-size="12.8" style="fill: #000000;text-anchor:middle;font-family:sans-serif;font-style:normal;font-weight:normal" x="-1195.78" y="-133.303">
      <tspan x="-1195.78" y="-133.303">download-books</tspan>
    </text>
  </g>
  <g>
    <path style="fill: #ffffff" d="M -1259.64 -18.6936 L -1188.54,-18.6936 C -1178.72,-18.6936 -1170.77,-13.7687 -1170.77,-7.69356 C -1170.77,-1.61843 -1178.72,3.30644 -1188.54,3.30644 L -1259.64,3.30644 C -1269.46,3.30644 -1277.42,-1.61843 -1277.42,-7.69356 C -1277.42,-13.7687 -1269.46,-18.6936 -1259.64,-18.6936z"/>
    <path style="fill: none; fill-opacity:0; stroke-width: 2; stroke: #000000" d="M -1259.64 -18.6936 L -1188.54,-18.6936 C -1178.72,-18.6936 -1170.77,-13.7687 -1170.77,-7.69356 C -1170.77,-1.61843 -1178.72,3.30644 -1188.54,3.30644 L -1259.64,3.30644 C -1269.46,3.30644 -1277.42,-1.61843 -1277.42,-7.69356 C -1277.42,-13.7687 -1269.46,-18.6936 -1259.64,-18.6936"/>
    <text font-size="12.8" style="fill: #000000;text-anchor:middle;font-family:sans-serif;font-style:normal;font-weight:normal" x="-1224.09" y="-3.69356">
      <tspan x="-1224.09" y="-3.69356">link-books</tspan>
    </text>
  </g>
  <g>
    <path style="fill: #ffffff" d="M -1255.17 -225.562 L -1109.47,-225.562 C -1089.35,-225.562 -1073.05,-220.637 -1073.05,-214.562 C -1073.05,-208.487 -1089.35,-203.562 -1109.47,-203.562 L -1255.17,-203.562 C -1275.29,-203.562 -1291.6,-208.487 -1291.6,-214.562 C -1291.6,-220.637 -1275.29,-225.562 -1255.17,-225.562z"/>
    <path style="fill: none; fill-opacity:0; stroke-width: 2; stroke: #000000" d="M -1255.17 -225.562 L -1109.47,-225.562 C -1089.35,-225.562 -1073.05,-220.637 -1073.05,-214.562 C -1073.05,-208.487 -1089.35,-203.562 -1109.47,-203.562 L -1255.17,-203.562 C -1275.29,-203.562 -1291.6,-208.487 -1291.6,-214.562 C -1291.6,-220.637 -1275.29,-225.562 -1255.17,-225.562"/>
    <text font-size="12.8" style="fill: #000000;text-anchor:middle;font-family:sans-serif;font-style:normal;font-weight:normal" x="-1182.32" y="-210.562">
      <tspan x="-1182.32" y="-210.562">download-googledocs</tspan>
    </text>
  </g>
  <g>
    <path style="fill: #ffffff" d="M -811.345 -175.534 L -726.679,-175.534 C -714.989,-175.534 -705.512,-170.609 -705.512,-164.534 C -705.512,-158.459 -714.989,-153.534 -726.679,-153.534 L -811.345,-153.534 C -823.035,-153.534 -832.512,-158.459 -832.512,-164.534 C -832.512,-170.609 -823.035,-175.534 -811.345,-175.534z"/>
    <path style="fill: none; fill-opacity:0; stroke-width: 2; stroke: #000000" d="M -811.345 -175.534 L -726.679,-175.534 C -714.989,-175.534 -705.512,-170.609 -705.512,-164.534 C -705.512,-158.459 -714.989,-153.534 -726.679,-153.534 L -811.345,-153.534 C -823.035,-153.534 -832.512,-158.459 -832.512,-164.534 C -832.512,-170.609 -823.035,-175.534 -811.345,-175.534"/>
    <text font-size="12.8" style="fill: #000000;text-anchor:middle;font-family:sans-serif;font-style:normal;font-weight:normal" x="-769.012" y="-160.534">
      <tspan x="-769.012" y="-160.534">mine</tspan>
    </text>
  </g>
  <g>
    <path style="fill: #ffffff" d="M -925.643 72.37 L -870.092,72.37 C -862.423,72.37 -856.205,77.2949 -856.205,83.37 C -856.205,89.4451 -862.423,94.37 -870.092,94.37 L -925.643,94.37 C -933.312,94.37 -939.53,89.4451 -939.53,83.37 C -939.53,77.2949 -933.312,72.37 -925.643,72.37z"/>
    <path style="fill: none; fill-opacity:0; stroke-width: 2; stroke: #000000" d="M -925.643 72.37 L -870.092,72.37 C -862.423,72.37 -856.205,77.2949 -856.205,83.37 C -856.205,89.4451 -862.423,94.37 -870.092,94.37 L -925.643,94.37 C -933.312,94.37 -939.53,89.4451 -939.53,83.37 C -939.53,77.2949 -933.312,72.37 -925.643,72.37"/>
    <text font-size="12.8" style="fill: #000000;text-anchor:middle;font-family:sans-serif;font-style:normal;font-weight:normal" x="-897.867" y="87.37">
      <tspan x="-897.867" y="87.37">analyze</tspan>
    </text>
  </g>
  <g>
    <path style="fill: #ffffff" d="M -877.995 34.0856 L -799.695,34.0856 C -788.884,34.0856 -780.12,39.0979 -780.12,45.2809 C -780.12,51.4639 -788.884,56.4762 -799.695,56.4762 L -877.995,56.4762 C -888.806,56.4762 -897.57,51.4639 -897.57,45.2809 C -897.57,39.0979 -888.806,34.0856 -877.995,34.0856z"/>
    <path style="fill: none; fill-opacity:0; stroke-width: 2; stroke: #000000" d="M -877.995 34.0856 L -799.695,34.0856 C -788.884,34.0856 -780.12,39.0979 -780.12,45.2809 C -780.12,51.4639 -788.884,56.4762 -799.695,56.4762 L -877.995,56.4762 C -888.806,56.4762 -897.57,51.4639 -897.57,45.2809 C -897.57,39.0979 -888.806,34.0856 -877.995,34.0856"/>
    <text font-size="12.8" style="fill: #000000;text-anchor:middle;font-family:sans-serif;font-style:normal;font-weight:normal" x="-838.845" y="49.2809">
      <tspan x="-838.845" y="49.2809">from-cache</tspan>
    </text>
  </g>
  <g>
    <path style="fill: #ffffff" d="M -918.134 107.489 L -856.484,107.489 C -847.971,107.489 -841.071,113.294 -841.071,120.456 C -841.071,127.617 -847.971,133.423 -856.484,133.423 L -918.134,133.423 C -926.646,133.423 -933.546,127.617 -933.546,120.456 C -933.546,113.294 -926.646,107.489 -918.134,107.489z"/>
    <path style="fill: none; fill-opacity:0; stroke-width: 2; stroke: #000000" d="M -918.134 107.489 L -856.484,107.489 C -847.971,107.489 -841.071,113.294 -841.071,120.456 C -841.071,127.617 -847.971,133.423 -856.484,133.423 L -918.134,133.423 C -926.646,133.423 -933.546,127.617 -933.546,120.456 C -933.546,113.294 -926.646,107.489 -918.134,107.489"/>
    <text font-size="12.8" style="fill: #000000;text-anchor:middle;font-family:sans-serif;font-style:normal;font-weight:normal" x="-887.309" y="124.456">
      <tspan x="-887.309" y="124.456">to-cache</tspan>
    </text>
  </g>
  <g>
    <path style="fill: #ffffff" d="M -781.538 -138.718 L -722.488,-138.718 C -714.334,-138.718 -707.725,-132.224 -707.725,-124.213 C -707.725,-116.202 -714.334,-109.707 -722.488,-109.707 L -781.538,-109.707 C -789.691,-109.707 -796.3,-116.202 -796.3,-124.213 C -796.3,-132.224 -789.691,-138.718 -781.538,-138.718z"/>
    <path style="fill: none; fill-opacity:0; stroke-width: 2; stroke: #000000" d="M -781.538 -138.718 L -722.488,-138.718 C -714.334,-138.718 -707.725,-132.224 -707.725,-124.213 C -707.725,-116.202 -714.334,-109.707 -722.488,-109.707 L -781.538,-109.707 C -789.691,-109.707 -796.3,-116.202 -796.3,-124.213 C -796.3,-132.224 -789.691,-138.718 -781.538,-138.718"/>
    <text font-size="12.8" style="fill: #000000;text-anchor:middle;font-family:sans-serif;font-style:normal;font-weight:normal" x="-752.013" y="-120.213">
      <tspan x="-752.013" y="-120.213">backlink</tspan>
    </text>
  </g>
  <g>
    <path style="fill: #ffffff" d="M -1273.25 28.0555 L -1167.9,28.0555 C -1153.35,28.0555 -1141.56,32.9804 -1141.56,39.0555 C -1141.56,45.1307 -1153.35,50.0555 -1167.9,50.0555 L -1273.25,50.0555 C -1287.79,50.0555 -1299.59,45.1307 -1299.59,39.0555 C -1299.59,32.9804 -1287.79,28.0555 -1273.25,28.0555z"/>
    <path style="fill: none; fill-opacity:0; stroke-width: 2; stroke: #000000" d="M -1273.25 28.0555 L -1167.9,28.0555 C -1153.35,28.0555 -1141.56,32.9804 -1141.56,39.0555 C -1141.56,45.1307 -1153.35,50.0555 -1167.9,50.0555 L -1273.25,50.0555 C -1287.79,50.0555 -1299.59,45.1307 -1299.59,39.0555 C -1299.59,32.9804 -1287.79,28.0555 -1273.25,28.0555"/>
    <text font-size="12.8" style="fill: #000000;text-anchor:middle;font-family:sans-serif;font-style:normal;font-weight:normal" x="-1220.57" y="43.0555">
      <tspan x="-1220.57" y="43.0555">coverageTables</tspan>
    </text>
  </g>
  <g>
    <path style="fill: #ffffff" d="M -895.501 -5.52438 L -749.001,-5.52438 C -728.774,-5.52438 -712.376,-0.599515 -712.376,5.47562 C -712.376,11.5508 -728.774,16.4756 -749.001,16.4756 L -895.501,16.4756 C -915.728,16.4756 -932.126,11.5508 -932.126,5.47562 C -932.126,-0.599515 -915.728,-5.52438 -895.501,-5.52438z"/>
    <path style="fill: none; fill-opacity:0; stroke-width: 2; stroke: #000000" d="M -895.501 -5.52438 L -749.001,-5.52438 C -728.774,-5.52438 -712.376,-0.599515 -712.376,5.47562 C -712.376,11.5508 -728.774,16.4756 -749.001,16.4756 L -895.501,16.4756 C -915.728,16.4756 -932.126,11.5508 -932.126,5.47562 C -932.126,-0.599515 -915.728,-5.52438 -895.501,-5.52438"/>
    <text font-size="12.8" style="fill: #000000;text-anchor:middle;font-family:sans-serif;font-style:normal;font-weight:normal" x="-822.251" y="9.47562">
      <tspan x="-822.251" y="9.47562">nonProfileFrequencies</tspan>
    </text>
  </g>
  <g>
    <path style="fill: #ffffff" d="M -1296.01 202.025 L -1255.56,202.025 C -1249.97,202.025 -1245.45,207.384 -1245.45,213.994 C -1245.45,220.604 -1249.97,225.963 -1255.56,225.963 L -1296.01,225.963 C -1301.59,225.963 -1306.12,220.604 -1306.12,213.994 C -1306.12,207.384 -1301.59,202.025 -1296.01,202.025z"/>
    <path style="fill: none; fill-opacity:0; stroke-width: 2; stroke: #000000" d="M -1296.01 202.025 L -1255.56,202.025 C -1249.97,202.025 -1245.45,207.384 -1245.45,213.994 C -1245.45,220.604 -1249.97,225.963 -1255.56,225.963 L -1296.01,225.963 C -1301.59,225.963 -1306.12,220.604 -1306.12,213.994 C -1306.12,207.384 -1301.59,202.025 -1296.01,202.025"/>
    <text font-size="12.8" style="fill: #000000;text-anchor:middle;font-family:sans-serif;font-style:normal;font-weight:normal" x="-1275.78" y="217.994">
      <tspan x="-1275.78" y="217.994">clean</tspan>
    </text>
  </g>
  <g>
    <rect style="fill: #ffffff" x="-739.404" y="-600.14" width="129.6" height="38"/>
    <rect style="fill: none; fill-opacity:0; stroke-width: 2; stroke: #000000" x="-739.404" y="-600.14" width="129.6" height="38"/>
    <text font-size="12.8" style="fill: #000000;text-anchor:middle;font-family:sans-serif;font-style:normal;font-weight:normal" x="-674.604" y="-577.24">
      <tspan x="-674.604" y="-577.24">src/Makefile.vars</tspan>
    </text>
  </g>
  <g>
    <rect style="fill: #ffffff" x="-872.844" y="-392.97" width="172.7" height="38"/>
    <rect style="fill: none; fill-opacity:0; stroke-width: 2; stroke: #000000" x="-872.844" y="-392.97" width="172.7" height="38"/>
    <text font-size="12.8" style="fill: #000000;text-anchor:middle;font-family:sans-serif;font-style:normal;font-weight:normal" x="-786.494" y="-370.07">
      <tspan x="-786.494" y="-370.07">src/misc/downloader.py</tspan>
    </text>
  </g>
  <g>
    <rect style="fill: #ffffff" x="-1075.1" y="397.896" width="185.75" height="38"/>
    <rect style="fill: none; fill-opacity:0; stroke-width: 2; stroke: #000000" x="-1075.1" y="397.896" width="185.75" height="38"/>
    <text font-size="12.8" style="fill: #000000;text-anchor:middle;font-family:sans-serif;font-style:normal;font-weight:normal" x="-982.227" y="420.796">
      <tspan x="-982.227" y="420.796">src/misc/downloadnltK.py</tspan>
    </text>
  </g>
  <g>
    <path style="fill: #ffffff" d="M -1345.76 235.115 L -1242.36,235.115 C -1228.09,235.115 -1216.51,240.04 -1216.51,246.115 C -1216.51,252.19 -1228.09,257.115 -1242.36,257.115 L -1345.76,257.115 C -1360.04,257.115 -1371.61,252.19 -1371.61,246.115 C -1371.61,240.04 -1360.04,235.115 -1345.76,235.115z"/>
    <path style="fill: none; fill-opacity:0; stroke-width: 2; stroke: #000000" d="M -1345.76 235.115 L -1242.36,235.115 C -1228.09,235.115 -1216.51,240.04 -1216.51,246.115 C -1216.51,252.19 -1228.09,257.115 -1242.36,257.115 L -1345.76,257.115 C -1360.04,257.115 -1371.61,252.19 -1371.61,246.115 C -1371.61,240.04 -1360.04,235.115 -1345.76,235.115"/>
    <text font-size="12.8" style="fill: #000000;text-anchor:middle;font-family:sans-serif;font-style:normal;font-weight:normal" x="-1294.06" y="250.115">
      <tspan x="-1294.06" y="250.115">download-deps</tspan>
    </text>
  </g>
  <line style="fill: none; fill-opacity:0; stroke-width: 2; stroke-dasharray: 4; stroke: #000000" x1="-816.338" y1="-250.308" x2="-683.175" y2="-561.135"/>
  <g>
    <polygon style="fill: #ffffff" points="-994.388,291.966 -964.448,313.968 -994.388,335.971 -1024.33,313.968 "/>
    <polygon style="fill: none; fill-opacity:0; stroke-width: 2; stroke: #000000" points="-994.388,291.966 -964.448,313.968 -994.388,335.971 -1024.33,313.968 "/>
    <text font-size="12.8" style="fill: #000000;text-anchor:middle;font-family:sans-serif;font-style:normal;font-weight:normal" x="-994.388" y="317.868">
      <tspan x="-994.388" y="317.868"></tspan>
    </text>
  </g>
  <g>
    <line style="fill: none; fill-opacity:0; stroke-width: 2; stroke: #000000" x1="-1216.51" y1="246.115" x2="-1028.54" y2="312.479"/>
    <polyline style="fill: none; fill-opacity:0; stroke-width: 2; stroke: #000000" points="-1037.53,314.609 -1026.44,313.224 -1034.2,305.18 "/>
  </g>
  <g>
    <line style="fill: none; fill-opacity:0; stroke-width: 2; stroke: #000000" x1="-994.388" y1="335.971" x2="-985.897" y2="392.469"/>
    <polyline style="fill: none; fill-opacity:0; stroke-width: 2; stroke: #000000" points="-991.996,385.535 -985.565,394.68 -982.107,384.048 "/>
  </g>
  <g>
    <line style="fill: none; fill-opacity:0; stroke-width: 2; stroke: #000000" x1="-1083.71" y1="-222.34" x2="-876.475" y2="-371.359"/>
    <polyline style="fill: none; fill-opacity:0; stroke-width: 2; stroke: #000000" points="-879.859,-362.767 -874.659,-372.665 -885.697,-370.886 "/>
  </g>
  <g>
    <rect style="fill: #ffffff" x="-533.208" y="83.0602" width="433.999" height="38"/>
    <rect style="fill: none; fill-opacity:0; stroke-width: 2; stroke: #000000" x="-533.208" y="83.0602" width="433.999" height="38"/>
    <text font-size="12.8" style="fill: #000000;text-anchor:middle;font-family:sans-serif;font-style:normal;font-weight:normal" x="-316.208" y="105.96">
      <tspan x="-316.208" y="105.96">src/analytics/Makefile</tspan>
    </text>
  </g>
  <g>
    <rect style="fill: #ffffff" x="57.885" y="191.194" width="331.7" height="38"/>
    <rect style="fill: none; fill-opacity:0; stroke-width: 2; stroke: #000000" x="57.885" y="191.194" width="331.7" height="38"/>
    <text font-size="12.8" style="fill: #000000;text-anchor:middle;font-family:sans-serif;font-style:normal;font-weight:normal" x="223.735" y="214.094">
      <tspan x="223.735" y="214.094">src/analytics/buildPopularScatteredTermsTable.R</tspan>
    </text>
  </g>
  <g>
    <rect style="fill: #ffffff" x="99.553" y="235.892" width="269.75" height="38"/>
    <rect style="fill: none; fill-opacity:0; stroke-width: 2; stroke: #000000" x="99.553" y="235.892" width="269.75" height="38"/>
    <text font-size="12.8" style="fill: #000000;text-anchor:middle;font-family:sans-serif;font-style:normal;font-weight:normal" x="234.428" y="258.792">
      <tspan x="234.428" y="258.792">src/analytics/buildPopularTermsTable.R</tspan>
    </text>
  </g>
  <g>
    <rect style="fill: #ffffff" x="150.283" y="333.512" width="186.676" height="38"/>
    <rect style="fill: none; fill-opacity:0; stroke-width: 2; stroke: #000000" x="150.283" y="333.512" width="186.676" height="38"/>
    <text font-size="12.8" style="fill: #000000;text-anchor:middle;font-family:sans-serif;font-style:normal;font-weight:normal" x="243.621" y="356.412">
      <tspan x="243.621" y="356.412">src/analytics/csv2tex.py</tspan>
    </text>
  </g>
  <g>
    <rect style="fill: #ffffff" x="-522.675" y="313.186" width="227.688" height="38"/>
    <rect style="fill: none; fill-opacity:0; stroke-width: 2; stroke: #000000" x="-522.675" y="313.186" width="227.688" height="38"/>
    <text font-size="12.8" style="fill: #000000;text-anchor:middle;font-family:sans-serif;font-style:normal;font-weight:normal" x="-408.831" y="336.086">
      <tspan x="-408.831" y="336.086">src/analytics/dependencies.R</tspan>
    </text>
  </g>
  <g>
    <rect style="fill: #ffffff" x="40.827" y="146.498" width="220.617" height="38"/>
    <rect style="fill: none; fill-opacity:0; stroke-width: 2; stroke: #000000" x="40.827" y="146.498" width="220.617" height="38"/>
    <text font-size="12.8" style="fill: #000000;text-anchor:middle;font-family:sans-serif;font-style:normal;font-weight:normal" x="151.136" y="169.398">
      <tspan x="151.136" y="169.398">src/analytics/frequencies.R</tspan>
    </text>
  </g>
  <g>
    <rect style="fill: #ffffff" x="117.201" y="285.388" width="244.659" height="38"/>
    <rect style="fill: none; fill-opacity:0; stroke-width: 2; stroke: #000000" x="117.201" y="285.388" width="244.659" height="38"/>
    <text font-size="12.8" style="fill: #000000;text-anchor:middle;font-family:sans-serif;font-style:normal;font-weight:normal" x="239.53" y="308.288">
      <tspan x="239.53" y="308.288">src/analytics/rank.R</tspan>
    </text>
  </g>
  <g>
    <path style="fill: #ffffff" d="M -479.589 141.896 L -424.039,141.896 C -416.369,141.896 -410.151,146.821 -410.151,152.896 C -410.151,158.971 -416.369,163.896 -424.039,163.896 L -479.589,163.896 C -487.258,163.896 -493.476,158.971 -493.476,152.896 C -493.476,146.821 -487.258,141.896 -479.589,141.896z"/>
    <path style="fill: none; fill-opacity:0; stroke-width: 2; stroke: #000000" d="M -479.589 141.896 L -424.039,141.896 C -416.369,141.896 -410.151,146.821 -410.151,152.896 C -410.151,158.971 -416.369,163.896 -424.039,163.896 L -479.589,163.896 C -487.258,163.896 -493.476,158.971 -493.476,152.896 C -493.476,146.821 -487.258,141.896 -479.589,141.896"/>
    <text font-size="12.8" style="fill: #000000;text-anchor:middle;font-family:sans-serif;font-style:normal;font-weight:normal" x="-451.814" y="156.896">
      <tspan x="-451.814" y="156.896">analyze</tspan>
    </text>
  </g>
  <g>
    <path style="fill: #ffffff" d="M -432.803 225.984 L -376.953,225.984 C -369.242,225.984 -362.991,230.909 -362.991,236.984 C -362.991,243.059 -369.242,247.984 -376.953,247.984 L -432.803,247.984 C -440.515,247.984 -446.766,243.059 -446.766,236.984 C -446.766,230.909 -440.515,225.984 -432.803,225.984z"/>
    <path style="fill: none; fill-opacity:0; stroke-width: 2; stroke: #000000" d="M -432.803 225.984 L -376.953,225.984 C -369.242,225.984 -362.991,230.909 -362.991,236.984 C -362.991,243.059 -369.242,247.984 -376.953,247.984 L -432.803,247.984 C -440.515,247.984 -446.766,243.059 -446.766,236.984 C -446.766,230.909 -440.515,225.984 -432.803,225.984"/>
    <text font-size="12.8" style="fill: #000000;text-anchor:middle;font-family:sans-serif;font-style:normal;font-weight:normal" x="-404.878" y="240.984">
      <tspan x="-404.878" y="240.984">prepare</tspan>
    </text>
  </g>
  <g>
    <line style="fill: none; fill-opacity:0; stroke-width: 2; stroke: #000000" x1="-971.933" y1="308.468" x2="-528.126" y2="327.161"/>
    <polyline style="fill: none; fill-opacity:0; stroke-width: 2; stroke: #000000" points="-536.093,331.83 -525.892,327.255 -535.673,321.839 "/>
  </g>
  <g>
    <line style="fill: none; fill-opacity:0; stroke-width: 2; stroke: #000000" x1="-405.377" y1="248.989" x2="-407.815" y2="307.718"/>
    <polyline style="fill: none; fill-opacity:0; stroke-width: 2; stroke: #000000" points="-412.489,299.753 -407.908,309.952 -402.497,300.168 "/>
  </g>
  <g>
    <path style="fill: #ffffff" d="M -250.629 146.282 L -169.879,146.282 C -158.729,146.282 -149.691,151.207 -149.691,157.282 C -149.691,163.357 -158.729,168.282 -169.879,168.282 L -250.629,168.282 C -261.778,168.282 -270.816,163.357 -270.816,157.282 C -270.816,151.207 -261.778,146.282 -250.629,146.282z"/>
    <path style="fill: none; fill-opacity:0; stroke-width: 2; stroke: #000000" d="M -250.629 146.282 L -169.879,146.282 C -158.729,146.282 -149.691,151.207 -149.691,157.282 C -149.691,163.357 -158.729,168.282 -169.879,168.282 L -250.629,168.282 C -261.778,168.282 -270.816,163.357 -270.816,157.282 C -270.816,151.207 -261.778,146.282 -250.629,146.282"/>
    <text font-size="12.8" style="fill: #000000;text-anchor:middle;font-family:sans-serif;font-style:normal;font-weight:normal" x="-210.254" y="161.282">
      <tspan x="-210.254" y="161.282">frequencies</tspan>
    </text>
  </g>
  <g>
    <path style="fill: #ffffff" d="M -244.071 185.74 L -189.171,185.74 C -181.591,185.74 -175.446,190.665 -175.446,196.74 C -175.446,202.815 -181.591,207.74 -189.171,207.74 L -244.071,207.74 C -251.651,207.74 -257.796,202.815 -257.796,196.74 C -257.796,190.665 -251.651,185.74 -244.071,185.74z"/>
    <path style="fill: none; fill-opacity:0; stroke-width: 2; stroke: #000000" d="M -244.071 185.74 L -189.171,185.74 C -181.591,185.74 -175.446,190.665 -175.446,196.74 C -175.446,202.815 -181.591,207.74 -189.171,207.74 L -244.071,207.74 C -251.651,207.74 -257.796,202.815 -257.796,196.74 C -257.796,190.665 -251.651,185.74 -244.071,185.74"/>
    <text font-size="12.8" style="fill: #000000;text-anchor:middle;font-family:sans-serif;font-style:normal;font-weight:normal" x="-216.621" y="200.74">
      <tspan x="-216.621" y="200.74">popular</tspan>
    </text>
  </g>
  <g>
    <path style="fill: #ffffff" d="M -225.271 219.476 L -198.971,219.476 C -195.34,219.476 -192.396,224.401 -192.396,230.476 C -192.396,236.551 -195.34,241.476 -198.971,241.476 L -225.271,241.476 C -228.902,241.476 -231.846,236.551 -231.846,230.476 C -231.846,224.401 -228.902,219.476 -225.271,219.476z"/>
    <path style="fill: none; fill-opacity:0; stroke-width: 2; stroke: #000000" d="M -225.271 219.476 L -198.971,219.476 C -195.34,219.476 -192.396,224.401 -192.396,230.476 C -192.396,236.551 -195.34,241.476 -198.971,241.476 L -225.271,241.476 C -228.902,241.476 -231.846,236.551 -231.846,230.476 C -231.846,224.401 -228.902,219.476 -225.271,219.476"/>
    <text font-size="12.8" style="fill: #000000;text-anchor:middle;font-family:sans-serif;font-style:normal;font-weight:normal" x="-212.121" y="234.476">
      <tspan x="-212.121" y="234.476">tex</tspan>
    </text>
  </g>
  <line style="fill: none; fill-opacity:0; stroke-width: 2; stroke-dasharray: 4; stroke: #000000" x1="-664.454" y1="-561.792" x2="-326.358" y2="82.7118"/>
  <g>
    <polygon style="fill: #ffffff" points="-334.535,155.846 -309.073,179.376 -334.535,202.906 -359.996,179.376 "/>
    <polygon style="fill: none; fill-opacity:0; stroke-width: 2; stroke: #000000" points="-334.535,155.846 -309.073,179.376 -334.535,202.906 -359.996,179.376 "/>
    <text font-size="12.8" style="fill: #000000;text-anchor:middle;font-family:sans-serif;font-style:normal;font-weight:normal" x="-334.535" y="183.276">
      <tspan x="-334.535" y="183.276"></tspan>
    </text>
  </g>
  <g>
    <line style="fill: none; fill-opacity:0; stroke-width: 2; stroke: #000000" x1="-410.152" y1="152.896" x2="-358.001" y2="171.158"/>
    <polyline style="fill: none; fill-opacity:0; stroke-width: 2; stroke: #000000" points="-366.981,173.311 -355.891,171.897 -363.676,163.873 "/>
  </g>
  <g>
    <line style="fill: none; fill-opacity:0; stroke-width: 2; stroke: #000000" x1="-328.17" y1="161.729" x2="-275.275" y2="157.628"/>
    <polyline style="fill: none; fill-opacity:0; stroke-width: 2; stroke: #000000" points="-282.629,163.213 -273.045,157.455 -283.402,153.243 "/>
  </g>
  <g>
    <line style="fill: none; fill-opacity:0; stroke-width: 2; stroke: #000000" x1="-315.44" y1="185.258" x2="-262.182" y2="195.866"/>
    <polyline style="fill: none; fill-opacity:0; stroke-width: 2; stroke: #000000" points="-270.773,199.253 -259.989,196.303 -268.82,189.446 "/>
  </g>
  <g>
    <line style="fill: none; fill-opacity:0; stroke-width: 2; stroke: #000000" x1="-334.536" y1="202.906" x2="-236.165" y2="229.316"/>
    <polyline style="fill: none; fill-opacity:0; stroke-width: 2; stroke: #000000" points="-244.96,232.132 -234.006,229.896 -242.367,222.474 "/>
  </g>
  <g>
    <line style="fill: none; fill-opacity:0; stroke-width: 2; stroke: #000000" x1="-149.692" y1="157.282" x2="36.359" y2="165.305"/>
    <polyline style="fill: none; fill-opacity:0; stroke-width: 2; stroke: #000000" points="28.3869,169.966 38.593,165.402 28.8177,159.975 "/>
  </g>
  <g>
    <line style="fill: none; fill-opacity:0; stroke-width: 2; stroke: #000000" x1="-192.397" y1="230.476" x2="146.07" y2="351.012"/>
    <polyline style="fill: none; fill-opacity:0; stroke-width: 2; stroke: #000000" points="137.079,353.117 148.177,351.762 140.433,343.697 "/>
  </g>
  <g>
    <polygon style="fill: #ffffff" points="-23.8837,188.166 0.469568,212.203 -23.8837,236.241 -48.237,212.203 "/>
    <polygon style="fill: none; fill-opacity:0; stroke-width: 2; stroke: #000000" points="-23.8837,188.166 0.469568,212.203 -23.8837,236.241 -48.237,212.203 "/>
    <text font-size="12.8" style="fill: #000000;text-anchor:middle;font-family:sans-serif;font-style:normal;font-weight:normal" x="-23.8837" y="216.103">
      <tspan x="-23.8837" y="216.103"></tspan>
    </text>
  </g>
  <g>
    <line style="fill: none; fill-opacity:0; stroke-width: 2; stroke: #000000" x1="-175.447" y1="196.74" x2="-52.6765" y2="211.664"/>
    <polyline style="fill: none; fill-opacity:0; stroke-width: 2; stroke: #000000" points="-60.987,215.691 -50.4567,211.934 -59.7803,205.764 "/>
  </g>
  <g>
    <line style="fill: none; fill-opacity:0; stroke-width: 2; stroke: #000000" x1="-23.8836" y1="188.166" x2="53.5668" y2="209.031"/>
    <polyline style="fill: none; fill-opacity:0; stroke-width: 2; stroke: #000000" points="44.7695,211.839 55.7259,209.612 47.3707,202.183 "/>
  </g>
  <g>
    <line style="fill: none; fill-opacity:0; stroke-width: 2; stroke: #000000" x1="0.469632" y1="212.204" x2="95.4458" y2="253.123"/>
    <polyline style="fill: none; fill-opacity:0; stroke-width: 2; stroke: #000000" points="86.3371,254.643 97.4994,254.007 90.2938,245.459 "/>
  </g>
  <g>
    <line style="fill: none; fill-opacity:0; stroke-width: 2; stroke: #000000" x1="-23.8836" y1="236.24" x2="113.174" y2="302.443"/>
    <polyline style="fill: none; fill-opacity:0; stroke-width: 2; stroke: #000000" points="104.008,303.568 115.188,303.415 108.358,294.564 "/>
  </g>
  <g>
    <rect style="fill: #ffffff" x="-865.71" y="-344.17" width="159.1" height="38"/>
    <rect style="fill: none; fill-opacity:0; stroke-width: 2; stroke: #000000" x="-865.71" y="-344.17" width="159.1" height="38"/>
    <text font-size="12.8" style="fill: #000000;text-anchor:middle;font-family:sans-serif;font-style:normal;font-weight:normal" x="-786.16" y="-321.27">
      <tspan x="-786.16" y="-321.27">src/mining/crawler.py</tspan>
    </text>
  </g>
  <g>
    <line style="fill: none; fill-opacity:0; stroke-width: 2; stroke: #000000" x1="-1174.75" y1="-149.274" x2="-869.597" y2="-322.958"/>
    <polyline style="fill: none; fill-opacity:0; stroke-width: 2; stroke: #000000" points="-873.871,-314.772 -867.653,-324.064 -878.818,-323.463 "/>
  </g>
  <g>
    <polygon style="fill: #ffffff" points="-725.798,73.3084 -698.52,96.1328 -725.798,118.957 -753.076,96.1328 "/>
    <polygon style="fill: none; fill-opacity:0; stroke-width: 2; stroke: #000000" points="-725.798,73.3084 -698.52,96.1328 -725.798,118.957 -753.076,96.1328 "/>
    <text font-size="12.8" style="fill: #000000;text-anchor:middle;font-family:sans-serif;font-style:normal;font-weight:normal" x="-725.798" y="100.033">
      <tspan x="-725.798" y="100.033"></tspan>
    </text>
  </g>
  <g>
    <line style="fill: none; fill-opacity:0; stroke-width: 2; stroke: #000000" x1="-856.204" y1="83.37" x2="-755.735" y2="93.2029"/>
    <polyline style="fill: none; fill-opacity:0; stroke-width: 2; stroke: #000000" points="-763.949,97.4229 -753.509,93.4207 -762.975,87.4704 "/>
  </g>
  <g>
    <line style="fill: none; fill-opacity:0; stroke-width: 2; stroke: #000000" x1="-739.436" y1="84.7204" x2="-776.909" y2="48.3936"/>
    <polyline style="fill: none; fill-opacity:0; stroke-width: 2; stroke: #000000" points="-767.854,50.2076 -778.514,46.8372 -774.815,57.3876 "/>
  </g>
  <g>
    <line style="fill: none; fill-opacity:0; stroke-width: 2; stroke: #000000" x1="-712.158" y1="84.7204" x2="-497.745" y2="151.565"/>
    <polyline style="fill: none; fill-opacity:0; stroke-width: 2; stroke: #000000" points="-506.646,154.028 -495.611,152.23 -503.669,144.481 "/>
  </g>
  <g>
    <rect style="fill: #ffffff" x="-520.338" y="-607.108" width="450.92" height="38"/>
    <rect style="fill: none; fill-opacity:0; stroke-width: 2; stroke: #000000" x="-520.338" y="-607.108" width="450.92" height="38"/>
    <text font-size="12.8" style="fill: #000000;text-anchor:middle;font-family:sans-serif;font-style:normal;font-weight:normal" x="-294.878" y="-584.208">
      <tspan x="-294.878" y="-584.208">src/minig/Makefile</tspan>
    </text>
  </g>
  <g>
    <path style="fill: #ffffff" d="M -494.41 -540.322 L -439.49,-540.322 C -431.907,-540.322 -425.759,-535.065 -425.759,-528.58 C -425.759,-522.095 -431.907,-516.838 -439.49,-516.838 L -494.41,-516.838 C -501.993,-516.838 -508.14,-522.095 -508.14,-528.58 C -508.14,-535.065 -501.993,-540.322 -494.41,-540.322z"/>
    <path style="fill: none; fill-opacity:0; stroke-width: 2; stroke: #000000" d="M -494.41 -540.322 L -439.49,-540.322 C -431.907,-540.322 -425.759,-535.065 -425.759,-528.58 C -425.759,-522.095 -431.907,-516.838 -439.49,-516.838 L -494.41,-516.838 C -501.993,-516.838 -508.14,-522.095 -508.14,-528.58 C -508.14,-535.065 -501.993,-540.322 -494.41,-540.322"/>
    <text font-size="12.8" style="fill: #000000;text-anchor:middle;font-family:sans-serif;font-style:normal;font-weight:normal" x="-466.95" y="-524.58">
      <tspan x="-466.95" y="-524.58">mine</tspan>
    </text>
  </g>
  <g>
    <path style="fill: #ffffff" d="M -502.185 -487.474 L -443.135,-487.474 C -434.982,-487.474 -428.373,-482.549 -428.373,-476.474 C -428.373,-470.399 -434.982,-465.474 -443.135,-465.474 L -502.185,-465.474 C -510.339,-465.474 -516.948,-470.399 -516.948,-476.474 C -516.948,-482.549 -510.339,-487.474 -502.185,-487.474z"/>
    <path style="fill: none; fill-opacity:0; stroke-width: 2; stroke: #000000" d="M -502.185 -487.474 L -443.135,-487.474 C -434.982,-487.474 -428.373,-482.549 -428.373,-476.474 C -428.373,-470.399 -434.982,-465.474 -443.135,-465.474 L -502.185,-465.474 C -510.339,-465.474 -516.948,-470.399 -516.948,-476.474 C -516.948,-482.549 -510.339,-487.474 -502.185,-487.474"/>
    <text font-size="12.8" style="fill: #000000;text-anchor:middle;font-family:sans-serif;font-style:normal;font-weight:normal" x="-472.661" y="-472.474">
      <tspan x="-472.661" y="-472.474">backlink</tspan>
    </text>
  </g>
  <g>
    <path style="fill: #ffffff" d="M -475.511 -335.67 L -355.211,-335.67 C -338.601,-335.67 -325.136,-330.745 -325.136,-324.67 C -325.136,-318.595 -338.601,-313.67 -355.211,-313.67 L -475.511,-313.67 C -492.121,-313.67 -505.586,-318.595 -505.586,-324.67 C -505.586,-330.745 -492.121,-335.67 -475.511,-335.67z"/>
    <path style="fill: none; fill-opacity:0; stroke-width: 2; stroke: #000000" d="M -475.511 -335.67 L -355.211,-335.67 C -338.601,-335.67 -325.136,-330.745 -325.136,-324.67 C -325.136,-318.595 -338.601,-313.67 -355.211,-313.67 L -475.511,-313.67 C -492.121,-313.67 -505.586,-318.595 -505.586,-324.67 C -505.586,-330.745 -492.121,-335.67 -475.511,-335.67"/>
    <text font-size="12.8" style="fill: #000000;text-anchor:middle;font-family:sans-serif;font-style:normal;font-weight:normal" x="-415.361" y="-320.67">
      <tspan x="-415.361" y="-320.67">cleanOnlineBooks</tspan>
    </text>
  </g>
  <g>
    <path style="fill: #ffffff" d="M -273.497 -549.964 L -180.197,-549.964 C -167.315,-549.964 -156.872,-545.039 -156.872,-538.964 C -156.872,-532.889 -167.315,-527.964 -180.197,-527.964 L -273.497,-527.964 C -286.379,-527.964 -296.822,-532.889 -296.822,-538.964 C -296.822,-545.039 -286.379,-549.964 -273.497,-549.964z"/>
    <path style="fill: none; fill-opacity:0; stroke-width: 2; stroke: #000000" d="M -273.497 -549.964 L -180.197,-549.964 C -167.315,-549.964 -156.872,-545.039 -156.872,-538.964 C -156.872,-532.889 -167.315,-527.964 -180.197,-527.964 L -273.497,-527.964 C -286.379,-527.964 -296.822,-532.889 -296.822,-538.964 C -296.822,-545.039 -286.379,-549.964 -273.497,-549.964"/>
    <text font-size="12.8" style="fill: #000000;text-anchor:middle;font-family:sans-serif;font-style:normal;font-weight:normal" x="-226.847" y="-534.964">
      <tspan x="-226.847" y="-534.964">cleanindecies</tspan>
    </text>
  </g>
  <g>
    <path style="fill: #ffffff" d="M -277.519 -511.27 L -177.219,-511.27 C -163.37,-511.27 -152.144,-506.345 -152.144,-500.27 C -152.144,-494.195 -163.37,-489.27 -177.219,-489.27 L -277.519,-489.27 C -291.368,-489.27 -302.594,-494.195 -302.594,-500.27 C -302.594,-506.345 -291.368,-511.27 -277.519,-511.27z"/>
    <path style="fill: none; fill-opacity:0; stroke-width: 2; stroke: #000000" d="M -277.519 -511.27 L -177.219,-511.27 C -163.37,-511.27 -152.144,-506.345 -152.144,-500.27 C -152.144,-494.195 -163.37,-489.27 -177.219,-489.27 L -277.519,-489.27 C -291.368,-489.27 -302.594,-494.195 -302.594,-500.27 C -302.594,-506.345 -291.368,-511.27 -277.519,-511.27"/>
    <text font-size="12.8" style="fill: #000000;text-anchor:middle;font-family:sans-serif;font-style:normal;font-weight:normal" x="-227.369" y="-496.27">
      <tspan x="-227.369" y="-496.27">mergeindecies</tspan>
    </text>
  </g>
  <g>
    <path style="fill: #ffffff" d="M -271.163 -472.022 L -190.412,-472.022 C -179.263,-472.022 -170.225,-467.097 -170.225,-461.022 C -170.225,-454.947 -179.263,-450.022 -190.412,-450.022 L -271.163,-450.022 C -282.312,-450.022 -291.35,-454.947 -291.35,-461.022 C -291.35,-467.097 -282.312,-472.022 -271.163,-472.022z"/>
    <path style="fill: none; fill-opacity:0; stroke-width: 2; stroke: #000000" d="M -271.163 -472.022 L -190.412,-472.022 C -179.263,-472.022 -170.225,-467.097 -170.225,-461.022 C -170.225,-454.947 -179.263,-450.022 -190.412,-450.022 L -271.163,-450.022 C -282.312,-450.022 -291.35,-454.947 -291.35,-461.022 C -291.35,-467.097 -282.312,-472.022 -271.163,-472.022"/>
    <text font-size="12.8" style="fill: #000000;text-anchor:middle;font-family:sans-serif;font-style:normal;font-weight:normal" x="-230.787" y="-457.022">
      <tspan x="-230.787" y="-457.022">frequencies</tspan>
    </text>
  </g>
  <g>
    <path style="fill: #ffffff" d="M -287.887 -430.118 L -157.536,-430.118 C -139.539,-430.118 -124.949,-425.193 -124.949,-419.118 C -124.949,-413.043 -139.539,-408.118 -157.536,-408.118 L -287.887,-408.118 C -305.884,-408.118 -320.474,-413.043 -320.474,-419.118 C -320.474,-425.193 -305.884,-430.118 -287.887,-430.118z"/>
    <path style="fill: none; fill-opacity:0; stroke-width: 2; stroke: #000000" d="M -287.887 -430.118 L -157.536,-430.118 C -139.539,-430.118 -124.949,-425.193 -124.949,-419.118 C -124.949,-413.043 -139.539,-408.118 -157.536,-408.118 L -287.887,-408.118 C -305.884,-408.118 -320.474,-413.043 -320.474,-419.118 C -320.474,-425.193 -305.884,-430.118 -287.887,-430.118"/>
    <text font-size="12.8" style="fill: #000000;text-anchor:middle;font-family:sans-serif;font-style:normal;font-weight:normal" x="-222.712" y="-415.118">
      <tspan x="-222.712" y="-415.118">mergedfrequencies</tspan>
    </text>
  </g>
  <g>
    <path style="fill: #ffffff" d="M -287.219 -379.19 L -159.869,-379.19 C -142.285,-379.19 -128.031,-374.265 -128.031,-368.19 C -128.031,-362.115 -142.285,-357.19 -159.869,-357.19 L -287.219,-357.19 C -304.802,-357.19 -319.056,-362.115 -319.056,-368.19 C -319.056,-374.265 -304.802,-379.19 -287.219,-379.19z"/>
    <path style="fill: none; fill-opacity:0; stroke-width: 2; stroke: #000000" d="M -287.219 -379.19 L -159.869,-379.19 C -142.285,-379.19 -128.031,-374.265 -128.031,-368.19 C -128.031,-362.115 -142.285,-357.19 -159.869,-357.19 L -287.219,-357.19 C -304.802,-357.19 -319.056,-362.115 -319.056,-368.19 C -319.056,-374.265 -304.802,-379.19 -287.219,-379.19"/>
    <text font-size="12.8" style="fill: #000000;text-anchor:middle;font-family:sans-serif;font-style:normal;font-weight:normal" x="-223.543" y="-364.19">
      <tspan x="-223.543" y="-364.19">backlinksMappings</tspan>
    </text>
  </g>
  <g>
    <path style="fill: #ffffff" d="M -267.512 -343.374 L -104.712,-343.374 C -82.234,-343.374 -64.012,-338.449 -64.012,-332.374 C -64.012,-326.299 -82.234,-321.374 -104.712,-321.374 L -267.512,-321.374 C -289.99,-321.374 -308.212,-326.299 -308.212,-332.374 C -308.212,-338.449 -289.99,-343.374 -267.512,-343.374z"/>
    <path style="fill: none; fill-opacity:0; stroke-width: 2; stroke: #000000" d="M -267.512 -343.374 L -104.712,-343.374 C -82.234,-343.374 -64.012,-338.449 -64.012,-332.374 C -64.012,-326.299 -82.234,-321.374 -104.712,-321.374 L -267.512,-321.374 C -289.99,-321.374 -308.212,-326.299 -308.212,-332.374 C -308.212,-338.449 -289.99,-343.374 -267.512,-343.374"/>
    <text font-size="12.8" style="fill: #000000;text-anchor:middle;font-family:sans-serif;font-style:normal;font-weight:normal" x="-186.112" y="-328.374">
      <tspan x="-186.112" y="-328.374">mergeBacklinkMappings</tspan>
    </text>
  </g>
  <g>
    <path style="fill: #ffffff" d="M -257.869 -296.532 L -148.769,-296.532 C -133.705,-296.532 -121.494,-291.607 -121.494,-285.532 C -121.494,-279.457 -133.705,-274.532 -148.769,-274.532 L -257.869,-274.532 C -272.933,-274.532 -285.144,-279.457 -285.144,-285.532 C -285.144,-291.607 -272.933,-296.532 -257.869,-296.532z"/>
    <path style="fill: none; fill-opacity:0; stroke-width: 2; stroke: #000000" d="M -257.869 -296.532 L -148.769,-296.532 C -133.705,-296.532 -121.494,-291.607 -121.494,-285.532 C -121.494,-279.457 -133.705,-274.532 -148.769,-274.532 L -257.869,-274.532 C -272.933,-274.532 -285.144,-279.457 -285.144,-285.532 C -285.144,-291.607 -272.933,-296.532 -257.869,-296.532"/>
    <text font-size="12.8" style="fill: #000000;text-anchor:middle;font-family:sans-serif;font-style:normal;font-weight:normal" x="-203.319" y="-281.532">
      <tspan x="-203.319" y="-281.532">mergeMappings</tspan>
    </text>
  </g>
  <g>
    <path style="fill: #ffffff" d="M -471.434 -279.124 L -361.884,-279.124 C -346.759,-279.124 -334.497,-274.199 -334.497,-268.124 C -334.497,-262.049 -346.759,-257.124 -361.884,-257.124 L -471.434,-257.124 C -486.56,-257.124 -498.822,-262.049 -498.822,-268.124 C -498.822,-274.199 -486.56,-279.124 -471.434,-279.124z"/>
    <path style="fill: none; fill-opacity:0; stroke-width: 2; stroke: #000000" d="M -471.434 -279.124 L -361.884,-279.124 C -346.759,-279.124 -334.497,-274.199 -334.497,-268.124 C -334.497,-262.049 -346.759,-257.124 -361.884,-257.124 L -471.434,-257.124 C -486.56,-257.124 -498.822,-262.049 -498.822,-268.124 C -498.822,-274.199 -486.56,-279.124 -471.434,-279.124"/>
    <text font-size="12.8" style="fill: #000000;text-anchor:middle;font-family:sans-serif;font-style:normal;font-weight:normal" x="-416.659" y="-264.124">
      <tspan x="-416.659" y="-264.124">deployBacklinks</tspan>
    </text>
  </g>
  <g>
    <path style="fill: #ffffff" d="M -255.614 -253.382 L -157.763,-253.382 C -144.253,-253.382 -133.301,-248.457 -133.301,-242.382 C -133.301,-236.307 -144.253,-231.382 -157.763,-231.382 L -255.614,-231.382 C -269.124,-231.382 -280.076,-236.307 -280.076,-242.382 C -280.076,-248.457 -269.124,-253.382 -255.614,-253.382z"/>
    <path style="fill: none; fill-opacity:0; stroke-width: 2; stroke: #000000" d="M -255.614 -253.382 L -157.763,-253.382 C -144.253,-253.382 -133.301,-248.457 -133.301,-242.382 C -133.301,-236.307 -144.253,-231.382 -157.763,-231.382 L -255.614,-231.382 C -269.124,-231.382 -280.076,-236.307 -280.076,-242.382 C -280.076,-248.457 -269.124,-253.382 -255.614,-253.382"/>
    <text font-size="12.8" style="fill: #000000;text-anchor:middle;font-family:sans-serif;font-style:normal;font-weight:normal" x="-206.688" y="-238.382">
      <tspan x="-206.688" y="-238.382">termCoverage</tspan>
    </text>
  </g>
  <g>
    <line style="fill: none; fill-opacity:0; stroke-width: 2; stroke: #000000" x1="-705.512" y1="-164.534" x2="-510.272" y2="-524.649"/>
    <polyline style="fill: none; fill-opacity:0; stroke-width: 2; stroke: #000000" points="-509.576,-515.44 -509.206,-526.614 -518.368,-520.206 "/>
  </g>
  <g>
    <line style="fill: none; fill-opacity:0; stroke-width: 2; stroke: #000000" x1="-425.988" y1="-523.566" x2="-396.637" y2="-519.973"/>
    <polyline style="fill: none; fill-opacity:0; stroke-width: 2; stroke: #000000" points="-404.951,-515.954 -394.418,-519.702 -403.736,-525.88 "/>
  </g>
  <g>
    <polygon style="fill: #ffffff" points="-369.836,-544.578 -347.475,-519.43 -369.836,-494.283 -392.198,-519.43 "/>
    <polygon style="fill: none; fill-opacity:0; stroke-width: 2; stroke: #000000" points="-369.836,-544.578 -347.475,-519.43 -369.836,-494.283 -392.198,-519.43 "/>
    <text font-size="12.8" style="fill: #000000;text-anchor:middle;font-family:sans-serif;font-style:normal;font-weight:normal" x="-369.836" y="-515.53">
      <tspan x="-369.836" y="-515.53"></tspan>
    </text>
  </g>
  <g>
    <line style="fill: none; fill-opacity:0; stroke-width: 2; stroke: #000000" x1="-364.246" y1="-538.292" x2="-302.249" y2="-538.595"/>
    <polyline style="fill: none; fill-opacity:0; stroke-width: 2; stroke: #000000" points="-309.989,-533.557 -300.013,-538.606 -310.038,-543.557 "/>
  </g>
  <g>
    <line style="fill: none; fill-opacity:0; stroke-width: 2; stroke: #000000" x1="-353.066" y1="-513.144" x2="-306.927" y2="-501.375"/>
    <polyline style="fill: none; fill-opacity:0; stroke-width: 2; stroke: #000000" points="-315.686,-498.449 -304.761,-500.823 -313.215,-508.139 "/>
  </g>
  <g>
    <line style="fill: none; fill-opacity:0; stroke-width: 2; stroke: #000000" x1="-369.838" y1="-494.282" x2="-295.468" y2="-462.767"/>
    <polyline style="fill: none; fill-opacity:0; stroke-width: 2; stroke: #000000" points="-304.567,-461.192 -293.409,-461.894 -300.665,-470.4 "/>
  </g>
  <g>
    <line style="fill: none; fill-opacity:0; stroke-width: 2; stroke: #000000" x1="-386.608" y1="-513.144" x2="-323.047" y2="-422.776"/>
    <polyline style="fill: none; fill-opacity:0; stroke-width: 2; stroke: #000000" points="-331.603,-426.25 -321.76,-420.947 -323.424,-432.003 "/>
  </g>
  <g>
    <polygon style="fill: #ffffff" points="-382.689,-475.3 -358.594,-451.134 -382.689,-426.968 -406.784,-451.134 "/>
    <polygon style="fill: none; fill-opacity:0; stroke-width: 2; stroke: #000000" points="-382.689,-475.3 -358.594,-451.134 -382.689,-426.968 -406.784,-451.134 "/>
    <text font-size="12.8" style="fill: #000000;text-anchor:middle;font-family:sans-serif;font-style:normal;font-weight:normal" x="-382.689" y="-447.234">
      <tspan x="-382.689" y="-447.234"></tspan>
    </text>
  </g>
  <g>
    <line style="fill: none; fill-opacity:0; stroke-width: 2; stroke: #000000" x1="-428.374" y1="-476.474" x2="-409.684" y2="-454.538"/>
    <polyline style="fill: none; fill-opacity:0; stroke-width: 2; stroke: #000000" points="-418.525,-457.205 -408.234,-452.836 -410.914,-463.691 "/>
  </g>
  <g>
    <line style="fill: none; fill-opacity:0; stroke-width: 2; stroke: #000000" x1="-376.666" y1="-469.258" x2="-321.271" y2="-372.075"/>
    <polyline style="fill: none; fill-opacity:0; stroke-width: 2; stroke: #000000" points="-329.459,-376.344 -320.163,-370.133 -320.772,-381.296 "/>
  </g>
  <g>
    <line style="fill: none; fill-opacity:0; stroke-width: 2; stroke: #000000" x1="-373.007" y1="-435.695" x2="-310.588" y2="-336.163"/>
    <polyline style="fill: none; fill-opacity:0; stroke-width: 2; stroke: #000000" points="-318.949,-340.084 -309.4,-334.268 -310.477,-345.397 "/>
  </g>
  <g>
    <line style="fill: none; fill-opacity:0; stroke-width: 2; stroke: #000000" x1="-382.69" y1="-426.968" x2="-287.683" y2="-289.213"/>
    <polyline style="fill: none; fill-opacity:0; stroke-width: 2; stroke: #000000" points="-296.207,-292.766 -286.414,-287.373 -287.975,-298.443 "/>
  </g>
  <g>
    <rect style="fill: #ffffff" x="95.501" y="-563.634" width="154.4" height="38"/>
    <rect style="fill: none; fill-opacity:0; stroke-width: 2; stroke: #000000" x="95.501" y="-563.634" width="154.4" height="38"/>
    <text font-size="12.8" style="fill: #000000;text-anchor:middle;font-family:sans-serif;font-style:normal;font-weight:normal" x="172.701" y="-540.734">
      <tspan x="172.701" y="-540.734">src/mining/merge.py</tspan>
    </text>
  </g>
  <g>
    <line style="fill: none; fill-opacity:0; stroke-width: 2; stroke: #000000" x1="-156.873" y1="-538.964" x2="91.0369" y2="-553.866"/>
    <polyline style="fill: none; fill-opacity:0; stroke-width: 2; stroke: #000000" points="83.587,-548.409 93.269,-554 82.987,-558.391 "/>
  </g>
  <line style="fill: none; fill-opacity:0; stroke-width: 2; stroke-dasharray: 4; stroke: #000000" x1="-608.8" y1="-582.348" x2="-521.343" y2="-583.952"/>
  <g>
    <line style="fill: none; fill-opacity:0; stroke-width: 2; stroke: #000000" x1="-152.145" y1="-500.27" x2="91.0725" y2="-534.511"/>
    <polyline style="fill: none; fill-opacity:0; stroke-width: 2; stroke: #000000" points="84.0814,-528.477 93.2868,-534.822 82.6874,-538.379 "/>
  </g>
  <g>
    <rect style="fill: #ffffff" x="69.429" y="-510.558" width="187.7" height="38"/>
    <rect style="fill: none; fill-opacity:0; stroke-width: 2; stroke: #000000" x="69.429" y="-510.558" width="187.7" height="38"/>
    <text font-size="12.8" style="fill: #000000;text-anchor:middle;font-family:sans-serif;font-style:normal;font-weight:normal" x="163.279" y="-487.658">
      <tspan x="163.279" y="-487.658">src/mining/frequencies.py</tspan>
    </text>
  </g>
  <g>
    <line style="fill: none; fill-opacity:0; stroke-width: 2; stroke: #000000" x1="-170.226" y1="-461.022" x2="64.9927" y2="-490.993"/>
    <polyline style="fill: none; fill-opacity:0; stroke-width: 2; stroke: #000000" points="57.923,-485.052 67.2109,-491.275 56.6591,-494.971 "/>
  </g>
  <g>
    <line style="fill: none; fill-opacity:0; stroke-width: 2; stroke: #000000" x1="-124.95" y1="-419.118" x2="65.1743" y2="-480.68"/>
    <polyline style="fill: none; fill-opacity:0; stroke-width: 2; stroke: #000000" points="59.3283,-473.532 67.3017,-481.369 56.2477,-483.045 "/>
  </g>
  <g>
    <rect style="fill: #ffffff" x="65.101" y="-455.794" width="219.85" height="38"/>
    <rect style="fill: none; fill-opacity:0; stroke-width: 2; stroke: #000000" x="65.101" y="-455.794" width="219.85" height="38"/>
    <text font-size="12.8" style="fill: #000000;text-anchor:middle;font-family:sans-serif;font-style:normal;font-weight:normal" x="175.026" y="-432.894">
      <tspan x="175.026" y="-432.894">src/mining/backlinksMapper.py</tspan>
    </text>
  </g>
  <g>
    <line style="fill: none; fill-opacity:0; stroke-width: 2; stroke: #000000" x1="-128.032" y1="-368.19" x2="60.8868" y2="-435.297"/>
    <polyline style="fill: none; fill-opacity:0; stroke-width: 2; stroke: #000000" points="55.2444,-427.987 62.9939,-436.046 51.8971,-437.41 "/>
  </g>
  <g>
    <rect style="fill: #ffffff" x="70.269" y="-410.692" width="214.75" height="38"/>
    <rect style="fill: none; fill-opacity:0; stroke-width: 2; stroke: #000000" x="70.269" y="-410.692" width="214.75" height="38"/>
    <text font-size="12.8" style="fill: #000000;text-anchor:middle;font-family:sans-serif;font-style:normal;font-weight:normal" x="177.644" y="-387.792">
      <tspan x="177.644" y="-387.792">src/mining/mergeBacklinks.py</tspan>
    </text>
  </g>
  <g>
    <rect style="fill: #ffffff" x="77.893" y="-360.484" width="218.667" height="38"/>
    <rect style="fill: none; fill-opacity:0; stroke-width: 2; stroke: #000000" x="77.893" y="-360.484" width="218.667" height="38"/>
    <text font-size="12.8" style="fill: #000000;text-anchor:middle;font-family:sans-serif;font-style:normal;font-weight:normal" x="187.227" y="-337.584">
      <tspan x="187.227" y="-337.584">src/mining/mergeMapping.py</tspan>
    </text>
  </g>
  <g>
    <line style="fill: none; fill-opacity:0; stroke-width: 2; stroke: #000000" x1="-64.013" y1="-332.374" x2="66.1782" y2="-389.885"/>
    <polyline style="fill: none; fill-opacity:0; stroke-width: 2; stroke: #000000" points="61.0967,-382.174 68.2236,-390.788 57.056,-391.321 "/>
  </g>
  <g>
    <line style="fill: none; fill-opacity:0; stroke-width: 2; stroke: #000000" x1="-121.495" y1="-285.532" x2="73.5872" y2="-340.276"/>
    <polyline style="fill: none; fill-opacity:0; stroke-width: 2; stroke: #000000" points="67.4629,-333.364 75.7401,-340.88 64.7611,-342.992 "/>
  </g>
  <g>
    <rect style="fill: #ffffff" x="83.703" y="-309.056" width="204.8" height="38"/>
    <rect style="fill: none; fill-opacity:0; stroke-width: 2; stroke: #000000" x="83.703" y="-309.056" width="204.8" height="38"/>
    <text font-size="12.8" style="fill: #000000;text-anchor:middle;font-family:sans-serif;font-style:normal;font-weight:normal" x="186.103" y="-286.156">
      <tspan x="186.103" y="-286.156">src/mining/termCoverage.py</tspan>
    </text>
  </g>
  <g>
    <line style="fill: none; fill-opacity:0; stroke-width: 2; stroke: #000000" x1="-133.302" y1="-242.382" x2="79.335" y2="-289.096"/>
    <polyline style="fill: none; fill-opacity:0; stroke-width: 2; stroke: #000000" points="72.8248,-282.547 81.519,-289.576 70.6791,-292.314 "/>
  </g>
  <g>
    <line style="fill: none; fill-opacity:0; stroke-width: 2; stroke: #000000" x1="-707.726" y1="-124.213" x2="-519.078" y2="-472.542"/>
    <polyline style="fill: none; fill-opacity:0; stroke-width: 2; stroke: #000000" points="-518.379,-463.333 -518.013,-474.508 -527.172,-468.096 "/>
  </g>
  <g>
    <rect style="fill: #ffffff" x="-567.39" y="-133.489" width="413.574" height="38"/>
    <rect style="fill: none; fill-opacity:0; stroke-width: 2; stroke: #000000" x="-567.39" y="-133.489" width="413.574" height="38"/>
    <text font-size="12.8" style="fill: #000000;text-anchor:middle;font-family:sans-serif;font-style:normal;font-weight:normal" x="-360.603" y="-110.589">
      <tspan x="-360.603" y="-110.589">Src/integrate/Makefile</tspan>
    </text>
  </g>
  <g>
    <path style="fill: #ffffff" d="M -535.687 -75.2664 L -470.987,-75.2664 C -462.054,-75.2664 -454.812,-70.3415 -454.812,-64.2664 C -454.812,-58.1913 -462.054,-53.2664 -470.987,-53.2664 L -535.687,-53.2664 C -544.62,-53.2664 -551.862,-58.1913 -551.862,-64.2664 C -551.862,-70.3415 -544.62,-75.2664 -535.687,-75.2664z"/>
    <path style="fill: none; fill-opacity:0; stroke-width: 2; stroke: #000000" d="M -535.687 -75.2664 L -470.987,-75.2664 C -462.054,-75.2664 -454.812,-70.3415 -454.812,-64.2664 C -454.812,-58.1913 -462.054,-53.2664 -470.987,-53.2664 L -535.687,-53.2664 C -544.62,-53.2664 -551.862,-58.1913 -551.862,-64.2664 C -551.862,-70.3415 -544.62,-75.2664 -535.687,-75.2664"/>
    <text font-size="12.8" style="fill: #000000;text-anchor:middle;font-family:sans-serif;font-style:normal;font-weight:normal" x="-503.337" y="-60.2664">
      <tspan x="-503.337" y="-60.2664">integrate</tspan>
    </text>
  </g>
  <g>
    <polygon style="fill: #ffffff" points="-385.058,-77.718 -363.414,-52.0905 -385.058,-26.463 -406.702,-52.0905 "/>
    <polygon style="fill: none; fill-opacity:0; stroke-width: 2; stroke: #000000" points="-385.058,-77.718 -363.414,-52.0905 -385.058,-26.463 -406.702,-52.0905 "/>
    <text font-size="12.8" style="fill: #000000;text-anchor:middle;font-family:sans-serif;font-style:normal;font-weight:normal" x="-385.058" y="-48.1905">
      <tspan x="-385.058" y="-48.1905"></tspan>
    </text>
  </g>
  <g>
    <line style="fill: none; fill-opacity:0; stroke-width: 2; stroke: #000000" x1="-454.812" y1="-64.2664" x2="-411.037" y2="-53.1876"/>
    <polyline style="fill: none; fill-opacity:0; stroke-width: 2; stroke: #000000" points="-419.791,-50.2454 -408.87,-52.639 -417.337,-59.9397 "/>
  </g>
  <g>
    <path style="fill: #ffffff" d="M -284.914 -80.8768 L -179.565,-80.8768 C -165.019,-80.8768 -153.227,-74.0576 -153.227,-65.6456 C -153.227,-57.2337 -165.019,-50.4145 -179.565,-50.4145 L -284.914,-50.4145 C -299.46,-50.4145 -311.252,-57.2337 -311.252,-65.6456 C -311.252,-74.0576 -299.46,-80.8768 -284.914,-80.8768z"/>
    <path style="fill: none; fill-opacity:0; stroke-width: 2; stroke: #000000" d="M -284.914 -80.8768 L -179.565,-80.8768 C -165.019,-80.8768 -153.227,-74.0576 -153.227,-65.6456 C -153.227,-57.2337 -165.019,-50.4145 -179.565,-50.4145 L -284.914,-50.4145 C -299.46,-50.4145 -311.252,-57.2337 -311.252,-65.6456 C -311.252,-74.0576 -299.46,-80.8768 -284.914,-80.8768"/>
    <text font-size="12.8" style="fill: #000000;text-anchor:middle;font-family:sans-serif;font-style:normal;font-weight:normal" x="-232.24" y="-61.6456">
      <tspan x="-232.24" y="-61.6456">coverageTables</tspan>
    </text>
  </g>
  <g>
    <path style="fill: #ffffff" d="M -287.929 -36.6202 L -141.429,-36.6202 C -121.202,-36.6202 -104.804,-31.1119 -104.804,-24.317 C -104.804,-17.5221 -121.202,-12.0137 -141.429,-12.0137 L -287.929,-12.0137 C -308.156,-12.0137 -324.554,-17.5221 -324.554,-24.317 C -324.554,-31.1119 -308.156,-36.6202 -287.929,-36.6202z"/>
    <path style="fill: none; fill-opacity:0; stroke-width: 2; stroke: #000000" d="M -287.929 -36.6202 L -141.429,-36.6202 C -121.202,-36.6202 -104.804,-31.1119 -104.804,-24.317 C -104.804,-17.5221 -121.202,-12.0137 -141.429,-12.0137 L -287.929,-12.0137 C -308.156,-12.0137 -324.554,-17.5221 -324.554,-24.317 C -324.554,-31.1119 -308.156,-36.6202 -287.929,-36.6202"/>
    <text font-size="12.8" style="fill: #000000;text-anchor:middle;font-family:sans-serif;font-style:normal;font-weight:normal" x="-214.679" y="-20.317">
      <tspan x="-214.679" y="-20.317">nonProfileFrequencies</tspan>
    </text>
  </g>
  <g>
    <path style="fill: #ffffff" d="M -277.916 4.44084 L -190.316,4.44084 C -178.221,4.44084 -168.416,9.36571 -168.416,15.4408 C -168.416,21.516 -178.221,26.4408 -190.316,26.4408 L -277.916,26.4408 C -290.011,26.4408 -299.816,21.516 -299.816,15.4408 C -299.816,9.36571 -290.011,4.44084 -277.916,4.44084z"/>
    <path style="fill: none; fill-opacity:0; stroke-width: 2; stroke: #000000" d="M -277.916 4.44084 L -190.316,4.44084 C -178.221,4.44084 -168.416,9.36571 -168.416,15.4408 C -168.416,21.516 -178.221,26.4408 -190.316,26.4408 L -277.916,26.4408 C -290.011,26.4408 -299.816,21.516 -299.816,15.4408 C -299.816,9.36571 -290.011,4.44084 -277.916,4.44084"/>
    <text font-size="12.8" style="fill: #000000;text-anchor:middle;font-family:sans-serif;font-style:normal;font-weight:normal" x="-234.116" y="19.4408">
      <tspan x="-234.116" y="19.4408">uniqueTerms</tspan>
    </text>
  </g>
  <g>
    <line style="fill: none; fill-opacity:0; stroke-width: 2; stroke: #000000" x1="-374.236" y1="-64.9042" x2="-315.724" y2="-65.593"/>
    <polyline style="fill: none; fill-opacity:0; stroke-width: 2; stroke: #000000" points="-323.428,-60.5019 -313.488,-65.6193 -323.546,-70.5012 "/>
  </g>
  <g>
    <line style="fill: none; fill-opacity:0; stroke-width: 2; stroke: #000000" x1="-368.743" y1="-44.6013" x2="-328.618" y2="-26.1827"/>
    <polyline style="fill: none; fill-opacity:0; stroke-width: 2; stroke: #000000" points="-337.76,-24.8776 -326.586,-25.2498 -333.588,-33.9658 "/>
  </g>
  <g>
    <line style="fill: none; fill-opacity:0; stroke-width: 2; stroke: #000000" x1="-379.648" y1="-32.8698" x2="-303.642" y2="13.1255"/>
    <polyline style="fill: none; fill-opacity:0; stroke-width: 2; stroke: #000000" points="-312.873,13.3835 -301.729,14.2832 -307.696,4.8281 "/>
  </g>
  <line style="fill: none; fill-opacity:0; stroke-width: 2; stroke-dasharray: 4; stroke: #000000" x1="-669.915" y1="-561.148" x2="-567.39" y2="-123.989"/>
  <g>
    <line style="fill: none; fill-opacity:0; stroke-width: 2; stroke: #000000" x1="-153.228" y1="-65.6456" x2="9.26128" y2="-67.6991"/>
    <polyline style="fill: none; fill-opacity:0; stroke-width: 2; stroke: #000000" points="1.56115,-62.6014 11.4972,-67.7273 1.43479,-72.6006 "/>
  </g>
  <g>
    <line style="fill: none; fill-opacity:0; stroke-width: 2; stroke: #000000" x1="-104.447" y1="-24.4027" x2="-17.9311" y2="-24.4699"/>
    <polyline style="fill: none; fill-opacity:0; stroke-width: 2; stroke: #000000" points="-25.6911,-19.4639 -15.695,-24.4717 -25.6989,-29.4639 "/>
  </g>
  <g>
    <line style="fill: none; fill-opacity:0; stroke-width: 2; stroke: #000000" x1="-168.417" y1="15.4408" x2="14.6787" y2="26.2825"/>
    <polyline style="fill: none; fill-opacity:0; stroke-width: 2; stroke: #000000" points="6.63284,30.8148 16.9109,26.4146 7.22393,20.8323 "/>
  </g>
  <g>
    <line style="fill: none; fill-opacity:0; stroke-width: 2; stroke: #000000" x1="228.631" y1="27.0128" x2="245.098" y2="27.086"/>
    <polyline style="fill: none; fill-opacity:0; stroke-width: 2; stroke: #000000" points="237.312,32.0514 247.334,27.0959 237.356,22.0515 "/>
  </g>
  <g>
    <rect style="fill: #ffffff" x="13.7331" y="-96.2556" width="226.9" height="38"/>
    <rect style="fill: none; fill-opacity:0; stroke-width: 2; stroke: #000000" x="13.7331" y="-96.2556" width="226.9" height="38"/>
    <text font-size="12.8" style="fill: #000000;text-anchor:middle;font-family:sans-serif;font-style:normal;font-weight:normal" x="127.183" y="-73.3556">
      <tspan x="127.183" y="-73.3556">src/integrate/TermsCoverage.py</tspan>
    </text>
  </g>
  <g>
    <rect style="fill: #ffffff" x="-13.4589" y="-43.4734" width="268.25" height="38"/>
    <rect style="fill: none; fill-opacity:0; stroke-width: 2; stroke: #000000" x="-13.4589" y="-43.4734" width="268.25" height="38"/>
    <text font-size="12.8" style="fill: #000000;text-anchor:middle;font-family:sans-serif;font-style:normal;font-weight:normal" x="120.666" y="-20.5734">
      <tspan x="120.666" y="-20.5734">src/integrate/nonProfileFrequencies.py</tspan>
    </text>
  </g>
  <g>
    <rect style="fill: #ffffff" x="19.1431" y="7.54684" width="209.35" height="38"/>
    <rect style="fill: none; fill-opacity:0; stroke-width: 2; stroke: #000000" x="19.1431" y="7.54684" width="209.35" height="38"/>
    <text font-size="12.8" style="fill: #000000;text-anchor:middle;font-family:sans-serif;font-style:normal;font-weight:normal" x="123.818" y="30.4468">
      <tspan x="123.818" y="30.4468">src/integrate/uniqueTerms.py</tspan>
    </text>
  </g>
  <g>
    <rect style="fill: #ffffff" x="250.572" y="8.53264" width="190" height="38"/>
    <rect style="fill: none; fill-opacity:0; stroke-width: 2; stroke: #000000" x="250.572" y="8.53264" width="190" height="38"/>
    <text font-size="12.8" style="fill: #000000;text-anchor:middle;font-family:sans-serif;font-style:normal;font-weight:normal" x="345.572" y="31.4326">
      <tspan x="345.572" y="31.4326">src/integrate/constants.py</tspan>
    </text>
  </g>
  <line style="fill: none; fill-opacity:0; stroke-width: 2; stroke-dasharray: 4; stroke: #000000" x1="-1337.49" y1="-221.429" x2="-1289.67" y2="-219.313"/>
  <line style="fill: none; fill-opacity:0; stroke-width: 2; stroke-dasharray: 4; stroke: #000000" x1="-1337.77" y1="-183.805" x2="-1232.38" y2="-149.29"/>
  <g>
    <line style="fill: none; fill-opacity:0; stroke-width: 2; stroke: #000000" x1="-719.004" y1="-32.0048" x2="-315.172" y2="-59.9141"/>
    <polyline style="fill: none; fill-opacity:0; stroke-width: 2; stroke: #000000" points="-322.573,-54.3907 -312.941,-60.0683 -323.262,-64.3669 "/>
  </g>
  <g>
    <line style="fill: none; fill-opacity:0; stroke-width: 2; stroke: #000000" x1="-715.08" y1="0.220458" x2="-327.002" y2="-18.8091"/>
    <polyline style="fill: none; fill-opacity:0; stroke-width: 2; stroke: #000000" points="-334.512,-13.4349 -324.769,-18.9187 -335.002,-23.4229 "/>
  </g>
  <g>
    <rect style="fill: #ffffff" x="-963.192" y="-249.334" width="269.318" height="54.9811"/>
    <rect style="fill: none; fill-opacity:0; stroke-width: 2; stroke: #000000" x="-963.192" y="-249.334" width="269.318" height="54.9811"/>
    <text font-size="12.8" style="fill: #000000;text-anchor:middle;font-family:sans-serif;font-style:normal;font-weight:normal" x="-828.533" y="-217.943">
      <tspan x="-828.533" y="-217.943">src/Makefile</tspan>
    </text>
  </g>
  <g>
    <path style="fill: #ffffff" d="M -850.691 -43.0048 L -745.341,-43.0048 C -730.795,-43.0048 -719.003,-38.0799 -719.003,-32.0048 C -719.003,-25.9297 -730.795,-21.0048 -745.341,-21.0048 L -850.691,-21.0048 C -865.236,-21.0048 -877.028,-25.9297 -877.028,-32.0048 C -877.028,-38.0799 -865.236,-43.0048 -850.691,-43.0048z"/>
    <path style="fill: none; fill-opacity:0; stroke-width: 2; stroke: #000000" d="M -850.691 -43.0048 L -745.341,-43.0048 C -730.795,-43.0048 -719.003,-38.0799 -719.003,-32.0048 C -719.003,-25.9297 -730.795,-21.0048 -745.341,-21.0048 L -850.691,-21.0048 C -865.236,-21.0048 -877.028,-25.9297 -877.028,-32.0048 C -877.028,-38.0799 -865.236,-43.0048 -850.691,-43.0048"/>
    <text font-size="12.8" style="fill: #000000;text-anchor:middle;font-family:sans-serif;font-style:normal;font-weight:normal" x="-798.016" y="-28.0048">
      <tspan x="-798.016" y="-28.0048">coverageTables</tspan>
    </text>
  </g>
  <g>
    <path style="fill: #ffffff" d="M -1286.49 60.2515 L -1139.99,60.2515 C -1119.76,60.2515 -1103.37,65.1764 -1103.37,71.2515 C -1103.37,77.3267 -1119.76,82.2515 -1139.99,82.2515 L -1286.49,82.2515 C -1306.72,82.2515 -1323.12,77.3267 -1323.12,71.2515 C -1323.12,65.1764 -1306.72,60.2515 -1286.49,60.2515z"/>
    <path style="fill: none; fill-opacity:0; stroke-width: 2; stroke: #000000" d="M -1286.49 60.2515 L -1139.99,60.2515 C -1119.76,60.2515 -1103.37,65.1764 -1103.37,71.2515 C -1103.37,77.3267 -1119.76,82.2515 -1139.99,82.2515 L -1286.49,82.2515 C -1306.72,82.2515 -1323.12,77.3267 -1323.12,71.2515 C -1323.12,65.1764 -1306.72,60.2515 -1286.49,60.2515"/>
    <text font-size="12.8" style="fill: #000000;text-anchor:middle;font-family:sans-serif;font-style:normal;font-weight:normal" x="-1213.24" y="75.2515">
      <tspan x="-1213.24" y="75.2515">nonProfileFrequencies</tspan>
    </text>
  </g>
  <g>
    <path style="fill: #ffffff" d="M -1268.67 -113.516 L -1184.01,-113.516 C -1172.32,-113.516 -1162.84,-108.591 -1162.84,-102.516 C -1162.84,-96.4405 -1172.32,-91.5156 -1184.01,-91.5156 L -1268.67,-91.5156 C -1280.36,-91.5156 -1289.84,-96.4405 -1289.84,-102.516 C -1289.84,-108.591 -1280.36,-113.516 -1268.67,-113.516z"/>
    <path style="fill: none; fill-opacity:0; stroke-width: 2; stroke: #000000" d="M -1268.67 -113.516 L -1184.01,-113.516 C -1172.32,-113.516 -1162.84,-108.591 -1162.84,-102.516 C -1162.84,-96.4405 -1172.32,-91.5156 -1184.01,-91.5156 L -1268.67,-91.5156 C -1280.36,-91.5156 -1289.84,-96.4405 -1289.84,-102.516 C -1289.84,-108.591 -1280.36,-113.516 -1268.67,-113.516"/>
    <text font-size="12.8" style="fill: #000000;text-anchor:middle;font-family:sans-serif;font-style:normal;font-weight:normal" x="-1226.34" y="-98.5156">
      <tspan x="-1226.34" y="-98.5156">mine</tspan>
    </text>
  </g>
  <g>
    <path style="fill: #ffffff" d="M -1250.4 -88.1238 L -1191.35,-88.1238 C -1183.2,-88.1238 -1176.59,-81.6295 -1176.59,-73.6183 C -1176.59,-65.6072 -1183.2,-59.1129 -1191.35,-59.1129 L -1250.4,-59.1129 C -1258.56,-59.1129 -1265.16,-65.6072 -1265.16,-73.6183 C -1265.16,-81.6295 -1258.56,-88.1238 -1250.4,-88.1238z"/>
    <path style="fill: none; fill-opacity:0; stroke-width: 2; stroke: #000000" d="M -1250.4 -88.1238 L -1191.35,-88.1238 C -1183.2,-88.1238 -1176.59,-81.6295 -1176.59,-73.6183 C -1176.59,-65.6072 -1183.2,-59.1129 -1191.35,-59.1129 L -1250.4,-59.1129 C -1258.56,-59.1129 -1265.16,-65.6072 -1265.16,-73.6183 C -1265.16,-81.6295 -1258.56,-88.1238 -1250.4,-88.1238"/>
    <text font-size="12.8" style="fill: #000000;text-anchor:middle;font-family:sans-serif;font-style:normal;font-weight:normal" x="-1220.88" y="-69.6183">
      <tspan x="-1220.88" y="-69.6183">backlink</tspan>
    </text>
  </g>
  <g>
    <path style="fill: #ffffff" d="M -1353.95 140.017 L -1298.4,140.017 C -1290.73,140.017 -1284.51,144.942 -1284.51,151.017 C -1284.51,157.092 -1290.73,162.017 -1298.4,162.017 L -1353.95,162.017 C -1361.62,162.017 -1367.84,157.092 -1367.84,151.017 C -1367.84,144.942 -1361.62,140.017 -1353.95,140.017z"/>
    <path style="fill: none; fill-opacity:0; stroke-width: 2; stroke: #000000" d="M -1353.95 140.017 L -1298.4,140.017 C -1290.73,140.017 -1284.51,144.942 -1284.51,151.017 C -1284.51,157.092 -1290.73,162.017 -1298.4,162.017 L -1353.95,162.017 C -1361.62,162.017 -1367.84,157.092 -1367.84,151.017 C -1367.84,144.942 -1361.62,140.017 -1353.95,140.017"/>
    <text font-size="12.8" style="fill: #000000;text-anchor:middle;font-family:sans-serif;font-style:normal;font-weight:normal" x="-1326.18" y="155.017">
      <tspan x="-1326.18" y="155.017">analyze</tspan>
    </text>
  </g>
  <g>
    <path style="fill: #ffffff" d="M -1312.04 101.601 L -1233.74,101.601 C -1222.93,101.601 -1214.16,106.526 -1214.16,112.601 C -1214.16,118.676 -1222.93,123.601 -1233.74,123.601 L -1312.04,123.601 C -1322.85,123.601 -1331.61,118.676 -1331.61,112.601 C -1331.61,106.526 -1322.85,101.601 -1312.04,101.601z"/>
    <path style="fill: none; fill-opacity:0; stroke-width: 2; stroke: #000000" d="M -1312.04 101.601 L -1233.74,101.601 C -1222.93,101.601 -1214.16,106.526 -1214.16,112.601 C -1214.16,118.676 -1222.93,123.601 -1233.74,123.601 L -1312.04,123.601 C -1322.85,123.601 -1331.61,118.676 -1331.61,112.601 C -1331.61,106.526 -1322.85,101.601 -1312.04,101.601"/>
    <text font-size="12.8" style="fill: #000000;text-anchor:middle;font-family:sans-serif;font-style:normal;font-weight:normal" x="-1272.89" y="116.601">
      <tspan x="-1272.89" y="116.601">from-cache</tspan>
    </text>
  </g>
  <g>
    <path style="fill: #ffffff" d="M -1314.9 172.31 L -1253.25,172.31 C -1244.73,172.31 -1237.83,177.235 -1237.83,183.31 C -1237.83,189.385 -1244.73,194.31 -1253.25,194.31 L -1314.9,194.31 C -1323.41,194.31 -1330.31,189.385 -1330.31,183.31 C -1330.31,177.235 -1323.41,172.31 -1314.9,172.31z"/>
    <path style="fill: none; fill-opacity:0; stroke-width: 2; stroke: #000000" d="M -1314.9 172.31 L -1253.25,172.31 C -1244.73,172.31 -1237.83,177.235 -1237.83,183.31 C -1237.83,189.385 -1244.73,194.31 -1253.25,194.31 L -1314.9,194.31 C -1323.41,194.31 -1330.31,189.385 -1330.31,183.31 C -1330.31,177.235 -1323.41,172.31 -1314.9,172.31"/>
    <text font-size="12.8" style="fill: #000000;text-anchor:middle;font-family:sans-serif;font-style:normal;font-weight:normal" x="-1284.07" y="187.31">
      <tspan x="-1284.07" y="187.31">to-cache</tspan>
    </text>
  </g>
  <g>
    <path style="fill: #ffffff" d="M -817.811 -99.4684 L -753.111,-99.4684 C -744.178,-99.4684 -736.936,-94.5435 -736.936,-88.4684 C -736.936,-82.3933 -744.178,-77.4684 -753.111,-77.4684 L -817.811,-77.4684 C -826.744,-77.4684 -833.986,-82.3933 -833.986,-88.4684 C -833.986,-94.5435 -826.744,-99.4684 -817.811,-99.4684z"/>
    <path style="fill: none; fill-opacity:0; stroke-width: 2; stroke: #000000" d="M -817.811 -99.4684 L -753.111,-99.4684 C -744.178,-99.4684 -736.936,-94.5435 -736.936,-88.4684 C -736.936,-82.3933 -744.178,-77.4684 -753.111,-77.4684 L -817.811,-77.4684 C -826.744,-77.4684 -833.986,-82.3933 -833.986,-88.4684 C -833.986,-94.5435 -826.744,-99.4684 -817.811,-99.4684"/>
    <text font-size="12.8" style="fill: #000000;text-anchor:middle;font-family:sans-serif;font-style:normal;font-weight:normal" x="-785.461" y="-84.4684">
      <tspan x="-785.461" y="-84.4684">integrate</tspan>
    </text>
  </g>
  <g>
    <path style="fill: #ffffff" d="M -1256.86 -53.9161 L -1192.16,-53.9161 C -1183.23,-53.9161 -1175.99,-48.9912 -1175.99,-42.9161 C -1175.99,-36.8409 -1183.23,-31.9161 -1192.16,-31.9161 L -1256.86,-31.9161 C -1265.8,-31.9161 -1273.04,-36.8409 -1273.04,-42.9161 C -1273.04,-48.9912 -1265.8,-53.9161 -1256.86,-53.9161z"/>
    <path style="fill: none; fill-opacity:0; stroke-width: 2; stroke: #000000" d="M -1256.86 -53.9161 L -1192.16,-53.9161 C -1183.23,-53.9161 -1175.99,-48.9912 -1175.99,-42.9161 C -1175.99,-36.8409 -1183.23,-31.9161 -1192.16,-31.9161 L -1256.86,-31.9161 C -1265.8,-31.9161 -1273.04,-36.8409 -1273.04,-42.9161 C -1273.04,-48.9912 -1265.8,-53.9161 -1256.86,-53.9161"/>
    <text font-size="12.8" style="fill: #000000;text-anchor:middle;font-family:sans-serif;font-style:normal;font-weight:normal" x="-1224.51" y="-38.9161">
      <tspan x="-1224.51" y="-38.9161">integrate</tspan>
    </text>
  </g>
  <g>
    <line style="fill: none; fill-opacity:0; stroke-width: 2; stroke: #000000" x1="-737.023" y1="-84.3131" x2="-556.231" y2="-68.8039"/>
    <polyline style="fill: none; fill-opacity:0; stroke-width: 2; stroke: #000000" points="-564.394,-64.4858 -554.003,-68.6128 -563.539,-74.4492 "/>
  </g>
  <g>
    <path style="fill: #ffffff" d="M -905.663 142.825 L -865.213,142.825 C -859.629,142.825 -855.101,147.75 -855.101,153.825 C -855.101,159.9 -859.629,164.825 -865.213,164.825 L -905.663,164.825 C -911.248,164.825 -915.776,159.9 -915.776,153.825 C -915.776,147.75 -911.248,142.825 -905.663,142.825z"/>
    <path style="fill: none; fill-opacity:0; stroke-width: 2; stroke: #000000" d="M -905.663 142.825 L -865.213,142.825 C -859.629,142.825 -855.101,147.75 -855.101,153.825 C -855.101,159.9 -859.629,164.825 -865.213,164.825 L -905.663,164.825 C -911.248,164.825 -915.776,159.9 -915.776,153.825 C -915.776,147.75 -911.248,142.825 -905.663,142.825"/>
    <text font-size="12.8" style="fill: #000000;text-anchor:middle;font-family:sans-serif;font-style:normal;font-weight:normal" x="-885.438" y="157.825">
      <tspan x="-885.438" y="157.825">clean</tspan>
    </text>
  </g>
  <g>
    <line style="fill: none; fill-opacity:0; stroke-width: 2; stroke: #000000" x1="-1162.84" y1="-102.516" x2="-836.907" y2="-163.709"/>
    <polyline style="fill: none; fill-opacity:0; stroke-width: 2; stroke: #000000" points="-843.615,-157.362 -834.71,-164.121 -845.461,-167.19 "/>
  </g>
  <g>
    <line style="fill: none; fill-opacity:0; stroke-width: 2; stroke: #000000" x1="-1176.59" y1="-73.6183" x2="-800.733" y2="-123.623"/>
    <polyline style="fill: none; fill-opacity:0; stroke-width: 2; stroke: #000000" points="-807.77,-117.643 -798.517,-123.918 -809.089,-127.555 "/>
  </g>
  <g>
    <line style="fill: none; fill-opacity:0; stroke-width: 2; stroke: #000000" x1="-1175.99" y1="-42.9161" x2="-838.419" y2="-87.878"/>
    <polyline style="fill: none; fill-opacity:0; stroke-width: 2; stroke: #000000" points="-845.455,-81.8967 -836.202,-88.1732 -846.775,-91.8091 "/>
  </g>
  <g>
    <line style="fill: none; fill-opacity:0; stroke-width: 2; stroke: #000000" x1="-1156.15" y1="28.2213" x2="-866.851" y2="-20.4289"/>
    <polyline style="fill: none; fill-opacity:0; stroke-width: 2; stroke: #000000" points="-873.678,-14.2105 -864.646,-20.7997 -875.337,-24.0721 "/>
  </g>
  <g>
    <line style="fill: none; fill-opacity:0; stroke-width: 2; stroke: #000000" x1="-1165.61" y1="59.2469" x2="-925.735" y2="-1.20953"/>
    <polyline style="fill: none; fill-opacity:0; stroke-width: 2; stroke: #000000" points="-932.041,5.53628 -923.566,-1.75601 -934.485,-4.16049 "/>
  </g>
  <g>
    <line style="fill: none; fill-opacity:0; stroke-width: 2; stroke: #000000" x1="-1219" y1="104.244" x2="-897.334" y2="54.3526"/>
    <polyline style="fill: none; fill-opacity:0; stroke-width: 2; stroke: #000000" points="-904.24,60.4835 -895.124,54.0099 -905.773,50.6016 "/>
  </g>
  <g>
    <line style="fill: none; fill-opacity:0; stroke-width: 2; stroke: #000000" x1="-1285.92" y1="144.659" x2="-942.543" y2="90.4261"/>
    <polyline style="fill: none; fill-opacity:0; stroke-width: 2; stroke: #000000" points="-949.432,96.5761 -940.335,90.0773 -950.992,86.6986 "/>
  </g>
  <g>
    <line style="fill: none; fill-opacity:0; stroke-width: 2; stroke: #000000" x1="-1240.29" y1="176.374" x2="-936.635" y2="128.27"/>
    <polyline style="fill: none; fill-opacity:0; stroke-width: 2; stroke: #000000" points="-943.521,134.423 -934.426,127.92 -945.086,124.546 "/>
  </g>
  <g>
    <line style="fill: none; fill-opacity:0; stroke-width: 2; stroke: #000000" x1="-1245.23" y1="209.284" x2="-920.271" y2="159.194"/>
    <polyline style="fill: none; fill-opacity:0; stroke-width: 2; stroke: #000000" points="-927.182,165.319 -918.061,158.854 -928.706,155.435 "/>
  </g>
  <g>
    <rect style="fill: none; fill-opacity:0; stroke-width: 2; stroke-dasharray: 20; stroke: #000000" x="-973.152" y="-258.398" width="296.291" height="454.128"/>
    <text font-size="12.8" style="fill: #000000;text-anchor:middle;font-family:sans-serif;font-style:normal;font-weight:normal" x="-825.007" y="-27.4339">
      <tspan x="-825.007" y="-27.4339"></tspan>
    </text>
  </g>
  <g>
    <path style="fill: #ffffff" d="M -1436.53 -168.313 L -1390.96,-168.313 C -1384.67,-168.313 -1379.57,-163.388 -1379.57,-157.313 C -1379.57,-151.238 -1384.67,-146.313 -1390.96,-146.313 L -1436.53,-146.313 C -1442.82,-146.313 -1447.92,-151.238 -1447.92,-157.313 C -1447.92,-163.388 -1442.82,-168.313 -1436.53,-168.313z"/>
    <path style="fill: none; fill-opacity:0; stroke-width: 2; stroke: #000000" d="M -1436.53 -168.313 L -1390.96,-168.313 C -1384.67,-168.313 -1379.57,-163.388 -1379.57,-157.313 C -1379.57,-151.238 -1384.67,-146.313 -1390.96,-146.313 L -1436.53,-146.313 C -1442.82,-146.313 -1447.92,-151.238 -1447.92,-157.313 C -1447.92,-163.388 -1442.82,-168.313 -1436.53,-168.313"/>
    <text font-size="12.7998" style="fill: #000000;text-anchor:middle;font-family:sans-serif;font-style:normal;font-weight:normal" x="-1413.74" y="-153.313">
      <tspan x="-1413.74" y="-153.313">run</tspan>
    </text>
  </g>
  <g>
    <polygon style="fill: #ffffff" points="-1354.34,-137.222 -1332.31,-111.859 -1354.34,-86.4962 -1376.37,-111.859 "/>
    <polygon style="fill: none; fill-opacity:0; stroke-width: 2; stroke: #000000" points="-1354.34,-137.222 -1332.31,-111.859 -1354.34,-86.4962 -1376.37,-111.859 "/>
    <text font-size="12.7998" style="fill: #000000;text-anchor:middle;font-family:sans-serif;font-style:normal;font-weight:normal" x="-1354.34" y="-107.959">
      <tspan x="-1354.34" y="-107.959"></tspan>
    </text>
  </g>
  <g>
    <line style="fill: none; fill-opacity:0; stroke-width: 2; stroke: #000000" x1="-1398.07" y1="-145.317" x2="-1371.71" y2="-125.152"/>
    <polyline style="fill: none; fill-opacity:0; stroke-width: 2; stroke: #000000" points="-1380.92,-125.9 -1369.94,-123.793 -1374.84,-133.841 "/>
  </g>
  <g>
    <line style="fill: none; fill-opacity:0; stroke-width: 2; stroke: #000000" x1="-1334.94" y1="-115.948" x2="-1274.91" y2="-128.602"/>
    <polyline style="fill: none; fill-opacity:0; stroke-width: 2; stroke: #000000" points="-1281.47,-122.108 -1272.72,-129.063 -1283.53,-131.893 "/>
  </g>
  <g>
    <line style="fill: none; fill-opacity:0; stroke-width: 2; stroke: #000000" x1="-1339.47" y1="-121.264" x2="-1257.33" y2="-173.22"/>
    <polyline style="fill: none; fill-opacity:0; stroke-width: 2; stroke: #000000" points="-1261.22,-164.844 -1255.44,-174.415 -1266.57,-173.295 "/>
  </g>
  <g>
    <line style="fill: none; fill-opacity:0; stroke-width: 2; stroke: #000000" x1="-1333.9" y1="-108.898" x2="-1294.26" y2="-103.157"/>
    <polyline style="fill: none; fill-opacity:0; stroke-width: 2; stroke: #000000" points="-1302.67,-99.3213 -1292.05,-102.836 -1301.23,-109.218 "/>
  </g>
  <g>
    <line style="fill: none; fill-opacity:0; stroke-width: 2; stroke: #000000" x1="-1351.94" y1="-88.1169" x2="-1332.06" y2="108.152"/>
    <polyline style="fill: none; fill-opacity:0; stroke-width: 2; stroke: #000000" points="-1337.82,100.931 -1331.84,110.376 -1327.87,99.9234 "/>
  </g>
  <g>
    <line style="fill: none; fill-opacity:0; stroke-width: 2; stroke: #000000" x1="-1355.63" y1="-86.8212" x2="-1367.61" y2="146.551"/>
    <polyline style="fill: none; fill-opacity:0; stroke-width: 2; stroke: #000000" points="-1372.2,138.541 -1367.72,148.784 -1362.22,139.054 "/>
  </g>
  <g>
    <line style="fill: none; fill-opacity:0; stroke-width: 2; stroke: #000000" x1="-1337.57" y1="-104.665" x2="-1269.27" y2="-75.3808"/>
    <polyline style="fill: none; fill-opacity:0; stroke-width: 2; stroke: #000000" points="-1278.38,-73.8454 -1267.22,-74.4996 -1274.44,-83.036 "/>
  </g>
  <g>
    <line style="fill: none; fill-opacity:0; stroke-width: 2; stroke: #000000" x1="-1341.08" y1="-100.611" x2="-1276.45" y2="-45.8085"/>
    <polyline style="fill: none; fill-opacity:0; stroke-width: 2; stroke: #000000" points="-1285.61,-47.0163 -1274.74,-44.3623 -1279.14,-54.6433 "/>
  </g>
</svg>
